<svg xmlns="http://www.w3.org/2000/svg" viewBox="0 0 1400 720">
<defs>
<linearGradient id="wall" x1="0" x2="1" y1="0" y2="1"><stop stop-color="#f7f1e8"/><stop offset=".58" stop-color="#fffdf8"/><stop offset="1" stop-color="#efe3d4"/></linearGradient>
<linearGradient id="floor" x1="0" x2="0" y1="0" y2="1"><stop stop-color="#e6ddd1"/><stop offset="1" stop-color="#cfc2b4"/></linearGradient>
<linearGradient id="wood" x1="0" x2="1"><stop stop-color="#8d5f3b"/><stop offset=".45" stop-color="#c59a6f"/><stop offset="1" stop-color="#7e5638"/></linearGradient>
<linearGradient id="marble" x1="0" x2="1" y1="0" y2="1"><stop stop-color="#fffefa"/><stop offset=".5" stop-color="#f1ece4"/><stop offset="1" stop-color="#d8cfc3"/></linearGradient>
<filter id="softShadow" x="-20%" y="-20%" width="140%" height="150%"><feDropShadow dx="0" dy="28" stdDeviation="24" flood-color="#1f1f1c" flood-opacity=".18"/></filter>
<filter id="grain"><feTurbulence type="fractalNoise" baseFrequency=".02 .09" numOctaves="3" seed="8"/><feColorMatrix type="saturate" values=".18"/><feBlend mode="multiply" in2="SourceGraphic"/></filter>
</defs>
<rect width="1400" height="720" fill="url(#wall)"/>
<rect y="485" width="1400" height="235" fill="url(#floor)"/>
<path d="M0 485h1400" stroke="#d5c8bb" stroke-width="2"/>
<g opacity=".26"><path d="M80 535h1230M20 620h1330M260 485l-90 235M545 485l-38 235M840 485l45 235M1125 485l120 235" stroke="#b5a899" stroke-width="2"/></g>
<rect x="820" y="78" width="420" height="144" rx="8" fill="url(#wood)" filter="url(#grain)"/>
<g opacity=".24" stroke="#5c3b27"><path d="M890 84v136M960 84v136M1030 84v136M1100 84v136M1170 84v136"/></g>
<rect x="815" y="250" width="440" height="238" rx="10" fill="url(#wood)" filter="url(#grain)"/>
<rect x="858" y="270" width="146" height="132" rx="5" fill="#1f1f1c" opacity=".9"/><rect x="878" y="286" width="105" height="82" fill="#090908"/><circle cx="910" cy="385" r="6" fill="#c5a982"/><circle cx="935" cy="385" r="6" fill="#c5a982"/>
<rect x="1008" y="250" width="3" height="238" fill="#e2c6a7" opacity=".45"/><rect x="1110" y="250" width="3" height="238" fill="#e2c6a7" opacity=".45"/>
<rect x="515" y="64" width="330" height="118" rx="6" fill="#1f1f1c"/><rect x="535" y="82" width="290" height="82" fill="#11110f"/><rect x="600" y="35" width="160" height="18" rx="9" fill="#1f1f1c"/>
<g opacity=".45" stroke="#b9a38d" stroke-width="4" fill="none"><path d="M802 10c-90 95-62 220 28 350"/><path d="M930 20c-45 92-30 205 55 320"/><path d="M1110 0c-95 140-72 285 50 430"/><path d="M1290 65c-110 80-135 215-68 355"/></g>
<g filter="url(#softShadow)">
<path d="M115 404 L850 350 L1086 442 L342 528 Z" fill="url(#marble)" stroke="#d8cfc3" stroke-width="3"/>
<path d="M342 528 L1086 442 L1086 540 L342 628 Z" fill="#b58358" filter="url(#grain)"/>
<path d="M115 404 L342 528 L342 628 L115 498 Z" fill="#9a704e" filter="url(#grain)"/>
<path d="M160 414c110 20 170-38 282-8s175 42 298-10 188 16 310 14" fill="none" stroke="#b6a799" stroke-width="6" opacity=".65"/>
<path d="M250 434c100 7 115 45 220 22 120-26 160 18 250 28" fill="none" stroke="#8c8178" stroke-width="3" opacity=".38"/>
<path d="M675 368c-26 55-3 95 55 128" fill="none" stroke="#c9a66c" stroke-width="4" opacity=".55"/>
</g>
<path d="M965 297c0-46 66-46 66 0" stroke="#8B4828" stroke-width="9" fill="none"/><rect x="961" y="296" width="10" height="62" rx="5" fill="#8B4828"/><rect x="1025" y="296" width="10" height="62" rx="5" fill="#8B4828"/>
<g filter="url(#softShadow)"><ellipse cx="505" cy="585" rx="55" ry="20" fill="#1f1f1c" opacity=".18"/><ellipse cx="505" cy="505" rx="50" ry="42" fill="#4A6356"/><rect x="462" y="508" width="86" height="95" rx="8" fill="#24352d"/><ellipse cx="655" cy="585" rx="55" ry="20" fill="#1f1f1c" opacity=".18"/><ellipse cx="655" cy="505" rx="50" ry="42" fill="#4A6356"/><rect x="612" y="508" width="86" height="95" rx="8" fill="#24352d"/><ellipse cx="805" cy="585" rx="55" ry="20" fill="#1f1f1c" opacity=".18"/><ellipse cx="805" cy="505" rx="50" ry="42" fill="#4A6356"/><rect x="762" y="508" width="86" height="95" rx="8" fill="#24352d"/></g>
<rect x="0" y="0" width="1400" height="720" fill="rgba(255,255,255,.08)"/>
</svg>