<svg xmlns="http://www.w3.org/2000/svg" viewBox="0 0 1200 620">
<defs><linearGradient id="wall" x1="0" x2="1"><stop stop-color="#f6f0e7"/><stop offset="1" stop-color="#fffdf8"/></linearGradient><linearGradient id="wood" x1="0" x2="1"><stop stop-color="#9a6b43"/><stop offset="1" stop-color="#c59a6f"/></linearGradient><filter id="grain"><feTurbulence type="fractalNoise" baseFrequency=".018 .08" numOctaves="3" seed="14"/><feColorMatrix type="saturate" values=".28"/><feBlend mode="multiply" in2="SourceGraphic"/></filter></defs>
<rect width="1200" height="620" fill="url(#wall)"/><rect x="735" y="0" width="465" height="620" fill="#ead8c2"/><g opacity=".35"><path d="M700 30c130 120 160 220 70 340" fill="none" stroke="#b69072" stroke-width="5"/><path d="M860 10c-80 90-60 210 15 310" fill="none" stroke="#b69072" stroke-width="4"/><path d="M1000 0c-70 160-45 310 85 455" fill="none" stroke="#b69072" stroke-width="3"/></g>
<rect x="0" y="390" width="1200" height="230" fill="#e9e1d6"/><rect x="650" y="54" width="420" height="132" rx="4" fill="url(#wood)" filter="url(#grain)"/><rect x="685" y="198" width="420" height="210" rx="5" fill="url(#wood)" filter="url(#grain)"/><rect x="90" y="255" width="700" height="190" rx="8" fill="#f9f5ed" stroke="#d7c9ba"/><rect x="70" y="235" width="740" height="70" rx="6" fill="#fffaf0" stroke="#d7c9ba"/><path d="M90 250c80 20 160-30 230 0s120 18 220-5 155 20 250-2" fill="none" stroke="#b8a28d" stroke-width="5" opacity=".55"/><rect x="112" y="305" width="650" height="125" fill="#9b6f4b" filter="url(#grain)"/><rect x="365" y="185" width="260" height="14" rx="7" fill="#1f1f1c"/><rect x="420" y="94" width="150" height="92" rx="2" fill="#1f1f1c"/><rect x="980" y="275" width="60" height="96" fill="#1f1f1c" opacity=".85"/><path d="M988 272c0-34 46-34 46 0" fill="none" stroke="#8B4828" stroke-width="8"/><circle cx="468" cy="500" r="44" fill="#4A6356"/><rect x="432" y="494" width="72" height="106" fill="#2d382f"/><circle cx="590" cy="500" r="44" fill="#4A6356"/><rect x="554" y="494" width="72" height="106" fill="#2d382f"/><circle cx="712" cy="500" r="44" fill="#4A6356"/><rect x="676" y="494" width="72" height="106" fill="#2d382f"/><rect x="0" y="0" width="1200" height="620" fill="rgba(255,255,255,.06)"/></svg>
