<svg xmlns="http://www.w3.org/2000/svg" viewBox="0 0 1000 620">
<defs>
<linearGradient id="g" x1="0" x2="1" y1="0" y2="1"><stop stop-color="#8fa27e"/><stop offset=".55" stop-color="#d0dbc1"/><stop offset="1" stop-color="#5a6b51"/></linearGradient>
<filter id="noise"><feTurbulence type="fractalNoise" baseFrequency=".035 .09" numOctaves="5" seed="12"/><feColorMatrix type="saturate" values=".22"/><feBlend mode="multiply" in2="SourceGraphic"/></filter>
</defs>
<rect width="1000" height="620" fill="url(#g)"/>
<circle cx="443" cy="534" r="4.8" fill="#d0dbc1" opacity="0.21"/>
<circle cx="885" cy="291" r="4.6" fill="#1f1f1c" opacity="0.29"/>
<circle cx="103" cy="360" r="5.1" fill="#8fa27e" opacity="0.29"/>
<circle cx="684" cy="459" r="3.9" fill="#5a6b51" opacity="0.40"/>
<circle cx="711" cy="469" r="2.5" fill="#5a6b51" opacity="0.24"/>
<circle cx="774" cy="19" r="4.3" fill="#ffffff" opacity="0.21"/>
<circle cx="805" cy="223" r="4.2" fill="#8fa27e" opacity="0.10"/>
<circle cx="601" cy="240" r="5.0" fill="#8fa27e" opacity="0.41"/>
<circle cx="959" cy="189" r="2.6" fill="#5a6b51" opacity="0.32"/>
<circle cx="526" cy="223" r="4.9" fill="#5a6b51" opacity="0.40"/>
<circle cx="184" cy="183" r="2.3" fill="#8fa27e" opacity="0.26"/>
<circle cx="854" cy="214" r="2.6" fill="#8fa27e" opacity="0.10"/>
<circle cx="897" cy="310" r="4.8" fill="#ffffff" opacity="0.34"/>
<circle cx="390" cy="160" r="5.6" fill="#5a6b51" opacity="0.35"/>
<circle cx="412" cy="595" r="4.4" fill="#8fa27e" opacity="0.25"/>
<circle cx="346" cy="311" r="5.6" fill="#ffffff" opacity="0.25"/>
<circle cx="926" cy="170" r="2.3" fill="#ffffff" opacity="0.13"/>
<circle cx="468" cy="579" r="2.6" fill="#ffffff" opacity="0.27"/>
<circle cx="468" cy="330" r="3.0" fill="#8fa27e" opacity="0.34"/>
<circle cx="424" cy="197" r="4.3" fill="#ffffff" opacity="0.23"/>
<circle cx="590" cy="460" r="1.8" fill="#8fa27e" opacity="0.14"/>
<circle cx="64" cy="285" r="2.8" fill="#1f1f1c" opacity="0.31"/>
<circle cx="746" cy="422" r="5.4" fill="#d0dbc1" opacity="0.40"/>
<circle cx="591" cy="614" r="4.5" fill="#8fa27e" opacity="0.16"/>
<circle cx="43" cy="533" r="1.4" fill="#d0dbc1" opacity="0.29"/>
<circle cx="819" cy="284" r="3.6" fill="#d0dbc1" opacity="0.25"/>
<circle cx="510" cy="547" r="3.4" fill="#5a6b51" opacity="0.11"/>
<circle cx="304" cy="572" r="2.3" fill="#1f1f1c" opacity="0.35"/>
<circle cx="416" cy="585" r="2.5" fill="#1f1f1c" opacity="0.20"/>
<circle cx="876" cy="427" r="5.6" fill="#d0dbc1" opacity="0.33"/>
<circle cx="684" cy="123" r="3.3" fill="#d0dbc1" opacity="0.30"/>
<circle cx="158" cy="79" r="3.4" fill="#1f1f1c" opacity="0.26"/>
<circle cx="572" cy="143" r="1.3" fill="#5a6b51" opacity="0.38"/>
<circle cx="346" cy="236" r="3.2" fill="#1f1f1c" opacity="0.13"/>
<circle cx="392" cy="101" r="2.0" fill="#5a6b51" opacity="0.11"/>
<circle cx="388" cy="140" r="1.6" fill="#ffffff" opacity="0.15"/>
<circle cx="910" cy="363" r="3.8" fill="#5a6b51" opacity="0.26"/>
<circle cx="267" cy="366" r="5.5" fill="#8fa27e" opacity="0.14"/>
<circle cx="52" cy="293" r="4.6" fill="#ffffff" opacity="0.39"/>
<circle cx="866" cy="15" r="3.2" fill="#ffffff" opacity="0.24"/>
<circle cx="971" cy="594" r="2.9" fill="#5a6b51" opacity="0.36"/>
<circle cx="721" cy="460" r="3.9" fill="#1f1f1c" opacity="0.31"/>
<circle cx="226" cy="546" r="3.3" fill="#1f1f1c" opacity="0.30"/>
<circle cx="922" cy="172" r="5.7" fill="#1f1f1c" opacity="0.22"/>
<circle cx="588" cy="27" r="1.5" fill="#8fa27e" opacity="0.31"/>
<circle cx="856" cy="572" r="5.7" fill="#ffffff" opacity="0.35"/>
<circle cx="117" cy="133" r="3.5" fill="#5a6b51" opacity="0.31"/>
<circle cx="91" cy="477" r="5.2" fill="#ffffff" opacity="0.30"/>
<circle cx="62" cy="357" r="2.0" fill="#d0dbc1" opacity="0.15"/>
<circle cx="806" cy="395" r="1.8" fill="#1f1f1c" opacity="0.36"/>
<circle cx="364" cy="448" r="3.5" fill="#d0dbc1" opacity="0.41"/>
<circle cx="341" cy="584" r="4.4" fill="#d0dbc1" opacity="0.37"/>
<circle cx="565" cy="462" r="5.7" fill="#d0dbc1" opacity="0.33"/>
<circle cx="775" cy="186" r="5.2" fill="#ffffff" opacity="0.35"/>
<circle cx="613" cy="285" r="4.6" fill="#d0dbc1" opacity="0.23"/>
<circle cx="828" cy="254" r="1.5" fill="#d0dbc1" opacity="0.21"/>
<circle cx="568" cy="221" r="5.3" fill="#d0dbc1" opacity="0.39"/>
<circle cx="819" cy="237" r="4.1" fill="#1f1f1c" opacity="0.17"/>
<circle cx="709" cy="446" r="3.0" fill="#ffffff" opacity="0.20"/>
<circle cx="8" cy="125" r="2.2" fill="#d0dbc1" opacity="0.13"/>
<circle cx="771" cy="91" r="2.6" fill="#8fa27e" opacity="0.11"/>
<circle cx="174" cy="596" r="2.0" fill="#8fa27e" opacity="0.34"/>
<circle cx="253" cy="580" r="5.2" fill="#8fa27e" opacity="0.18"/>
<circle cx="134" cy="154" r="1.5" fill="#1f1f1c" opacity="0.34"/>
<circle cx="790" cy="190" r="4.4" fill="#d0dbc1" opacity="0.30"/>
<circle cx="526" cy="185" r="3.9" fill="#1f1f1c" opacity="0.25"/>
<circle cx="89" cy="502" r="3.3" fill="#8fa27e" opacity="0.19"/>
<circle cx="658" cy="165" r="2.6" fill="#d0dbc1" opacity="0.30"/>
<circle cx="75" cy="104" r="3.5" fill="#1f1f1c" opacity="0.12"/>
<circle cx="489" cy="401" r="2.6" fill="#1f1f1c" opacity="0.11"/>
<circle cx="253" cy="463" r="5.1" fill="#8fa27e" opacity="0.29"/>
<circle cx="848" cy="217" r="4.2" fill="#ffffff" opacity="0.35"/>
<circle cx="162" cy="446" r="4.6" fill="#5a6b51" opacity="0.36"/>
<circle cx="623" cy="181" r="4.0" fill="#d0dbc1" opacity="0.18"/>
<circle cx="778" cy="95" r="4.2" fill="#5a6b51" opacity="0.31"/>
<circle cx="449" cy="44" r="4.1" fill="#ffffff" opacity="0.30"/>
<circle cx="190" cy="390" r="4.0" fill="#1f1f1c" opacity="0.22"/>
<circle cx="412" cy="579" r="5.3" fill="#5a6b51" opacity="0.24"/>
<circle cx="984" cy="174" r="2.1" fill="#d0dbc1" opacity="0.22"/>
<circle cx="367" cy="283" r="3.4" fill="#1f1f1c" opacity="0.24"/>
<circle cx="491" cy="171" r="2.1" fill="#ffffff" opacity="0.31"/>
<circle cx="244" cy="47" r="4.9" fill="#d0dbc1" opacity="0.14"/>
<circle cx="723" cy="340" r="3.5" fill="#5a6b51" opacity="0.17"/>
<circle cx="65" cy="117" r="3.1" fill="#1f1f1c" opacity="0.18"/>
<circle cx="367" cy="295" r="3.7" fill="#8fa27e" opacity="0.12"/>
<circle cx="498" cy="403" r="2.4" fill="#d0dbc1" opacity="0.34"/>
<circle cx="728" cy="381" r="1.8" fill="#1f1f1c" opacity="0.38"/>
<circle cx="300" cy="496" r="4.2" fill="#1f1f1c" opacity="0.22"/>
<circle cx="934" cy="566" r="4.1" fill="#5a6b51" opacity="0.28"/>
<circle cx="745" cy="221" r="1.9" fill="#ffffff" opacity="0.19"/>
<path d="M-51 638 C 314 485, 485 750, 1099 611" fill="none" stroke="#5a6b51" stroke-width="5.2" opacity="0.28" stroke-linecap="round"/>
<path d="M49 449 C 548 324, 673 574, 1041 502" fill="none" stroke="#5a6b51" stroke-width="6.0" opacity="0.28" stroke-linecap="round"/>
<path d="M-20 152 C 369 -34, 519 266, 827 190" fill="none" stroke="#5a6b51" stroke-width="5.8" opacity="0.28" stroke-linecap="round"/>
<path d="M-107 252 C 445 127, 572 339, 919 363" fill="none" stroke="#5a6b51" stroke-width="2.4" opacity="0.28" stroke-linecap="round"/>
<path d="M-87 699 C 318 527, 493 841, 788 699" fill="none" stroke="#5a6b51" stroke-width="5.1" opacity="0.28" stroke-linecap="round"/>
<rect width="1000" height="620" filter="url(#noise)" opacity=".55"/>
</svg>