<svg xmlns="http://www.w3.org/2000/svg" viewBox="0 0 1000 620">
<defs>
<linearGradient id="g" x1="0" x2="1" y1="0" y2="1"><stop stop-color="#3a3b3a"/><stop offset=".55" stop-color="#83827d"/><stop offset="1" stop-color="#c8c5bd"/></linearGradient>
<filter id="noise"><feTurbulence type="fractalNoise" baseFrequency=".035 .09" numOctaves="5" seed="12"/><feColorMatrix type="saturate" values=".22"/><feBlend mode="multiply" in2="SourceGraphic"/></filter>
</defs>
<rect width="1000" height="620" fill="url(#g)"/>
<circle cx="62" cy="507" r="4.2" fill="#83827d" opacity="0.34"/>
<circle cx="14" cy="600" r="2.1" fill="#1f1f1c" opacity="0.22"/>
<circle cx="892" cy="326" r="2.5" fill="#3a3b3a" opacity="0.10"/>
<circle cx="46" cy="462" r="5.0" fill="#1f1f1c" opacity="0.27"/>
<circle cx="550" cy="606" r="2.4" fill="#1f1f1c" opacity="0.29"/>
<circle cx="521" cy="504" r="4.1" fill="#ffffff" opacity="0.12"/>
<circle cx="90" cy="550" r="4.0" fill="#1f1f1c" opacity="0.29"/>
<circle cx="717" cy="563" r="3.3" fill="#83827d" opacity="0.38"/>
<circle cx="835" cy="523" r="1.7" fill="#ffffff" opacity="0.40"/>
<circle cx="203" cy="458" r="2.5" fill="#ffffff" opacity="0.30"/>
<circle cx="492" cy="283" r="5.7" fill="#83827d" opacity="0.14"/>
<circle cx="348" cy="294" r="1.9" fill="#1f1f1c" opacity="0.25"/>
<circle cx="171" cy="205" r="4.2" fill="#c8c5bd" opacity="0.14"/>
<circle cx="174" cy="431" r="5.4" fill="#3a3b3a" opacity="0.19"/>
<circle cx="674" cy="616" r="4.7" fill="#c8c5bd" opacity="0.26"/>
<circle cx="829" cy="352" r="1.5" fill="#c8c5bd" opacity="0.35"/>
<circle cx="847" cy="234" r="4.1" fill="#1f1f1c" opacity="0.39"/>
<circle cx="897" cy="495" r="3.0" fill="#c8c5bd" opacity="0.39"/>
<circle cx="190" cy="524" r="5.2" fill="#83827d" opacity="0.31"/>
<circle cx="532" cy="413" r="2.2" fill="#3a3b3a" opacity="0.08"/>
<circle cx="970" cy="107" r="5.7" fill="#3a3b3a" opacity="0.36"/>
<circle cx="618" cy="260" r="2.4" fill="#ffffff" opacity="0.10"/>
<circle cx="739" cy="435" r="5.4" fill="#c8c5bd" opacity="0.36"/>
<circle cx="246" cy="166" r="3.9" fill="#83827d" opacity="0.27"/>
<circle cx="142" cy="505" r="3.9" fill="#1f1f1c" opacity="0.32"/>
<circle cx="313" cy="189" r="3.4" fill="#1f1f1c" opacity="0.27"/>
<circle cx="558" cy="230" r="1.3" fill="#83827d" opacity="0.35"/>
<circle cx="530" cy="496" r="2.0" fill="#c8c5bd" opacity="0.33"/>
<circle cx="249" cy="109" r="1.7" fill="#ffffff" opacity="0.11"/>
<circle cx="394" cy="77" r="3.2" fill="#ffffff" opacity="0.42"/>
<circle cx="505" cy="467" r="2.2" fill="#3a3b3a" opacity="0.15"/>
<circle cx="986" cy="617" r="2.0" fill="#c8c5bd" opacity="0.08"/>
<circle cx="518" cy="93" r="1.4" fill="#83827d" opacity="0.17"/>
<circle cx="521" cy="51" r="2.3" fill="#1f1f1c" opacity="0.29"/>
<circle cx="506" cy="94" r="1.2" fill="#83827d" opacity="0.31"/>
<circle cx="322" cy="477" r="2.8" fill="#1f1f1c" opacity="0.25"/>
<circle cx="872" cy="56" r="4.2" fill="#1f1f1c" opacity="0.11"/>
<circle cx="148" cy="45" r="5.3" fill="#83827d" opacity="0.24"/>
<circle cx="16" cy="287" r="5.5" fill="#1f1f1c" opacity="0.28"/>
<circle cx="30" cy="17" r="4.2" fill="#3a3b3a" opacity="0.20"/>
<circle cx="352" cy="607" r="4.8" fill="#c8c5bd" opacity="0.19"/>
<circle cx="970" cy="192" r="2.0" fill="#83827d" opacity="0.23"/>
<circle cx="390" cy="199" r="1.4" fill="#ffffff" opacity="0.35"/>
<circle cx="389" cy="32" r="4.3" fill="#1f1f1c" opacity="0.12"/>
<circle cx="957" cy="316" r="5.5" fill="#c8c5bd" opacity="0.09"/>
<circle cx="628" cy="143" r="1.5" fill="#c8c5bd" opacity="0.14"/>
<circle cx="825" cy="31" r="4.8" fill="#83827d" opacity="0.31"/>
<circle cx="604" cy="480" r="1.8" fill="#1f1f1c" opacity="0.13"/>
<circle cx="886" cy="54" r="4.6" fill="#3a3b3a" opacity="0.19"/>
<circle cx="281" cy="21" r="5.7" fill="#1f1f1c" opacity="0.35"/>
<circle cx="99" cy="16" r="5.3" fill="#83827d" opacity="0.36"/>
<circle cx="457" cy="286" r="3.6" fill="#3a3b3a" opacity="0.19"/>
<circle cx="371" cy="264" r="3.5" fill="#83827d" opacity="0.39"/>
<circle cx="388" cy="30" r="4.5" fill="#ffffff" opacity="0.10"/>
<circle cx="245" cy="237" r="3.4" fill="#c8c5bd" opacity="0.10"/>
<circle cx="335" cy="355" r="1.5" fill="#1f1f1c" opacity="0.40"/>
<circle cx="482" cy="201" r="5.8" fill="#1f1f1c" opacity="0.09"/>
<circle cx="450" cy="397" r="4.1" fill="#c8c5bd" opacity="0.17"/>
<circle cx="194" cy="122" r="3.2" fill="#83827d" opacity="0.39"/>
<circle cx="413" cy="245" r="2.7" fill="#83827d" opacity="0.31"/>
<circle cx="41" cy="547" r="2.9" fill="#c8c5bd" opacity="0.22"/>
<circle cx="103" cy="449" r="4.3" fill="#ffffff" opacity="0.36"/>
<circle cx="129" cy="485" r="1.5" fill="#ffffff" opacity="0.25"/>
<circle cx="560" cy="153" r="2.4" fill="#1f1f1c" opacity="0.21"/>
<circle cx="947" cy="594" r="3.8" fill="#c8c5bd" opacity="0.21"/>
<circle cx="855" cy="569" r="4.2" fill="#1f1f1c" opacity="0.33"/>
<circle cx="739" cy="453" r="2.9" fill="#83827d" opacity="0.18"/>
<circle cx="385" cy="297" r="3.5" fill="#3a3b3a" opacity="0.38"/>
<circle cx="998" cy="395" r="3.3" fill="#1f1f1c" opacity="0.17"/>
<circle cx="751" cy="151" r="3.9" fill="#1f1f1c" opacity="0.25"/>
<circle cx="328" cy="577" r="5.8" fill="#ffffff" opacity="0.29"/>
<circle cx="687" cy="169" r="3.8" fill="#1f1f1c" opacity="0.17"/>
<circle cx="143" cy="204" r="4.6" fill="#3a3b3a" opacity="0.18"/>
<circle cx="507" cy="259" r="4.4" fill="#83827d" opacity="0.10"/>
<circle cx="222" cy="6" r="2.2" fill="#1f1f1c" opacity="0.38"/>
<circle cx="381" cy="256" r="1.4" fill="#3a3b3a" opacity="0.13"/>
<circle cx="93" cy="363" r="1.3" fill="#1f1f1c" opacity="0.15"/>
<circle cx="338" cy="411" r="4.2" fill="#c8c5bd" opacity="0.25"/>
<circle cx="802" cy="183" r="5.6" fill="#ffffff" opacity="0.34"/>
<circle cx="656" cy="82" r="3.7" fill="#c8c5bd" opacity="0.17"/>
<circle cx="752" cy="131" r="3.4" fill="#c8c5bd" opacity="0.40"/>
<circle cx="402" cy="136" r="4.0" fill="#c8c5bd" opacity="0.13"/>
<circle cx="737" cy="302" r="5.5" fill="#c8c5bd" opacity="0.25"/>
<circle cx="888" cy="210" r="4.0" fill="#3a3b3a" opacity="0.37"/>
<circle cx="261" cy="618" r="5.4" fill="#c8c5bd" opacity="0.19"/>
<circle cx="502" cy="202" r="2.2" fill="#83827d" opacity="0.11"/>
<circle cx="109" cy="467" r="3.2" fill="#ffffff" opacity="0.20"/>
<circle cx="332" cy="535" r="3.2" fill="#ffffff" opacity="0.12"/>
<circle cx="941" cy="298" r="2.4" fill="#c8c5bd" opacity="0.30"/>
<circle cx="314" cy="327" r="2.5" fill="#1f1f1c" opacity="0.39"/>
<path d="M-34 522 C 367 368, 490 622, 963 556" fill="none" stroke="#c8c5bd" stroke-width="5.2" opacity="0.28" stroke-linecap="round"/>
<path d="M76 631 C 539 525, 665 728, 700 611" fill="none" stroke="#c8c5bd" stroke-width="7.4" opacity="0.28" stroke-linecap="round"/>
<path d="M-40 401 C 343 246, 427 462, 769 408" fill="none" stroke="#c8c5bd" stroke-width="4.2" opacity="0.28" stroke-linecap="round"/>
<path d="M70 330 C 465 147, 561 428, 871 448" fill="none" stroke="#c8c5bd" stroke-width="5.3" opacity="0.28" stroke-linecap="round"/>
<path d="M-72 -4 C 418 -151, 503 63, 1101 47" fill="none" stroke="#c8c5bd" stroke-width="3.1" opacity="0.28" stroke-linecap="round"/>
<rect width="1000" height="620" filter="url(#noise)" opacity=".55"/>
</svg>