<svg xmlns="http://www.w3.org/2000/svg" viewBox="0 0 1000 620">
<defs>
<linearGradient id="g" x1="0" x2="1" y1="0" y2="1"><stop stop-color="#5b1712"/><stop offset=".55" stop-color="#a4382d"/><stop offset="1" stop-color="#e0a17a"/></linearGradient>
<filter id="noise"><feTurbulence type="fractalNoise" baseFrequency=".035 .09" numOctaves="5" seed="12"/><feColorMatrix type="saturate" values=".22"/><feBlend mode="multiply" in2="SourceGraphic"/></filter>
</defs>
<rect width="1000" height="620" fill="url(#g)"/>
<circle cx="502" cy="457" r="4.2" fill="#1f1f1c" opacity="0.30"/>
<circle cx="522" cy="364" r="2.8" fill="#ffffff" opacity="0.35"/>
<circle cx="868" cy="491" r="3.8" fill="#5b1712" opacity="0.09"/>
<circle cx="591" cy="21" r="4.5" fill="#1f1f1c" opacity="0.26"/>
<circle cx="54" cy="114" r="4.3" fill="#e0a17a" opacity="0.34"/>
<circle cx="708" cy="163" r="3.6" fill="#e0a17a" opacity="0.16"/>
<circle cx="294" cy="38" r="3.5" fill="#5b1712" opacity="0.16"/>
<circle cx="897" cy="228" r="2.5" fill="#1f1f1c" opacity="0.14"/>
<circle cx="635" cy="210" r="1.5" fill="#5b1712" opacity="0.09"/>
<circle cx="160" cy="308" r="2.2" fill="#a4382d" opacity="0.32"/>
<circle cx="853" cy="279" r="1.4" fill="#1f1f1c" opacity="0.19"/>
<circle cx="910" cy="346" r="2.4" fill="#1f1f1c" opacity="0.21"/>
<circle cx="569" cy="229" r="3.5" fill="#ffffff" opacity="0.31"/>
<circle cx="828" cy="339" r="4.0" fill="#1f1f1c" opacity="0.11"/>
<circle cx="701" cy="482" r="3.0" fill="#ffffff" opacity="0.36"/>
<circle cx="846" cy="542" r="2.7" fill="#ffffff" opacity="0.09"/>
<circle cx="544" cy="3" r="1.9" fill="#a4382d" opacity="0.33"/>
<circle cx="599" cy="469" r="4.7" fill="#1f1f1c" opacity="0.19"/>
<circle cx="398" cy="220" r="4.3" fill="#1f1f1c" opacity="0.09"/>
<circle cx="881" cy="416" r="5.0" fill="#a4382d" opacity="0.08"/>
<circle cx="49" cy="214" r="1.2" fill="#ffffff" opacity="0.34"/>
<circle cx="464" cy="35" r="1.7" fill="#1f1f1c" opacity="0.26"/>
<circle cx="415" cy="497" r="4.7" fill="#a4382d" opacity="0.30"/>
<circle cx="487" cy="546" r="5.4" fill="#e0a17a" opacity="0.27"/>
<circle cx="760" cy="260" r="5.6" fill="#5b1712" opacity="0.23"/>
<circle cx="297" cy="460" r="4.1" fill="#e0a17a" opacity="0.25"/>
<circle cx="896" cy="412" r="1.4" fill="#5b1712" opacity="0.29"/>
<circle cx="827" cy="69" r="2.5" fill="#1f1f1c" opacity="0.39"/>
<circle cx="674" cy="542" r="5.8" fill="#5b1712" opacity="0.22"/>
<circle cx="858" cy="606" r="3.0" fill="#a4382d" opacity="0.24"/>
<circle cx="688" cy="108" r="5.6" fill="#e0a17a" opacity="0.20"/>
<circle cx="349" cy="440" r="2.9" fill="#1f1f1c" opacity="0.25"/>
<circle cx="5" cy="281" r="4.7" fill="#a4382d" opacity="0.25"/>
<circle cx="363" cy="529" r="3.0" fill="#5b1712" opacity="0.35"/>
<circle cx="90" cy="110" r="5.6" fill="#e0a17a" opacity="0.20"/>
<circle cx="586" cy="379" r="3.3" fill="#5b1712" opacity="0.25"/>
<circle cx="594" cy="375" r="5.0" fill="#a4382d" opacity="0.11"/>
<circle cx="950" cy="406" r="5.3" fill="#e0a17a" opacity="0.24"/>
<circle cx="223" cy="458" r="1.2" fill="#ffffff" opacity="0.10"/>
<circle cx="258" cy="242" r="4.0" fill="#ffffff" opacity="0.29"/>
<circle cx="976" cy="176" r="4.1" fill="#1f1f1c" opacity="0.28"/>
<circle cx="966" cy="521" r="1.5" fill="#e0a17a" opacity="0.12"/>
<circle cx="990" cy="338" r="3.6" fill="#a4382d" opacity="0.40"/>
<circle cx="397" cy="47" r="4.5" fill="#1f1f1c" opacity="0.17"/>
<circle cx="97" cy="232" r="4.1" fill="#1f1f1c" opacity="0.17"/>
<circle cx="323" cy="193" r="3.0" fill="#1f1f1c" opacity="0.25"/>
<circle cx="707" cy="24" r="4.9" fill="#e0a17a" opacity="0.38"/>
<circle cx="904" cy="530" r="4.9" fill="#1f1f1c" opacity="0.34"/>
<circle cx="414" cy="49" r="2.2" fill="#5b1712" opacity="0.31"/>
<circle cx="119" cy="161" r="2.4" fill="#ffffff" opacity="0.11"/>
<circle cx="955" cy="376" r="1.8" fill="#ffffff" opacity="0.32"/>
<circle cx="43" cy="122" r="1.7" fill="#a4382d" opacity="0.20"/>
<circle cx="60" cy="92" r="3.7" fill="#a4382d" opacity="0.13"/>
<circle cx="981" cy="385" r="2.7" fill="#ffffff" opacity="0.27"/>
<circle cx="489" cy="251" r="5.4" fill="#ffffff" opacity="0.42"/>
<circle cx="980" cy="531" r="3.4" fill="#e0a17a" opacity="0.21"/>
<circle cx="624" cy="522" r="2.9" fill="#1f1f1c" opacity="0.35"/>
<circle cx="377" cy="182" r="3.5" fill="#5b1712" opacity="0.36"/>
<circle cx="749" cy="149" r="3.9" fill="#5b1712" opacity="0.13"/>
<circle cx="289" cy="501" r="3.5" fill="#5b1712" opacity="0.21"/>
<circle cx="514" cy="216" r="1.3" fill="#5b1712" opacity="0.37"/>
<circle cx="301" cy="49" r="4.7" fill="#ffffff" opacity="0.34"/>
<circle cx="872" cy="425" r="2.7" fill="#a4382d" opacity="0.33"/>
<circle cx="615" cy="189" r="5.1" fill="#5b1712" opacity="0.41"/>
<circle cx="696" cy="231" r="4.7" fill="#a4382d" opacity="0.18"/>
<circle cx="776" cy="22" r="5.2" fill="#a4382d" opacity="0.20"/>
<circle cx="683" cy="370" r="2.2" fill="#ffffff" opacity="0.34"/>
<circle cx="196" cy="66" r="4.6" fill="#a4382d" opacity="0.18"/>
<circle cx="680" cy="111" r="1.9" fill="#ffffff" opacity="0.11"/>
<circle cx="625" cy="310" r="2.8" fill="#a4382d" opacity="0.31"/>
<circle cx="167" cy="74" r="4.4" fill="#5b1712" opacity="0.39"/>
<circle cx="786" cy="308" r="3.6" fill="#ffffff" opacity="0.27"/>
<circle cx="800" cy="438" r="4.5" fill="#e0a17a" opacity="0.09"/>
<circle cx="249" cy="431" r="3.3" fill="#e0a17a" opacity="0.35"/>
<circle cx="253" cy="263" r="2.3" fill="#ffffff" opacity="0.34"/>
<circle cx="174" cy="8" r="4.4" fill="#1f1f1c" opacity="0.34"/>
<circle cx="269" cy="551" r="2.6" fill="#1f1f1c" opacity="0.14"/>
<circle cx="458" cy="376" r="3.0" fill="#1f1f1c" opacity="0.26"/>
<circle cx="455" cy="391" r="3.4" fill="#ffffff" opacity="0.34"/>
<circle cx="808" cy="436" r="2.0" fill="#ffffff" opacity="0.21"/>
<circle cx="122" cy="371" r="2.8" fill="#a4382d" opacity="0.37"/>
<circle cx="592" cy="363" r="2.8" fill="#1f1f1c" opacity="0.17"/>
<circle cx="701" cy="384" r="1.4" fill="#e0a17a" opacity="0.10"/>
<circle cx="522" cy="267" r="1.8" fill="#ffffff" opacity="0.27"/>
<circle cx="765" cy="539" r="2.1" fill="#1f1f1c" opacity="0.27"/>
<circle cx="671" cy="88" r="5.4" fill="#e0a17a" opacity="0.22"/>
<circle cx="828" cy="256" r="4.2" fill="#1f1f1c" opacity="0.29"/>
<circle cx="71" cy="19" r="2.2" fill="#ffffff" opacity="0.08"/>
<circle cx="868" cy="332" r="5.5" fill="#1f1f1c" opacity="0.20"/>
<circle cx="129" cy="594" r="1.9" fill="#a4382d" opacity="0.25"/>
<path d="M6 219 C 558 82, 726 321, 762 252" fill="none" stroke="#e0a17a" stroke-width="4.2" opacity="0.28" stroke-linecap="round"/>
<path d="M24 643 C 454 498, 628 743, 842 580" fill="none" stroke="#e0a17a" stroke-width="6.0" opacity="0.28" stroke-linecap="round"/>
<path d="M47 -45 C 359 -218, 517 95, 771 -44" fill="none" stroke="#e0a17a" stroke-width="6.0" opacity="0.28" stroke-linecap="round"/>
<path d="M34 236 C 504 142, 584 394, 1075 211" fill="none" stroke="#e0a17a" stroke-width="7.9" opacity="0.28" stroke-linecap="round"/>
<path d="M31 -17 C 412 -159, 531 47, 935 -68" fill="none" stroke="#e0a17a" stroke-width="4.3" opacity="0.28" stroke-linecap="round"/>
<rect width="1000" height="620" filter="url(#noise)" opacity=".55"/>
</svg>