<svg xmlns="http://www.w3.org/2000/svg" viewBox="0 0 1000 620">
<defs>
<linearGradient id="g" x1="0" x2="1" y1="0" y2="1"><stop stop-color="#efe6d5"/><stop offset=".55" stop-color="#fffaf0"/><stop offset="1" stop-color="#cdbfaa"/></linearGradient>
<filter id="noise"><feTurbulence type="fractalNoise" baseFrequency=".035 .09" numOctaves="5" seed="12"/><feColorMatrix type="saturate" values=".22"/><feBlend mode="multiply" in2="SourceGraphic"/></filter>
</defs>
<rect width="1000" height="620" fill="url(#g)"/>
<circle cx="266" cy="542" r="2.0" fill="#1f1f1c" opacity="0.33"/>
<circle cx="277" cy="480" r="4.3" fill="#1f1f1c" opacity="0.26"/>
<circle cx="570" cy="569" r="2.8" fill="#efe6d5" opacity="0.24"/>
<circle cx="23" cy="516" r="2.3" fill="#efe6d5" opacity="0.10"/>
<circle cx="976" cy="286" r="2.7" fill="#1f1f1c" opacity="0.21"/>
<circle cx="311" cy="167" r="3.8" fill="#efe6d5" opacity="0.37"/>
<circle cx="519" cy="276" r="3.1" fill="#1f1f1c" opacity="0.28"/>
<circle cx="940" cy="422" r="3.0" fill="#efe6d5" opacity="0.38"/>
<circle cx="455" cy="519" r="2.0" fill="#efe6d5" opacity="0.26"/>
<circle cx="856" cy="530" r="2.4" fill="#efe6d5" opacity="0.30"/>
<circle cx="704" cy="308" r="2.0" fill="#ffffff" opacity="0.39"/>
<circle cx="735" cy="362" r="3.0" fill="#fffaf0" opacity="0.41"/>
<circle cx="443" cy="567" r="3.1" fill="#efe6d5" opacity="0.11"/>
<circle cx="752" cy="599" r="2.4" fill="#cdbfaa" opacity="0.27"/>
<circle cx="604" cy="530" r="2.3" fill="#cdbfaa" opacity="0.29"/>
<circle cx="383" cy="54" r="4.5" fill="#1f1f1c" opacity="0.09"/>
<circle cx="128" cy="134" r="1.8" fill="#efe6d5" opacity="0.22"/>
<circle cx="832" cy="165" r="2.3" fill="#efe6d5" opacity="0.15"/>
<circle cx="897" cy="160" r="3.4" fill="#cdbfaa" opacity="0.14"/>
<circle cx="584" cy="21" r="2.0" fill="#1f1f1c" opacity="0.13"/>
<circle cx="978" cy="406" r="5.6" fill="#1f1f1c" opacity="0.28"/>
<circle cx="185" cy="78" r="5.2" fill="#efe6d5" opacity="0.12"/>
<circle cx="627" cy="42" r="3.8" fill="#ffffff" opacity="0.10"/>
<circle cx="85" cy="419" r="3.2" fill="#ffffff" opacity="0.13"/>
<circle cx="227" cy="221" r="3.7" fill="#efe6d5" opacity="0.09"/>
<circle cx="915" cy="305" r="3.5" fill="#ffffff" opacity="0.18"/>
<circle cx="756" cy="75" r="4.8" fill="#fffaf0" opacity="0.27"/>
<circle cx="19" cy="432" r="4.1" fill="#fffaf0" opacity="0.19"/>
<circle cx="185" cy="379" r="5.4" fill="#ffffff" opacity="0.16"/>
<circle cx="296" cy="162" r="5.4" fill="#efe6d5" opacity="0.34"/>
<circle cx="621" cy="611" r="1.4" fill="#efe6d5" opacity="0.15"/>
<circle cx="775" cy="507" r="2.6" fill="#ffffff" opacity="0.41"/>
<circle cx="655" cy="246" r="4.6" fill="#1f1f1c" opacity="0.36"/>
<circle cx="183" cy="293" r="5.3" fill="#ffffff" opacity="0.35"/>
<circle cx="684" cy="125" r="2.3" fill="#1f1f1c" opacity="0.25"/>
<circle cx="604" cy="479" r="3.4" fill="#fffaf0" opacity="0.25"/>
<circle cx="847" cy="423" r="4.6" fill="#ffffff" opacity="0.40"/>
<circle cx="107" cy="423" r="4.6" fill="#fffaf0" opacity="0.08"/>
<circle cx="586" cy="72" r="2.4" fill="#efe6d5" opacity="0.19"/>
<circle cx="798" cy="192" r="5.3" fill="#ffffff" opacity="0.26"/>
<circle cx="347" cy="531" r="2.1" fill="#ffffff" opacity="0.21"/>
<circle cx="900" cy="617" r="5.2" fill="#fffaf0" opacity="0.09"/>
<circle cx="962" cy="90" r="5.6" fill="#ffffff" opacity="0.16"/>
<circle cx="602" cy="501" r="5.1" fill="#fffaf0" opacity="0.38"/>
<circle cx="34" cy="116" r="4.9" fill="#ffffff" opacity="0.32"/>
<circle cx="74" cy="238" r="1.7" fill="#ffffff" opacity="0.09"/>
<circle cx="40" cy="450" r="2.7" fill="#efe6d5" opacity="0.18"/>
<circle cx="773" cy="309" r="4.8" fill="#cdbfaa" opacity="0.18"/>
<circle cx="329" cy="162" r="1.6" fill="#cdbfaa" opacity="0.23"/>
<circle cx="278" cy="448" r="1.7" fill="#fffaf0" opacity="0.42"/>
<circle cx="482" cy="53" r="4.6" fill="#1f1f1c" opacity="0.20"/>
<circle cx="148" cy="565" r="2.0" fill="#cdbfaa" opacity="0.39"/>
<circle cx="431" cy="409" r="4.3" fill="#cdbfaa" opacity="0.18"/>
<circle cx="957" cy="527" r="2.5" fill="#1f1f1c" opacity="0.26"/>
<circle cx="803" cy="512" r="3.0" fill="#ffffff" opacity="0.15"/>
<circle cx="709" cy="411" r="1.5" fill="#1f1f1c" opacity="0.20"/>
<circle cx="878" cy="20" r="4.7" fill="#1f1f1c" opacity="0.41"/>
<circle cx="544" cy="59" r="2.9" fill="#ffffff" opacity="0.32"/>
<circle cx="898" cy="16" r="3.9" fill="#1f1f1c" opacity="0.14"/>
<circle cx="192" cy="579" r="1.9" fill="#1f1f1c" opacity="0.36"/>
<circle cx="803" cy="29" r="5.3" fill="#efe6d5" opacity="0.12"/>
<circle cx="426" cy="400" r="1.4" fill="#ffffff" opacity="0.11"/>
<circle cx="711" cy="57" r="2.6" fill="#efe6d5" opacity="0.38"/>
<circle cx="121" cy="479" r="2.0" fill="#ffffff" opacity="0.17"/>
<circle cx="635" cy="49" r="4.0" fill="#fffaf0" opacity="0.41"/>
<circle cx="991" cy="325" r="1.3" fill="#efe6d5" opacity="0.27"/>
<circle cx="837" cy="611" r="5.6" fill="#efe6d5" opacity="0.09"/>
<circle cx="594" cy="421" r="5.1" fill="#efe6d5" opacity="0.19"/>
<circle cx="230" cy="151" r="1.3" fill="#efe6d5" opacity="0.21"/>
<circle cx="722" cy="183" r="5.2" fill="#1f1f1c" opacity="0.39"/>
<circle cx="128" cy="177" r="5.2" fill="#1f1f1c" opacity="0.14"/>
<circle cx="800" cy="507" r="2.9" fill="#cdbfaa" opacity="0.32"/>
<circle cx="293" cy="468" r="2.5" fill="#ffffff" opacity="0.20"/>
<circle cx="880" cy="267" r="1.8" fill="#1f1f1c" opacity="0.08"/>
<circle cx="201" cy="260" r="4.9" fill="#1f1f1c" opacity="0.32"/>
<circle cx="134" cy="119" r="3.4" fill="#efe6d5" opacity="0.16"/>
<circle cx="336" cy="106" r="4.9" fill="#fffaf0" opacity="0.10"/>
<circle cx="11" cy="254" r="5.1" fill="#1f1f1c" opacity="0.17"/>
<circle cx="55" cy="242" r="2.8" fill="#fffaf0" opacity="0.38"/>
<circle cx="740" cy="76" r="2.0" fill="#1f1f1c" opacity="0.21"/>
<circle cx="938" cy="15" r="5.2" fill="#efe6d5" opacity="0.10"/>
<circle cx="90" cy="541" r="3.9" fill="#cdbfaa" opacity="0.25"/>
<circle cx="240" cy="219" r="3.0" fill="#cdbfaa" opacity="0.37"/>
<circle cx="844" cy="491" r="5.8" fill="#efe6d5" opacity="0.16"/>
<circle cx="449" cy="192" r="5.0" fill="#cdbfaa" opacity="0.40"/>
<circle cx="634" cy="518" r="4.1" fill="#fffaf0" opacity="0.41"/>
<circle cx="507" cy="441" r="4.8" fill="#ffffff" opacity="0.11"/>
<circle cx="565" cy="484" r="5.4" fill="#efe6d5" opacity="0.26"/>
<circle cx="983" cy="346" r="1.6" fill="#fffaf0" opacity="0.26"/>
<circle cx="646" cy="312" r="1.2" fill="#ffffff" opacity="0.32"/>
<circle cx="767" cy="526" r="5.0" fill="#fffaf0" opacity="0.22"/>
<circle cx="957" cy="469" r="5.4" fill="#fffaf0" opacity="0.20"/>
<circle cx="130" cy="198" r="1.9" fill="#fffaf0" opacity="0.27"/>
<circle cx="151" cy="396" r="3.2" fill="#efe6d5" opacity="0.24"/>
<circle cx="253" cy="398" r="1.6" fill="#fffaf0" opacity="0.23"/>
<circle cx="296" cy="260" r="1.9" fill="#fffaf0" opacity="0.40"/>
<circle cx="970" cy="528" r="3.2" fill="#fffaf0" opacity="0.14"/>
<circle cx="261" cy="306" r="5.3" fill="#cdbfaa" opacity="0.38"/>
<circle cx="65" cy="226" r="1.9" fill="#efe6d5" opacity="0.11"/>
<circle cx="484" cy="253" r="3.0" fill="#fffaf0" opacity="0.29"/>
<circle cx="496" cy="7" r="3.3" fill="#1f1f1c" opacity="0.29"/>
<circle cx="904" cy="574" r="5.8" fill="#1f1f1c" opacity="0.19"/>
<circle cx="263" cy="210" r="1.7" fill="#cdbfaa" opacity="0.13"/>
<circle cx="887" cy="332" r="2.5" fill="#efe6d5" opacity="0.09"/>
<circle cx="750" cy="53" r="5.5" fill="#1f1f1c" opacity="0.42"/>
<circle cx="297" cy="392" r="3.4" fill="#cdbfaa" opacity="0.08"/>
<circle cx="695" cy="132" r="4.6" fill="#ffffff" opacity="0.36"/>
<circle cx="6" cy="566" r="3.2" fill="#fffaf0" opacity="0.24"/>
<circle cx="171" cy="458" r="4.7" fill="#ffffff" opacity="0.14"/>
<circle cx="618" cy="569" r="2.0" fill="#efe6d5" opacity="0.14"/>
<circle cx="893" cy="221" r="1.5" fill="#fffaf0" opacity="0.15"/>
<circle cx="516" cy="476" r="1.6" fill="#efe6d5" opacity="0.11"/>
<circle cx="88" cy="526" r="5.4" fill="#ffffff" opacity="0.29"/>
<circle cx="847" cy="308" r="2.9" fill="#efe6d5" opacity="0.19"/>
<circle cx="807" cy="207" r="4.6" fill="#ffffff" opacity="0.36"/>
<circle cx="204" cy="478" r="4.8" fill="#ffffff" opacity="0.23"/>
<circle cx="99" cy="531" r="4.4" fill="#1f1f1c" opacity="0.19"/>
<circle cx="797" cy="405" r="5.2" fill="#cdbfaa" opacity="0.16"/>
<circle cx="920" cy="478" r="2.5" fill="#cdbfaa" opacity="0.08"/>
<circle cx="172" cy="209" r="4.9" fill="#1f1f1c" opacity="0.13"/>
<circle cx="829" cy="162" r="1.4" fill="#cdbfaa" opacity="0.38"/>
<circle cx="448" cy="546" r="4.4" fill="#fffaf0" opacity="0.14"/>
<circle cx="211" cy="528" r="1.7" fill="#cdbfaa" opacity="0.16"/>
<circle cx="614" cy="510" r="1.6" fill="#ffffff" opacity="0.37"/>
<circle cx="873" cy="472" r="1.9" fill="#fffaf0" opacity="0.33"/>
<circle cx="364" cy="281" r="4.4" fill="#efe6d5" opacity="0.42"/>
<circle cx="596" cy="526" r="4.2" fill="#ffffff" opacity="0.37"/>
<circle cx="696" cy="216" r="3.1" fill="#cdbfaa" opacity="0.28"/>
<circle cx="414" cy="569" r="2.2" fill="#1f1f1c" opacity="0.16"/>
<circle cx="698" cy="461" r="5.3" fill="#ffffff" opacity="0.28"/>
<circle cx="804" cy="375" r="4.6" fill="#cdbfaa" opacity="0.18"/>
<circle cx="517" cy="457" r="4.4" fill="#ffffff" opacity="0.29"/>
<circle cx="709" cy="271" r="5.5" fill="#efe6d5" opacity="0.11"/>
<circle cx="819" cy="346" r="2.2" fill="#cdbfaa" opacity="0.23"/>
<circle cx="968" cy="317" r="1.9" fill="#cdbfaa" opacity="0.15"/>
<circle cx="956" cy="369" r="5.3" fill="#fffaf0" opacity="0.08"/>
<circle cx="945" cy="306" r="3.8" fill="#fffaf0" opacity="0.14"/>
<circle cx="519" cy="420" r="5.5" fill="#cdbfaa" opacity="0.31"/>
<circle cx="652" cy="92" r="4.9" fill="#1f1f1c" opacity="0.19"/>
<circle cx="496" cy="584" r="4.1" fill="#cdbfaa" opacity="0.15"/>
<circle cx="130" cy="335" r="2.1" fill="#fffaf0" opacity="0.23"/>
<circle cx="794" cy="107" r="3.9" fill="#fffaf0" opacity="0.22"/>
<circle cx="793" cy="553" r="3.1" fill="#ffffff" opacity="0.31"/>
<circle cx="119" cy="201" r="2.2" fill="#fffaf0" opacity="0.39"/>
<circle cx="929" cy="511" r="2.1" fill="#cdbfaa" opacity="0.42"/>
<circle cx="331" cy="590" r="5.0" fill="#fffaf0" opacity="0.26"/>
<circle cx="751" cy="27" r="1.6" fill="#efe6d5" opacity="0.32"/>
<circle cx="392" cy="472" r="5.6" fill="#fffaf0" opacity="0.25"/>
<circle cx="483" cy="595" r="2.1" fill="#efe6d5" opacity="0.16"/>
<circle cx="968" cy="150" r="4.0" fill="#efe6d5" opacity="0.37"/>
<circle cx="847" cy="67" r="5.1" fill="#efe6d5" opacity="0.37"/>
<circle cx="307" cy="119" r="5.6" fill="#1f1f1c" opacity="0.10"/>
<circle cx="896" cy="592" r="1.9" fill="#cdbfaa" opacity="0.12"/>
<circle cx="178" cy="607" r="3.0" fill="#fffaf0" opacity="0.19"/>
<circle cx="539" cy="487" r="3.8" fill="#ffffff" opacity="0.18"/>
<circle cx="564" cy="225" r="2.9" fill="#fffaf0" opacity="0.18"/>
<circle cx="46" cy="343" r="4.3" fill="#ffffff" opacity="0.12"/>
<circle cx="261" cy="567" r="1.2" fill="#efe6d5" opacity="0.28"/>
<circle cx="701" cy="524" r="1.3" fill="#cdbfaa" opacity="0.29"/>
<circle cx="277" cy="41" r="4.8" fill="#1f1f1c" opacity="0.12"/>
<circle cx="234" cy="140" r="4.6" fill="#fffaf0" opacity="0.10"/>
<circle cx="518" cy="251" r="1.3" fill="#efe6d5" opacity="0.22"/>
<circle cx="724" cy="605" r="4.4" fill="#fffaf0" opacity="0.23"/>
<circle cx="973" cy="358" r="2.6" fill="#1f1f1c" opacity="0.08"/>
<circle cx="573" cy="517" r="1.8" fill="#efe6d5" opacity="0.16"/>
<circle cx="843" cy="454" r="2.4" fill="#ffffff" opacity="0.32"/>
<circle cx="630" cy="414" r="5.3" fill="#fffaf0" opacity="0.19"/>
<circle cx="929" cy="370" r="5.4" fill="#fffaf0" opacity="0.38"/>
<circle cx="447" cy="476" r="1.9" fill="#efe6d5" opacity="0.39"/>
<circle cx="583" cy="3" r="3.0" fill="#ffffff" opacity="0.31"/>
<circle cx="385" cy="521" r="2.5" fill="#1f1f1c" opacity="0.35"/>
<circle cx="578" cy="152" r="5.5" fill="#fffaf0" opacity="0.12"/>
<circle cx="157" cy="203" r="3.7" fill="#ffffff" opacity="0.10"/>
<circle cx="842" cy="163" r="5.8" fill="#1f1f1c" opacity="0.10"/>
<circle cx="97" cy="309" r="2.9" fill="#fffaf0" opacity="0.23"/>
<circle cx="336" cy="246" r="2.9" fill="#fffaf0" opacity="0.28"/>
<circle cx="182" cy="82" r="2.6" fill="#fffaf0" opacity="0.25"/>
<circle cx="916" cy="73" r="4.7" fill="#ffffff" opacity="0.20"/>
<circle cx="924" cy="31" r="5.7" fill="#ffffff" opacity="0.31"/>
<circle cx="660" cy="404" r="2.1" fill="#ffffff" opacity="0.29"/>
<circle cx="696" cy="383" r="5.4" fill="#1f1f1c" opacity="0.32"/>
<circle cx="468" cy="551" r="3.3" fill="#1f1f1c" opacity="0.42"/>
<circle cx="14" cy="210" r="3.5" fill="#1f1f1c" opacity="0.32"/>
<circle cx="975" cy="396" r="5.7" fill="#ffffff" opacity="0.12"/>
<circle cx="443" cy="286" r="4.9" fill="#fffaf0" opacity="0.08"/>
<circle cx="312" cy="600" r="4.7" fill="#efe6d5" opacity="0.10"/>
<circle cx="396" cy="465" r="4.6" fill="#1f1f1c" opacity="0.32"/>
<circle cx="321" cy="559" r="5.8" fill="#cdbfaa" opacity="0.22"/>
<circle cx="939" cy="504" r="2.2" fill="#efe6d5" opacity="0.11"/>
<circle cx="411" cy="53" r="4.4" fill="#cdbfaa" opacity="0.39"/>
<circle cx="771" cy="376" r="5.3" fill="#cdbfaa" opacity="0.23"/>
<circle cx="291" cy="4" r="4.9" fill="#cdbfaa" opacity="0.24"/>
<circle cx="14" cy="376" r="3.7" fill="#1f1f1c" opacity="0.38"/>
<circle cx="263" cy="528" r="2.4" fill="#fffaf0" opacity="0.39"/>
<circle cx="151" cy="33" r="1.3" fill="#cdbfaa" opacity="0.41"/>
<circle cx="624" cy="556" r="2.0" fill="#cdbfaa" opacity="0.29"/>
<circle cx="847" cy="3" r="2.9" fill="#efe6d5" opacity="0.40"/>
<circle cx="127" cy="183" r="3.0" fill="#ffffff" opacity="0.24"/>
<circle cx="499" cy="576" r="5.4" fill="#efe6d5" opacity="0.29"/>
<circle cx="447" cy="236" r="2.7" fill="#efe6d5" opacity="0.09"/>
<circle cx="215" cy="537" r="2.8" fill="#cdbfaa" opacity="0.38"/>
<circle cx="237" cy="188" r="2.6" fill="#fffaf0" opacity="0.18"/>
<circle cx="524" cy="424" r="5.5" fill="#ffffff" opacity="0.13"/>
<circle cx="659" cy="609" r="3.4" fill="#efe6d5" opacity="0.10"/>
<circle cx="642" cy="248" r="4.8" fill="#ffffff" opacity="0.26"/>
<circle cx="440" cy="145" r="3.2" fill="#fffaf0" opacity="0.31"/>
<circle cx="763" cy="346" r="4.0" fill="#fffaf0" opacity="0.38"/>
<circle cx="381" cy="594" r="2.8" fill="#ffffff" opacity="0.37"/>
<circle cx="284" cy="519" r="5.8" fill="#ffffff" opacity="0.09"/>
<circle cx="833" cy="557" r="3.7" fill="#fffaf0" opacity="0.30"/>
<circle cx="41" cy="409" r="1.8" fill="#cdbfaa" opacity="0.34"/>
<circle cx="587" cy="142" r="1.9" fill="#1f1f1c" opacity="0.15"/>
<circle cx="431" cy="4" r="1.9" fill="#efe6d5" opacity="0.31"/>
<circle cx="513" cy="360" r="2.5" fill="#cdbfaa" opacity="0.13"/>
<circle cx="713" cy="447" r="1.5" fill="#efe6d5" opacity="0.33"/>
<circle cx="630" cy="207" r="2.5" fill="#ffffff" opacity="0.40"/>
<circle cx="973" cy="498" r="2.1" fill="#efe6d5" opacity="0.23"/>
<circle cx="682" cy="65" r="4.2" fill="#ffffff" opacity="0.12"/>
<circle cx="160" cy="43" r="2.3" fill="#1f1f1c" opacity="0.30"/>
<circle cx="339" cy="282" r="4.5" fill="#fffaf0" opacity="0.22"/>
<path d="M-1 36 C 330 -65, 425 148, 1087 150" fill="none" stroke="#cdbfaa" stroke-width="8.0" opacity="0.28" stroke-linecap="round"/>
<path d="M25 627 C 494 508, 633 689, 732 701" fill="none" stroke="#cdbfaa" stroke-width="5.8" opacity="0.28" stroke-linecap="round"/>
<path d="M71 169 C 365 39, 467 286, 953 257" fill="none" stroke="#cdbfaa" stroke-width="7.9" opacity="0.28" stroke-linecap="round"/>
<path d="M59 102 C 373 -6, 527 246, 960 80" fill="none" stroke="#cdbfaa" stroke-width="3.2" opacity="0.28" stroke-linecap="round"/>
<path d="M41 693 C 486 578, 633 862, 862 661" fill="none" stroke="#cdbfaa" stroke-width="3.8" opacity="0.28" stroke-linecap="round"/>
<rect width="1000" height="620" filter="url(#noise)" opacity=".55"/>
</svg>