<svg xmlns="http://www.w3.org/2000/svg" viewBox="0 0 1000 620">
<defs>
<linearGradient id="g" x1="0" x2="1" y1="0" y2="1"><stop stop-color="#07110e"/><stop offset=".55" stop-color="#143329"/><stop offset="1" stop-color="#456a56"/></linearGradient>
<filter id="noise"><feTurbulence type="fractalNoise" baseFrequency=".035 .09" numOctaves="5" seed="12"/><feColorMatrix type="saturate" values=".22"/><feBlend mode="multiply" in2="SourceGraphic"/></filter>
</defs>
<rect width="1000" height="620" fill="url(#g)"/>
<circle cx="756" cy="164" r="1.6" fill="#07110e" opacity="0.28"/>
<circle cx="970" cy="214" r="2.7" fill="#07110e" opacity="0.41"/>
<circle cx="24" cy="566" r="1.6" fill="#07110e" opacity="0.09"/>
<circle cx="760" cy="180" r="4.0" fill="#07110e" opacity="0.08"/>
<circle cx="333" cy="86" r="1.8" fill="#1f1f1c" opacity="0.34"/>
<circle cx="939" cy="418" r="2.9" fill="#456a56" opacity="0.25"/>
<circle cx="12" cy="580" r="4.9" fill="#1f1f1c" opacity="0.21"/>
<circle cx="631" cy="537" r="4.1" fill="#456a56" opacity="0.36"/>
<circle cx="487" cy="583" r="2.3" fill="#ffffff" opacity="0.09"/>
<circle cx="323" cy="136" r="3.6" fill="#07110e" opacity="0.42"/>
<circle cx="710" cy="294" r="2.8" fill="#143329" opacity="0.09"/>
<circle cx="70" cy="616" r="5.6" fill="#07110e" opacity="0.32"/>
<circle cx="801" cy="586" r="4.4" fill="#1f1f1c" opacity="0.18"/>
<circle cx="566" cy="372" r="1.8" fill="#143329" opacity="0.42"/>
<circle cx="547" cy="339" r="4.5" fill="#1f1f1c" opacity="0.28"/>
<circle cx="284" cy="517" r="3.3" fill="#1f1f1c" opacity="0.40"/>
<circle cx="939" cy="421" r="1.5" fill="#ffffff" opacity="0.28"/>
<circle cx="599" cy="515" r="5.0" fill="#1f1f1c" opacity="0.26"/>
<circle cx="902" cy="510" r="1.9" fill="#ffffff" opacity="0.30"/>
<circle cx="761" cy="290" r="3.4" fill="#07110e" opacity="0.12"/>
<circle cx="766" cy="175" r="2.6" fill="#456a56" opacity="0.12"/>
<circle cx="12" cy="372" r="4.9" fill="#143329" opacity="0.37"/>
<circle cx="123" cy="50" r="3.4" fill="#ffffff" opacity="0.19"/>
<circle cx="878" cy="617" r="3.8" fill="#ffffff" opacity="0.35"/>
<circle cx="143" cy="568" r="5.0" fill="#1f1f1c" opacity="0.18"/>
<circle cx="5" cy="432" r="5.2" fill="#07110e" opacity="0.08"/>
<circle cx="211" cy="426" r="3.5" fill="#ffffff" opacity="0.40"/>
<circle cx="445" cy="395" r="3.2" fill="#1f1f1c" opacity="0.28"/>
<circle cx="502" cy="141" r="1.5" fill="#1f1f1c" opacity="0.23"/>
<circle cx="315" cy="108" r="4.9" fill="#456a56" opacity="0.34"/>
<circle cx="256" cy="617" r="5.5" fill="#ffffff" opacity="0.20"/>
<circle cx="875" cy="415" r="5.1" fill="#456a56" opacity="0.28"/>
<circle cx="505" cy="124" r="5.2" fill="#1f1f1c" opacity="0.16"/>
<circle cx="958" cy="263" r="3.5" fill="#07110e" opacity="0.09"/>
<circle cx="188" cy="249" r="3.7" fill="#1f1f1c" opacity="0.16"/>
<circle cx="852" cy="87" r="3.5" fill="#ffffff" opacity="0.42"/>
<circle cx="128" cy="344" r="2.6" fill="#143329" opacity="0.23"/>
<circle cx="814" cy="17" r="3.2" fill="#1f1f1c" opacity="0.32"/>
<circle cx="918" cy="307" r="2.9" fill="#07110e" opacity="0.20"/>
<circle cx="910" cy="141" r="3.4" fill="#07110e" opacity="0.11"/>
<circle cx="43" cy="443" r="5.2" fill="#1f1f1c" opacity="0.23"/>
<circle cx="616" cy="605" r="2.2" fill="#456a56" opacity="0.33"/>
<circle cx="721" cy="379" r="2.8" fill="#143329" opacity="0.33"/>
<circle cx="759" cy="202" r="2.0" fill="#456a56" opacity="0.34"/>
<circle cx="412" cy="56" r="4.2" fill="#1f1f1c" opacity="0.41"/>
<circle cx="870" cy="171" r="1.8" fill="#ffffff" opacity="0.31"/>
<circle cx="561" cy="573" r="3.2" fill="#456a56" opacity="0.29"/>
<circle cx="160" cy="352" r="1.3" fill="#07110e" opacity="0.27"/>
<circle cx="205" cy="33" r="4.9" fill="#143329" opacity="0.34"/>
<circle cx="51" cy="387" r="1.3" fill="#ffffff" opacity="0.38"/>
<circle cx="552" cy="577" r="4.4" fill="#ffffff" opacity="0.23"/>
<circle cx="900" cy="146" r="2.0" fill="#ffffff" opacity="0.40"/>
<circle cx="30" cy="299" r="3.5" fill="#ffffff" opacity="0.09"/>
<circle cx="609" cy="475" r="4.3" fill="#07110e" opacity="0.29"/>
<circle cx="533" cy="346" r="1.6" fill="#1f1f1c" opacity="0.31"/>
<circle cx="546" cy="349" r="2.0" fill="#1f1f1c" opacity="0.22"/>
<circle cx="992" cy="164" r="2.2" fill="#07110e" opacity="0.16"/>
<circle cx="630" cy="76" r="4.1" fill="#456a56" opacity="0.42"/>
<circle cx="312" cy="275" r="4.0" fill="#1f1f1c" opacity="0.39"/>
<circle cx="209" cy="380" r="1.5" fill="#07110e" opacity="0.41"/>
<circle cx="262" cy="48" r="5.2" fill="#456a56" opacity="0.33"/>
<circle cx="338" cy="402" r="3.5" fill="#143329" opacity="0.31"/>
<circle cx="449" cy="250" r="5.6" fill="#1f1f1c" opacity="0.16"/>
<circle cx="684" cy="76" r="2.2" fill="#ffffff" opacity="0.12"/>
<circle cx="659" cy="411" r="3.1" fill="#07110e" opacity="0.19"/>
<circle cx="384" cy="598" r="2.9" fill="#456a56" opacity="0.21"/>
<circle cx="174" cy="251" r="3.9" fill="#07110e" opacity="0.20"/>
<circle cx="420" cy="523" r="1.6" fill="#1f1f1c" opacity="0.09"/>
<circle cx="934" cy="180" r="2.7" fill="#ffffff" opacity="0.37"/>
<circle cx="606" cy="267" r="5.7" fill="#456a56" opacity="0.09"/>
<circle cx="354" cy="412" r="5.8" fill="#143329" opacity="0.15"/>
<circle cx="215" cy="444" r="4.7" fill="#07110e" opacity="0.26"/>
<circle cx="944" cy="32" r="4.8" fill="#07110e" opacity="0.27"/>
<circle cx="662" cy="229" r="3.2" fill="#1f1f1c" opacity="0.40"/>
<circle cx="296" cy="567" r="1.7" fill="#ffffff" opacity="0.42"/>
<circle cx="226" cy="331" r="4.4" fill="#456a56" opacity="0.30"/>
<circle cx="492" cy="186" r="3.7" fill="#ffffff" opacity="0.14"/>
<circle cx="109" cy="463" r="2.4" fill="#456a56" opacity="0.10"/>
<circle cx="331" cy="151" r="3.8" fill="#143329" opacity="0.10"/>
<circle cx="927" cy="292" r="2.8" fill="#07110e" opacity="0.16"/>
<circle cx="345" cy="193" r="1.3" fill="#ffffff" opacity="0.17"/>
<circle cx="853" cy="552" r="3.1" fill="#1f1f1c" opacity="0.36"/>
<circle cx="461" cy="19" r="5.3" fill="#ffffff" opacity="0.17"/>
<circle cx="705" cy="174" r="2.1" fill="#1f1f1c" opacity="0.37"/>
<circle cx="398" cy="232" r="2.1" fill="#07110e" opacity="0.23"/>
<circle cx="674" cy="88" r="2.6" fill="#ffffff" opacity="0.15"/>
<circle cx="835" cy="121" r="5.5" fill="#456a56" opacity="0.38"/>
<circle cx="102" cy="297" r="4.8" fill="#143329" opacity="0.38"/>
<circle cx="747" cy="444" r="3.0" fill="#456a56" opacity="0.20"/>
<circle cx="629" cy="307" r="2.8" fill="#143329" opacity="0.24"/>
<circle cx="760" cy="0" r="2.7" fill="#456a56" opacity="0.41"/>
<circle cx="847" cy="507" r="3.9" fill="#143329" opacity="0.39"/>
<circle cx="863" cy="529" r="2.5" fill="#143329" opacity="0.42"/>
<circle cx="561" cy="550" r="4.1" fill="#456a56" opacity="0.09"/>
<circle cx="364" cy="575" r="4.1" fill="#07110e" opacity="0.18"/>
<circle cx="842" cy="598" r="5.2" fill="#143329" opacity="0.32"/>
<circle cx="117" cy="369" r="5.5" fill="#07110e" opacity="0.16"/>
<circle cx="550" cy="598" r="3.9" fill="#456a56" opacity="0.30"/>
<circle cx="398" cy="244" r="2.8" fill="#456a56" opacity="0.41"/>
<circle cx="532" cy="506" r="5.5" fill="#1f1f1c" opacity="0.20"/>
<circle cx="242" cy="258" r="4.3" fill="#07110e" opacity="0.22"/>
<circle cx="839" cy="489" r="2.3" fill="#143329" opacity="0.28"/>
<circle cx="16" cy="293" r="1.3" fill="#ffffff" opacity="0.20"/>
<circle cx="147" cy="543" r="3.4" fill="#143329" opacity="0.15"/>
<circle cx="325" cy="551" r="1.6" fill="#ffffff" opacity="0.34"/>
<circle cx="459" cy="289" r="2.6" fill="#456a56" opacity="0.10"/>
<circle cx="76" cy="311" r="5.3" fill="#ffffff" opacity="0.28"/>
<circle cx="135" cy="212" r="4.1" fill="#ffffff" opacity="0.36"/>
<circle cx="204" cy="408" r="2.8" fill="#456a56" opacity="0.15"/>
<circle cx="538" cy="198" r="3.1" fill="#143329" opacity="0.10"/>
<circle cx="140" cy="334" r="3.1" fill="#143329" opacity="0.17"/>
<circle cx="485" cy="460" r="5.0" fill="#143329" opacity="0.30"/>
<circle cx="284" cy="78" r="3.1" fill="#143329" opacity="0.40"/>
<circle cx="452" cy="205" r="4.2" fill="#456a56" opacity="0.31"/>
<circle cx="24" cy="235" r="4.3" fill="#456a56" opacity="0.30"/>
<circle cx="810" cy="306" r="3.6" fill="#ffffff" opacity="0.29"/>
<circle cx="417" cy="232" r="1.7" fill="#07110e" opacity="0.29"/>
<circle cx="588" cy="102" r="1.9" fill="#1f1f1c" opacity="0.15"/>
<circle cx="318" cy="552" r="5.7" fill="#ffffff" opacity="0.32"/>
<circle cx="434" cy="157" r="4.2" fill="#07110e" opacity="0.40"/>
<circle cx="976" cy="129" r="1.2" fill="#07110e" opacity="0.42"/>
<circle cx="72" cy="283" r="2.5" fill="#07110e" opacity="0.36"/>
<circle cx="100" cy="177" r="4.9" fill="#1f1f1c" opacity="0.20"/>
<circle cx="765" cy="309" r="5.7" fill="#07110e" opacity="0.16"/>
<circle cx="522" cy="89" r="3.7" fill="#ffffff" opacity="0.21"/>
<circle cx="967" cy="540" r="1.4" fill="#143329" opacity="0.30"/>
<circle cx="185" cy="448" r="4.1" fill="#456a56" opacity="0.33"/>
<circle cx="197" cy="528" r="3.1" fill="#ffffff" opacity="0.29"/>
<circle cx="229" cy="570" r="3.8" fill="#456a56" opacity="0.29"/>
<circle cx="861" cy="561" r="3.9" fill="#1f1f1c" opacity="0.11"/>
<circle cx="54" cy="144" r="2.5" fill="#1f1f1c" opacity="0.23"/>
<circle cx="650" cy="458" r="4.8" fill="#456a56" opacity="0.30"/>
<circle cx="502" cy="603" r="4.4" fill="#1f1f1c" opacity="0.21"/>
<circle cx="649" cy="251" r="4.8" fill="#07110e" opacity="0.27"/>
<circle cx="690" cy="366" r="4.0" fill="#143329" opacity="0.42"/>
<circle cx="39" cy="579" r="5.6" fill="#1f1f1c" opacity="0.34"/>
<circle cx="197" cy="416" r="3.7" fill="#456a56" opacity="0.09"/>
<circle cx="998" cy="221" r="3.4" fill="#ffffff" opacity="0.21"/>
<circle cx="818" cy="363" r="4.0" fill="#07110e" opacity="0.20"/>
<circle cx="706" cy="125" r="2.2" fill="#ffffff" opacity="0.11"/>
<circle cx="807" cy="442" r="5.4" fill="#ffffff" opacity="0.25"/>
<circle cx="183" cy="68" r="1.9" fill="#456a56" opacity="0.22"/>
<circle cx="784" cy="480" r="3.6" fill="#07110e" opacity="0.23"/>
<circle cx="415" cy="325" r="3.4" fill="#07110e" opacity="0.27"/>
<circle cx="937" cy="343" r="3.1" fill="#456a56" opacity="0.20"/>
<circle cx="96" cy="263" r="1.7" fill="#143329" opacity="0.33"/>
<circle cx="982" cy="115" r="1.8" fill="#456a56" opacity="0.18"/>
<circle cx="768" cy="26" r="4.6" fill="#ffffff" opacity="0.11"/>
<circle cx="732" cy="170" r="3.9" fill="#143329" opacity="0.16"/>
<circle cx="546" cy="116" r="2.3" fill="#1f1f1c" opacity="0.39"/>
<circle cx="302" cy="206" r="5.3" fill="#ffffff" opacity="0.39"/>
<circle cx="840" cy="196" r="2.3" fill="#143329" opacity="0.34"/>
<circle cx="162" cy="524" r="3.3" fill="#ffffff" opacity="0.18"/>
<circle cx="382" cy="397" r="2.0" fill="#07110e" opacity="0.13"/>
<circle cx="525" cy="17" r="3.6" fill="#456a56" opacity="0.11"/>
<circle cx="707" cy="458" r="3.1" fill="#1f1f1c" opacity="0.31"/>
<circle cx="105" cy="280" r="3.8" fill="#07110e" opacity="0.35"/>
<circle cx="224" cy="193" r="2.5" fill="#07110e" opacity="0.14"/>
<circle cx="345" cy="84" r="3.0" fill="#07110e" opacity="0.27"/>
<circle cx="484" cy="403" r="5.4" fill="#1f1f1c" opacity="0.30"/>
<circle cx="765" cy="385" r="1.7" fill="#ffffff" opacity="0.37"/>
<circle cx="177" cy="427" r="1.5" fill="#1f1f1c" opacity="0.16"/>
<circle cx="9" cy="232" r="2.1" fill="#143329" opacity="0.26"/>
<circle cx="645" cy="210" r="4.3" fill="#ffffff" opacity="0.31"/>
<circle cx="282" cy="267" r="4.0" fill="#143329" opacity="0.28"/>
<circle cx="610" cy="144" r="3.3" fill="#456a56" opacity="0.29"/>
<circle cx="975" cy="101" r="2.8" fill="#1f1f1c" opacity="0.25"/>
<circle cx="234" cy="484" r="4.3" fill="#07110e" opacity="0.34"/>
<circle cx="916" cy="78" r="2.6" fill="#ffffff" opacity="0.19"/>
<circle cx="446" cy="585" r="3.6" fill="#143329" opacity="0.11"/>
<circle cx="932" cy="262" r="5.5" fill="#143329" opacity="0.32"/>
<circle cx="465" cy="86" r="5.6" fill="#ffffff" opacity="0.41"/>
<circle cx="628" cy="129" r="3.6" fill="#07110e" opacity="0.23"/>
<circle cx="239" cy="93" r="1.2" fill="#ffffff" opacity="0.33"/>
<circle cx="814" cy="468" r="5.7" fill="#1f1f1c" opacity="0.18"/>
<circle cx="547" cy="329" r="3.4" fill="#143329" opacity="0.35"/>
<circle cx="675" cy="551" r="5.2" fill="#ffffff" opacity="0.20"/>
<circle cx="411" cy="576" r="2.2" fill="#1f1f1c" opacity="0.27"/>
<circle cx="737" cy="466" r="2.2" fill="#1f1f1c" opacity="0.10"/>
<circle cx="615" cy="528" r="5.8" fill="#1f1f1c" opacity="0.26"/>
<circle cx="58" cy="272" r="4.7" fill="#ffffff" opacity="0.28"/>
<circle cx="319" cy="382" r="3.5" fill="#07110e" opacity="0.17"/>
<circle cx="492" cy="207" r="3.2" fill="#456a56" opacity="0.10"/>
<circle cx="339" cy="289" r="5.4" fill="#07110e" opacity="0.36"/>
<circle cx="753" cy="277" r="3.1" fill="#1f1f1c" opacity="0.24"/>
<circle cx="228" cy="414" r="1.9" fill="#ffffff" opacity="0.16"/>
<circle cx="648" cy="55" r="4.1" fill="#456a56" opacity="0.14"/>
<circle cx="316" cy="15" r="5.0" fill="#1f1f1c" opacity="0.24"/>
<circle cx="241" cy="111" r="2.2" fill="#07110e" opacity="0.37"/>
<circle cx="533" cy="570" r="2.0" fill="#ffffff" opacity="0.30"/>
<circle cx="732" cy="118" r="4.2" fill="#07110e" opacity="0.16"/>
<circle cx="790" cy="245" r="3.8" fill="#1f1f1c" opacity="0.14"/>
<circle cx="54" cy="393" r="4.7" fill="#456a56" opacity="0.12"/>
<circle cx="46" cy="155" r="3.6" fill="#143329" opacity="0.17"/>
<circle cx="358" cy="43" r="4.2" fill="#456a56" opacity="0.09"/>
<circle cx="92" cy="165" r="1.9" fill="#1f1f1c" opacity="0.20"/>
<circle cx="317" cy="242" r="2.9" fill="#143329" opacity="0.29"/>
<circle cx="579" cy="472" r="1.4" fill="#1f1f1c" opacity="0.36"/>
<circle cx="753" cy="450" r="1.9" fill="#1f1f1c" opacity="0.15"/>
<circle cx="143" cy="237" r="5.3" fill="#07110e" opacity="0.14"/>
<circle cx="203" cy="314" r="3.1" fill="#1f1f1c" opacity="0.15"/>
<circle cx="406" cy="125" r="5.1" fill="#143329" opacity="0.36"/>
<circle cx="53" cy="229" r="2.7" fill="#456a56" opacity="0.32"/>
<circle cx="567" cy="286" r="2.1" fill="#456a56" opacity="0.27"/>
<circle cx="542" cy="91" r="5.8" fill="#456a56" opacity="0.09"/>
<circle cx="940" cy="153" r="3.8" fill="#07110e" opacity="0.32"/>
<circle cx="725" cy="358" r="1.9" fill="#07110e" opacity="0.28"/>
<circle cx="867" cy="105" r="3.1" fill="#1f1f1c" opacity="0.22"/>
<circle cx="986" cy="580" r="5.4" fill="#143329" opacity="0.26"/>
<circle cx="138" cy="520" r="3.4" fill="#07110e" opacity="0.21"/>
<circle cx="926" cy="115" r="2.4" fill="#ffffff" opacity="0.40"/>
<circle cx="433" cy="279" r="4.4" fill="#ffffff" opacity="0.30"/>
<circle cx="566" cy="68" r="4.6" fill="#143329" opacity="0.28"/>
<circle cx="742" cy="275" r="3.1" fill="#456a56" opacity="0.10"/>
<circle cx="129" cy="321" r="4.7" fill="#456a56" opacity="0.13"/>
<circle cx="786" cy="618" r="4.1" fill="#1f1f1c" opacity="0.26"/>
<circle cx="40" cy="168" r="2.0" fill="#143329" opacity="0.12"/>
<circle cx="893" cy="354" r="4.2" fill="#1f1f1c" opacity="0.31"/>
<circle cx="931" cy="294" r="5.2" fill="#ffffff" opacity="0.40"/>
<circle cx="12" cy="137" r="1.3" fill="#07110e" opacity="0.32"/>
<path d="M17 516 C 467 344, 625 632, 1018 455" fill="none" stroke="#456a56" stroke-width="7.4" opacity="0.28" stroke-linecap="round"/>
<path d="M34 -13 C 364 -118, 487 134, 901 -24" fill="none" stroke="#456a56" stroke-width="2.8" opacity="0.28" stroke-linecap="round"/>
<path d="M-78 96 C 532 -1, 682 239, 840 181" fill="none" stroke="#456a56" stroke-width="2.5" opacity="0.28" stroke-linecap="round"/>
<path d="M42 14 C 362 -119, 512 137, 960 56" fill="none" stroke="#456a56" stroke-width="2.2" opacity="0.28" stroke-linecap="round"/>
<path d="M-119 314 C 283 166, 367 433, 811 292" fill="none" stroke="#456a56" stroke-width="3.7" opacity="0.28" stroke-linecap="round"/>
<rect width="1000" height="620" filter="url(#noise)" opacity=".55"/>
</svg>