<svg xmlns="http://www.w3.org/2000/svg" viewBox="0 0 1000 620">
<defs>
<linearGradient id="g" x1="0" x2="1" y1="0" y2="1"><stop stop-color="#2a160d"/><stop offset=".55" stop-color="#704528"/><stop offset="1" stop-color="#c39763"/></linearGradient>
<filter id="noise"><feTurbulence type="fractalNoise" baseFrequency=".035 .09" numOctaves="5" seed="12"/><feColorMatrix type="saturate" values=".22"/><feBlend mode="multiply" in2="SourceGraphic"/></filter>
</defs>
<rect width="1000" height="620" fill="url(#g)"/>
<circle cx="911" cy="531" r="4.6" fill="#704528" opacity="0.11"/>
<circle cx="998" cy="600" r="3.9" fill="#ffffff" opacity="0.24"/>
<circle cx="539" cy="336" r="5.5" fill="#c39763" opacity="0.18"/>
<circle cx="473" cy="75" r="5.3" fill="#1f1f1c" opacity="0.34"/>
<circle cx="395" cy="330" r="2.2" fill="#2a160d" opacity="0.26"/>
<circle cx="39" cy="34" r="2.6" fill="#1f1f1c" opacity="0.25"/>
<circle cx="286" cy="319" r="5.6" fill="#c39763" opacity="0.32"/>
<circle cx="444" cy="47" r="2.7" fill="#ffffff" opacity="0.18"/>
<circle cx="234" cy="234" r="1.4" fill="#ffffff" opacity="0.08"/>
<circle cx="506" cy="373" r="4.0" fill="#ffffff" opacity="0.27"/>
<circle cx="860" cy="152" r="1.9" fill="#704528" opacity="0.36"/>
<circle cx="114" cy="579" r="1.5" fill="#ffffff" opacity="0.41"/>
<circle cx="478" cy="446" r="4.8" fill="#2a160d" opacity="0.39"/>
<circle cx="164" cy="438" r="4.4" fill="#c39763" opacity="0.16"/>
<circle cx="98" cy="120" r="3.2" fill="#1f1f1c" opacity="0.09"/>
<circle cx="405" cy="282" r="4.7" fill="#c39763" opacity="0.28"/>
<circle cx="406" cy="553" r="2.5" fill="#704528" opacity="0.20"/>
<circle cx="43" cy="476" r="2.4" fill="#704528" opacity="0.13"/>
<circle cx="343" cy="30" r="4.7" fill="#2a160d" opacity="0.39"/>
<circle cx="77" cy="263" r="3.0" fill="#704528" opacity="0.41"/>
<circle cx="122" cy="313" r="1.7" fill="#ffffff" opacity="0.37"/>
<circle cx="436" cy="60" r="4.6" fill="#ffffff" opacity="0.29"/>
<circle cx="547" cy="192" r="3.7" fill="#ffffff" opacity="0.35"/>
<circle cx="217" cy="405" r="2.0" fill="#2a160d" opacity="0.20"/>
<circle cx="507" cy="18" r="1.4" fill="#1f1f1c" opacity="0.41"/>
<circle cx="69" cy="486" r="4.9" fill="#2a160d" opacity="0.32"/>
<circle cx="386" cy="216" r="4.6" fill="#ffffff" opacity="0.21"/>
<circle cx="143" cy="342" r="3.5" fill="#ffffff" opacity="0.19"/>
<circle cx="251" cy="0" r="2.5" fill="#2a160d" opacity="0.10"/>
<circle cx="683" cy="155" r="2.2" fill="#1f1f1c" opacity="0.22"/>
<circle cx="136" cy="293" r="4.3" fill="#2a160d" opacity="0.34"/>
<circle cx="368" cy="543" r="1.2" fill="#1f1f1c" opacity="0.26"/>
<circle cx="735" cy="221" r="3.9" fill="#c39763" opacity="0.19"/>
<circle cx="541" cy="188" r="4.8" fill="#ffffff" opacity="0.10"/>
<circle cx="673" cy="343" r="1.3" fill="#2a160d" opacity="0.41"/>
<circle cx="567" cy="242" r="5.7" fill="#1f1f1c" opacity="0.13"/>
<circle cx="343" cy="313" r="3.0" fill="#ffffff" opacity="0.32"/>
<circle cx="353" cy="262" r="2.3" fill="#2a160d" opacity="0.37"/>
<circle cx="565" cy="556" r="4.2" fill="#704528" opacity="0.14"/>
<circle cx="989" cy="376" r="5.8" fill="#704528" opacity="0.21"/>
<circle cx="751" cy="183" r="5.6" fill="#c39763" opacity="0.24"/>
<circle cx="370" cy="103" r="2.4" fill="#704528" opacity="0.10"/>
<circle cx="803" cy="521" r="4.3" fill="#2a160d" opacity="0.22"/>
<circle cx="234" cy="343" r="4.3" fill="#ffffff" opacity="0.34"/>
<circle cx="511" cy="60" r="2.1" fill="#c39763" opacity="0.37"/>
<circle cx="576" cy="287" r="5.5" fill="#1f1f1c" opacity="0.32"/>
<circle cx="563" cy="566" r="1.9" fill="#704528" opacity="0.32"/>
<circle cx="94" cy="285" r="2.7" fill="#2a160d" opacity="0.20"/>
<circle cx="864" cy="422" r="3.4" fill="#2a160d" opacity="0.27"/>
<circle cx="887" cy="475" r="4.1" fill="#c39763" opacity="0.38"/>
<circle cx="164" cy="159" r="3.9" fill="#1f1f1c" opacity="0.39"/>
<circle cx="375" cy="136" r="3.5" fill="#2a160d" opacity="0.13"/>
<circle cx="956" cy="68" r="3.6" fill="#2a160d" opacity="0.24"/>
<circle cx="645" cy="403" r="4.7" fill="#1f1f1c" opacity="0.33"/>
<circle cx="999" cy="118" r="1.3" fill="#ffffff" opacity="0.26"/>
<circle cx="576" cy="214" r="4.5" fill="#2a160d" opacity="0.29"/>
<circle cx="226" cy="564" r="4.7" fill="#c39763" opacity="0.41"/>
<circle cx="496" cy="398" r="2.9" fill="#c39763" opacity="0.23"/>
<circle cx="832" cy="447" r="4.2" fill="#1f1f1c" opacity="0.12"/>
<circle cx="957" cy="307" r="5.0" fill="#1f1f1c" opacity="0.36"/>
<circle cx="477" cy="264" r="3.7" fill="#c39763" opacity="0.39"/>
<circle cx="148" cy="535" r="3.7" fill="#ffffff" opacity="0.17"/>
<circle cx="977" cy="39" r="4.1" fill="#704528" opacity="0.29"/>
<circle cx="411" cy="275" r="1.6" fill="#704528" opacity="0.33"/>
<circle cx="860" cy="233" r="3.2" fill="#c39763" opacity="0.36"/>
<circle cx="802" cy="87" r="3.1" fill="#704528" opacity="0.30"/>
<circle cx="827" cy="33" r="3.7" fill="#1f1f1c" opacity="0.34"/>
<circle cx="167" cy="224" r="3.6" fill="#1f1f1c" opacity="0.12"/>
<circle cx="370" cy="348" r="5.6" fill="#704528" opacity="0.38"/>
<circle cx="29" cy="540" r="1.2" fill="#2a160d" opacity="0.21"/>
<circle cx="277" cy="13" r="5.5" fill="#ffffff" opacity="0.12"/>
<circle cx="859" cy="146" r="1.4" fill="#2a160d" opacity="0.25"/>
<circle cx="583" cy="198" r="4.0" fill="#1f1f1c" opacity="0.37"/>
<circle cx="13" cy="94" r="3.1" fill="#704528" opacity="0.10"/>
<circle cx="88" cy="120" r="5.7" fill="#c39763" opacity="0.33"/>
<circle cx="627" cy="175" r="3.1" fill="#704528" opacity="0.30"/>
<circle cx="709" cy="274" r="4.0" fill="#c39763" opacity="0.21"/>
<circle cx="712" cy="300" r="3.1" fill="#2a160d" opacity="0.41"/>
<circle cx="560" cy="585" r="4.2" fill="#704528" opacity="0.11"/>
<circle cx="422" cy="295" r="2.6" fill="#2a160d" opacity="0.37"/>
<circle cx="949" cy="193" r="5.7" fill="#1f1f1c" opacity="0.25"/>
<circle cx="35" cy="379" r="2.3" fill="#704528" opacity="0.13"/>
<circle cx="838" cy="369" r="1.3" fill="#2a160d" opacity="0.25"/>
<circle cx="545" cy="16" r="4.5" fill="#704528" opacity="0.26"/>
<circle cx="313" cy="218" r="2.7" fill="#704528" opacity="0.14"/>
<circle cx="550" cy="565" r="2.1" fill="#1f1f1c" opacity="0.41"/>
<circle cx="121" cy="321" r="2.2" fill="#ffffff" opacity="0.18"/>
<circle cx="588" cy="341" r="2.7" fill="#2a160d" opacity="0.23"/>
<circle cx="440" cy="261" r="3.3" fill="#c39763" opacity="0.39"/>
<circle cx="690" cy="356" r="2.4" fill="#704528" opacity="0.21"/>
<circle cx="284" cy="72" r="2.3" fill="#c39763" opacity="0.37"/>
<circle cx="854" cy="455" r="5.3" fill="#ffffff" opacity="0.38"/>
<circle cx="554" cy="471" r="5.7" fill="#1f1f1c" opacity="0.25"/>
<circle cx="912" cy="110" r="3.0" fill="#1f1f1c" opacity="0.24"/>
<circle cx="577" cy="504" r="1.5" fill="#2a160d" opacity="0.41"/>
<circle cx="974" cy="141" r="4.7" fill="#ffffff" opacity="0.16"/>
<circle cx="391" cy="142" r="3.6" fill="#1f1f1c" opacity="0.17"/>
<circle cx="788" cy="16" r="4.5" fill="#1f1f1c" opacity="0.09"/>
<circle cx="473" cy="179" r="2.0" fill="#ffffff" opacity="0.31"/>
<circle cx="983" cy="594" r="4.9" fill="#704528" opacity="0.39"/>
<circle cx="526" cy="164" r="3.9" fill="#1f1f1c" opacity="0.29"/>
<circle cx="449" cy="155" r="2.3" fill="#704528" opacity="0.32"/>
<circle cx="860" cy="221" r="2.5" fill="#2a160d" opacity="0.28"/>
<circle cx="594" cy="332" r="2.7" fill="#ffffff" opacity="0.15"/>
<circle cx="820" cy="483" r="4.6" fill="#c39763" opacity="0.17"/>
<circle cx="259" cy="317" r="4.3" fill="#c39763" opacity="0.13"/>
<circle cx="728" cy="367" r="4.2" fill="#ffffff" opacity="0.20"/>
<circle cx="84" cy="70" r="5.0" fill="#704528" opacity="0.37"/>
<circle cx="923" cy="58" r="5.1" fill="#2a160d" opacity="0.23"/>
<circle cx="22" cy="507" r="1.2" fill="#c39763" opacity="0.30"/>
<circle cx="920" cy="533" r="4.7" fill="#704528" opacity="0.34"/>
<circle cx="523" cy="390" r="3.4" fill="#1f1f1c" opacity="0.19"/>
<circle cx="950" cy="88" r="3.9" fill="#c39763" opacity="0.36"/>
<circle cx="119" cy="518" r="4.9" fill="#704528" opacity="0.29"/>
<circle cx="244" cy="159" r="4.6" fill="#704528" opacity="0.28"/>
<circle cx="65" cy="484" r="5.5" fill="#704528" opacity="0.12"/>
<circle cx="318" cy="211" r="5.3" fill="#704528" opacity="0.18"/>
<circle cx="972" cy="50" r="4.3" fill="#704528" opacity="0.38"/>
<circle cx="743" cy="23" r="2.5" fill="#704528" opacity="0.26"/>
<circle cx="773" cy="51" r="4.0" fill="#c39763" opacity="0.19"/>
<circle cx="599" cy="202" r="2.9" fill="#ffffff" opacity="0.10"/>
<circle cx="195" cy="387" r="1.5" fill="#ffffff" opacity="0.22"/>
<circle cx="467" cy="149" r="3.7" fill="#1f1f1c" opacity="0.21"/>
<circle cx="653" cy="172" r="4.8" fill="#704528" opacity="0.32"/>
<circle cx="929" cy="108" r="4.7" fill="#704528" opacity="0.19"/>
<circle cx="57" cy="425" r="4.6" fill="#704528" opacity="0.25"/>
<circle cx="604" cy="567" r="5.7" fill="#ffffff" opacity="0.35"/>
<circle cx="564" cy="37" r="4.0" fill="#ffffff" opacity="0.38"/>
<circle cx="858" cy="434" r="2.9" fill="#ffffff" opacity="0.34"/>
<circle cx="545" cy="361" r="4.3" fill="#1f1f1c" opacity="0.26"/>
<circle cx="124" cy="591" r="4.1" fill="#704528" opacity="0.36"/>
<circle cx="949" cy="173" r="2.8" fill="#2a160d" opacity="0.09"/>
<circle cx="442" cy="204" r="4.9" fill="#c39763" opacity="0.36"/>
<circle cx="292" cy="348" r="4.2" fill="#c39763" opacity="0.38"/>
<circle cx="163" cy="226" r="2.7" fill="#c39763" opacity="0.18"/>
<circle cx="782" cy="346" r="3.2" fill="#704528" opacity="0.17"/>
<circle cx="283" cy="163" r="1.4" fill="#ffffff" opacity="0.17"/>
<circle cx="132" cy="591" r="3.3" fill="#c39763" opacity="0.28"/>
<circle cx="264" cy="512" r="1.3" fill="#704528" opacity="0.11"/>
<circle cx="776" cy="544" r="1.3" fill="#c39763" opacity="0.36"/>
<circle cx="617" cy="597" r="2.2" fill="#2a160d" opacity="0.34"/>
<circle cx="408" cy="535" r="4.9" fill="#c39763" opacity="0.19"/>
<circle cx="257" cy="317" r="3.5" fill="#704528" opacity="0.34"/>
<circle cx="506" cy="437" r="5.5" fill="#1f1f1c" opacity="0.18"/>
<circle cx="616" cy="502" r="5.4" fill="#1f1f1c" opacity="0.10"/>
<circle cx="683" cy="338" r="3.1" fill="#c39763" opacity="0.33"/>
<circle cx="313" cy="447" r="1.9" fill="#1f1f1c" opacity="0.24"/>
<circle cx="141" cy="84" r="4.1" fill="#1f1f1c" opacity="0.39"/>
<circle cx="352" cy="302" r="5.0" fill="#c39763" opacity="0.26"/>
<circle cx="690" cy="92" r="1.8" fill="#ffffff" opacity="0.17"/>
<circle cx="8" cy="606" r="5.2" fill="#2a160d" opacity="0.22"/>
<circle cx="163" cy="271" r="4.6" fill="#c39763" opacity="0.13"/>
<circle cx="424" cy="548" r="1.9" fill="#1f1f1c" opacity="0.15"/>
<circle cx="847" cy="38" r="4.0" fill="#c39763" opacity="0.10"/>
<circle cx="321" cy="571" r="1.2" fill="#1f1f1c" opacity="0.37"/>
<circle cx="548" cy="225" r="5.4" fill="#1f1f1c" opacity="0.25"/>
<circle cx="399" cy="14" r="3.4" fill="#2a160d" opacity="0.35"/>
<circle cx="28" cy="9" r="4.2" fill="#2a160d" opacity="0.26"/>
<circle cx="709" cy="556" r="4.0" fill="#2a160d" opacity="0.13"/>
<circle cx="196" cy="234" r="2.9" fill="#ffffff" opacity="0.39"/>
<circle cx="547" cy="479" r="3.8" fill="#704528" opacity="0.35"/>
<circle cx="663" cy="122" r="5.0" fill="#2a160d" opacity="0.29"/>
<circle cx="31" cy="306" r="4.6" fill="#ffffff" opacity="0.34"/>
<circle cx="809" cy="237" r="3.3" fill="#c39763" opacity="0.21"/>
<circle cx="789" cy="34" r="4.2" fill="#1f1f1c" opacity="0.11"/>
<circle cx="284" cy="93" r="3.7" fill="#704528" opacity="0.38"/>
<circle cx="8" cy="5" r="4.4" fill="#ffffff" opacity="0.38"/>
<circle cx="64" cy="195" r="2.0" fill="#2a160d" opacity="0.21"/>
<circle cx="291" cy="43" r="5.5" fill="#2a160d" opacity="0.15"/>
<circle cx="822" cy="459" r="4.8" fill="#704528" opacity="0.15"/>
<circle cx="119" cy="155" r="5.4" fill="#1f1f1c" opacity="0.09"/>
<circle cx="829" cy="482" r="4.3" fill="#ffffff" opacity="0.25"/>
<circle cx="721" cy="339" r="3.4" fill="#c39763" opacity="0.17"/>
<circle cx="159" cy="257" r="2.2" fill="#704528" opacity="0.40"/>
<circle cx="413" cy="245" r="2.9" fill="#2a160d" opacity="0.19"/>
<circle cx="986" cy="567" r="4.9" fill="#2a160d" opacity="0.18"/>
<circle cx="588" cy="175" r="4.3" fill="#c39763" opacity="0.36"/>
<circle cx="815" cy="248" r="2.5" fill="#c39763" opacity="0.26"/>
<circle cx="315" cy="285" r="2.4" fill="#ffffff" opacity="0.09"/>
<circle cx="266" cy="138" r="3.5" fill="#2a160d" opacity="0.25"/>
<circle cx="212" cy="408" r="1.2" fill="#2a160d" opacity="0.15"/>
<circle cx="816" cy="352" r="3.2" fill="#ffffff" opacity="0.19"/>
<circle cx="728" cy="525" r="2.0" fill="#ffffff" opacity="0.11"/>
<circle cx="946" cy="564" r="1.5" fill="#1f1f1c" opacity="0.09"/>
<circle cx="388" cy="16" r="1.7" fill="#1f1f1c" opacity="0.22"/>
<circle cx="367" cy="404" r="3.7" fill="#704528" opacity="0.18"/>
<circle cx="387" cy="289" r="4.0" fill="#704528" opacity="0.36"/>
<circle cx="207" cy="611" r="3.7" fill="#2a160d" opacity="0.20"/>
<circle cx="730" cy="65" r="5.3" fill="#2a160d" opacity="0.15"/>
<circle cx="268" cy="326" r="3.5" fill="#704528" opacity="0.19"/>
<circle cx="72" cy="254" r="5.1" fill="#704528" opacity="0.39"/>
<circle cx="317" cy="41" r="1.7" fill="#2a160d" opacity="0.10"/>
<circle cx="536" cy="6" r="3.2" fill="#1f1f1c" opacity="0.27"/>
<circle cx="600" cy="316" r="3.7" fill="#1f1f1c" opacity="0.31"/>
<circle cx="764" cy="28" r="5.7" fill="#704528" opacity="0.35"/>
<circle cx="686" cy="482" r="3.2" fill="#2a160d" opacity="0.16"/>
<circle cx="904" cy="606" r="1.2" fill="#ffffff" opacity="0.11"/>
<circle cx="86" cy="597" r="5.4" fill="#704528" opacity="0.30"/>
<circle cx="398" cy="288" r="1.9" fill="#704528" opacity="0.42"/>
<circle cx="625" cy="250" r="3.0" fill="#ffffff" opacity="0.11"/>
<circle cx="362" cy="535" r="3.1" fill="#704528" opacity="0.37"/>
<circle cx="461" cy="367" r="2.9" fill="#ffffff" opacity="0.12"/>
<circle cx="543" cy="308" r="4.4" fill="#2a160d" opacity="0.31"/>
<circle cx="600" cy="422" r="3.0" fill="#ffffff" opacity="0.39"/>
<circle cx="519" cy="164" r="3.6" fill="#1f1f1c" opacity="0.10"/>
<circle cx="352" cy="273" r="1.9" fill="#1f1f1c" opacity="0.41"/>
<circle cx="163" cy="461" r="3.9" fill="#2a160d" opacity="0.24"/>
<circle cx="820" cy="559" r="3.6" fill="#2a160d" opacity="0.26"/>
<circle cx="460" cy="392" r="3.1" fill="#2a160d" opacity="0.34"/>
<circle cx="406" cy="498" r="4.3" fill="#1f1f1c" opacity="0.16"/>
<circle cx="670" cy="5" r="5.7" fill="#ffffff" opacity="0.27"/>
<circle cx="84" cy="438" r="1.4" fill="#c39763" opacity="0.40"/>
<circle cx="170" cy="178" r="4.4" fill="#1f1f1c" opacity="0.28"/>
<circle cx="456" cy="314" r="1.8" fill="#704528" opacity="0.29"/>
<circle cx="706" cy="214" r="2.8" fill="#2a160d" opacity="0.25"/>
<circle cx="496" cy="461" r="1.6" fill="#2a160d" opacity="0.41"/>
<circle cx="335" cy="58" r="4.0" fill="#704528" opacity="0.31"/>
<circle cx="712" cy="542" r="2.8" fill="#2a160d" opacity="0.17"/>
<circle cx="867" cy="561" r="1.3" fill="#2a160d" opacity="0.29"/>
<circle cx="964" cy="173" r="4.0" fill="#1f1f1c" opacity="0.40"/>
<path d="M-92 256 C 353 150, 440 357, 1084 263" fill="none" stroke="#d1a16f" stroke-width="3.8" opacity="0.52" stroke-linecap="round"/>
<path d="M62 341 C 448 199, 561 432, 819 328" fill="none" stroke="#d1a16f" stroke-width="6.2" opacity="0.52" stroke-linecap="round"/>
<path d="M-94 55 C 499 -40, 676 119, 936 48" fill="none" stroke="#d1a16f" stroke-width="7.4" opacity="0.52" stroke-linecap="round"/>
<path d="M75 509 C 477 322, 594 637, 1074 525" fill="none" stroke="#d1a16f" stroke-width="7.5" opacity="0.52" stroke-linecap="round"/>
<path d="M-115 28 C 309 -67, 420 111, 1045 21" fill="none" stroke="#d1a16f" stroke-width="7.9" opacity="0.52" stroke-linecap="round"/>
<path d="M-9 150 C 338 39, 513 306, 813 207" fill="none" stroke="#d1a16f" stroke-width="8.9" opacity="0.52" stroke-linecap="round"/>
<path d="M-33 11 C 437 -138, 553 151, 788 83" fill="none" stroke="#d1a16f" stroke-width="2.2" opacity="0.52" stroke-linecap="round"/>
<path d="M-25 30 C 303 -126, 445 137, 962 120" fill="none" stroke="#d1a16f" stroke-width="3.1" opacity="0.52" stroke-linecap="round"/>
<path d="M-83 164 C 372 1, 530 257, 977 201" fill="none" stroke="#d1a16f" stroke-width="8.9" opacity="0.52" stroke-linecap="round"/>
<path d="M-107 56 C 452 -115, 543 167, 825 12" fill="none" stroke="#d1a16f" stroke-width="7.3" opacity="0.52" stroke-linecap="round"/>
<path d="M56 358 C 542 180, 627 470, 864 321" fill="none" stroke="#d1a16f" stroke-width="5.8" opacity="0.52" stroke-linecap="round"/>
<path d="M28 328 C 341 180, 450 464, 1006 305" fill="none" stroke="#d1a16f" stroke-width="4.2" opacity="0.52" stroke-linecap="round"/>
<rect width="1000" height="620" filter="url(#noise)" opacity=".55"/>
</svg>