<svg xmlns="http://www.w3.org/2000/svg" viewBox="0 0 1000 620">
<defs>
<linearGradient id="g" x1="0" x2="1" y1="0" y2="1"><stop stop-color="#e4dfd3"/><stop offset=".55" stop-color="#faf6ed"/><stop offset="1" stop-color="#9f998f"/></linearGradient>
<filter id="noise"><feTurbulence type="fractalNoise" baseFrequency=".035 .09" numOctaves="5" seed="12"/><feColorMatrix type="saturate" values=".22"/><feBlend mode="multiply" in2="SourceGraphic"/></filter>
</defs>
<rect width="1000" height="620" fill="url(#g)"/>
<circle cx="863" cy="4" r="4.0" fill="#1f1f1c" opacity="0.38"/>
<circle cx="737" cy="244" r="3.9" fill="#e4dfd3" opacity="0.27"/>
<circle cx="53" cy="599" r="3.4" fill="#e4dfd3" opacity="0.08"/>
<circle cx="790" cy="351" r="5.6" fill="#faf6ed" opacity="0.29"/>
<circle cx="939" cy="211" r="3.0" fill="#1f1f1c" opacity="0.27"/>
<circle cx="950" cy="499" r="5.3" fill="#faf6ed" opacity="0.25"/>
<circle cx="566" cy="534" r="3.6" fill="#ffffff" opacity="0.25"/>
<circle cx="26" cy="45" r="2.7" fill="#faf6ed" opacity="0.36"/>
<circle cx="155" cy="27" r="2.2" fill="#ffffff" opacity="0.20"/>
<circle cx="554" cy="365" r="4.9" fill="#e4dfd3" opacity="0.24"/>
<circle cx="907" cy="459" r="5.4" fill="#9f998f" opacity="0.09"/>
<circle cx="793" cy="211" r="3.3" fill="#faf6ed" opacity="0.17"/>
<circle cx="796" cy="567" r="3.7" fill="#1f1f1c" opacity="0.30"/>
<circle cx="978" cy="21" r="1.7" fill="#1f1f1c" opacity="0.27"/>
<circle cx="142" cy="118" r="4.0" fill="#9f998f" opacity="0.38"/>
<circle cx="628" cy="32" r="5.5" fill="#e4dfd3" opacity="0.21"/>
<circle cx="520" cy="412" r="5.8" fill="#ffffff" opacity="0.09"/>
<circle cx="435" cy="264" r="1.3" fill="#ffffff" opacity="0.34"/>
<circle cx="496" cy="361" r="5.0" fill="#1f1f1c" opacity="0.28"/>
<circle cx="695" cy="223" r="3.5" fill="#1f1f1c" opacity="0.40"/>
<circle cx="593" cy="541" r="4.8" fill="#9f998f" opacity="0.19"/>
<circle cx="797" cy="611" r="5.8" fill="#e4dfd3" opacity="0.42"/>
<circle cx="124" cy="45" r="3.8" fill="#e4dfd3" opacity="0.16"/>
<circle cx="456" cy="333" r="3.8" fill="#9f998f" opacity="0.24"/>
<circle cx="231" cy="268" r="3.6" fill="#1f1f1c" opacity="0.12"/>
<circle cx="785" cy="590" r="3.4" fill="#ffffff" opacity="0.27"/>
<circle cx="310" cy="112" r="3.8" fill="#ffffff" opacity="0.29"/>
<circle cx="620" cy="227" r="4.9" fill="#e4dfd3" opacity="0.27"/>
<circle cx="109" cy="601" r="1.4" fill="#ffffff" opacity="0.27"/>
<circle cx="824" cy="538" r="5.5" fill="#faf6ed" opacity="0.13"/>
<circle cx="457" cy="523" r="4.5" fill="#ffffff" opacity="0.36"/>
<circle cx="983" cy="579" r="2.1" fill="#1f1f1c" opacity="0.19"/>
<circle cx="676" cy="534" r="3.9" fill="#9f998f" opacity="0.36"/>
<circle cx="95" cy="40" r="5.3" fill="#faf6ed" opacity="0.30"/>
<circle cx="669" cy="6" r="3.0" fill="#ffffff" opacity="0.18"/>
<circle cx="207" cy="251" r="3.7" fill="#1f1f1c" opacity="0.31"/>
<circle cx="674" cy="480" r="2.0" fill="#9f998f" opacity="0.28"/>
<circle cx="933" cy="440" r="3.4" fill="#1f1f1c" opacity="0.21"/>
<circle cx="57" cy="334" r="4.4" fill="#9f998f" opacity="0.16"/>
<circle cx="110" cy="88" r="3.2" fill="#e4dfd3" opacity="0.11"/>
<circle cx="527" cy="98" r="4.8" fill="#faf6ed" opacity="0.25"/>
<circle cx="173" cy="313" r="2.5" fill="#ffffff" opacity="0.29"/>
<circle cx="496" cy="195" r="3.2" fill="#ffffff" opacity="0.28"/>
<circle cx="327" cy="344" r="1.3" fill="#1f1f1c" opacity="0.37"/>
<circle cx="775" cy="309" r="3.9" fill="#e4dfd3" opacity="0.31"/>
<circle cx="168" cy="560" r="1.4" fill="#1f1f1c" opacity="0.12"/>
<circle cx="367" cy="342" r="2.9" fill="#faf6ed" opacity="0.33"/>
<circle cx="370" cy="129" r="1.7" fill="#ffffff" opacity="0.18"/>
<circle cx="0" cy="417" r="2.2" fill="#1f1f1c" opacity="0.27"/>
<circle cx="509" cy="416" r="2.6" fill="#faf6ed" opacity="0.23"/>
<circle cx="552" cy="563" r="2.4" fill="#e4dfd3" opacity="0.29"/>
<circle cx="602" cy="468" r="3.7" fill="#9f998f" opacity="0.16"/>
<circle cx="611" cy="392" r="4.5" fill="#e4dfd3" opacity="0.10"/>
<circle cx="746" cy="504" r="4.2" fill="#e4dfd3" opacity="0.11"/>
<circle cx="687" cy="258" r="5.2" fill="#1f1f1c" opacity="0.19"/>
<circle cx="451" cy="488" r="4.9" fill="#9f998f" opacity="0.39"/>
<circle cx="415" cy="222" r="4.8" fill="#1f1f1c" opacity="0.19"/>
<circle cx="334" cy="571" r="4.2" fill="#ffffff" opacity="0.30"/>
<circle cx="510" cy="192" r="2.6" fill="#1f1f1c" opacity="0.30"/>
<circle cx="332" cy="363" r="2.2" fill="#faf6ed" opacity="0.25"/>
<circle cx="760" cy="575" r="3.5" fill="#9f998f" opacity="0.28"/>
<circle cx="564" cy="30" r="5.3" fill="#e4dfd3" opacity="0.14"/>
<circle cx="673" cy="501" r="4.2" fill="#faf6ed" opacity="0.40"/>
<circle cx="53" cy="284" r="4.5" fill="#1f1f1c" opacity="0.28"/>
<circle cx="397" cy="461" r="5.6" fill="#e4dfd3" opacity="0.15"/>
<circle cx="378" cy="222" r="3.6" fill="#faf6ed" opacity="0.30"/>
<circle cx="161" cy="159" r="4.5" fill="#9f998f" opacity="0.18"/>
<circle cx="721" cy="199" r="4.7" fill="#faf6ed" opacity="0.33"/>
<circle cx="860" cy="447" r="1.3" fill="#9f998f" opacity="0.40"/>
<circle cx="718" cy="288" r="4.0" fill="#ffffff" opacity="0.26"/>
<circle cx="325" cy="250" r="1.5" fill="#1f1f1c" opacity="0.32"/>
<circle cx="253" cy="407" r="4.7" fill="#e4dfd3" opacity="0.22"/>
<circle cx="321" cy="14" r="1.5" fill="#1f1f1c" opacity="0.39"/>
<circle cx="987" cy="283" r="1.3" fill="#9f998f" opacity="0.23"/>
<circle cx="4" cy="16" r="3.0" fill="#ffffff" opacity="0.27"/>
<circle cx="396" cy="555" r="4.4" fill="#1f1f1c" opacity="0.18"/>
<circle cx="945" cy="429" r="5.1" fill="#faf6ed" opacity="0.22"/>
<circle cx="305" cy="493" r="1.9" fill="#e4dfd3" opacity="0.40"/>
<circle cx="66" cy="512" r="1.2" fill="#faf6ed" opacity="0.27"/>
<circle cx="410" cy="284" r="5.1" fill="#1f1f1c" opacity="0.12"/>
<circle cx="180" cy="324" r="3.7" fill="#9f998f" opacity="0.22"/>
<circle cx="892" cy="273" r="1.7" fill="#e4dfd3" opacity="0.27"/>
<circle cx="837" cy="485" r="4.9" fill="#ffffff" opacity="0.27"/>
<circle cx="332" cy="304" r="4.0" fill="#ffffff" opacity="0.16"/>
<circle cx="375" cy="165" r="3.7" fill="#ffffff" opacity="0.34"/>
<circle cx="721" cy="14" r="2.9" fill="#e4dfd3" opacity="0.42"/>
<circle cx="28" cy="170" r="3.8" fill="#e4dfd3" opacity="0.35"/>
<circle cx="694" cy="469" r="4.3" fill="#e4dfd3" opacity="0.39"/>
<circle cx="517" cy="128" r="4.1" fill="#9f998f" opacity="0.26"/>
<circle cx="372" cy="488" r="4.3" fill="#ffffff" opacity="0.33"/>
<circle cx="973" cy="40" r="3.4" fill="#faf6ed" opacity="0.12"/>
<circle cx="842" cy="296" r="5.7" fill="#1f1f1c" opacity="0.16"/>
<circle cx="104" cy="453" r="4.3" fill="#faf6ed" opacity="0.37"/>
<circle cx="979" cy="381" r="4.7" fill="#e4dfd3" opacity="0.20"/>
<circle cx="684" cy="384" r="2.6" fill="#faf6ed" opacity="0.41"/>
<circle cx="809" cy="226" r="3.7" fill="#faf6ed" opacity="0.31"/>
<circle cx="700" cy="157" r="4.9" fill="#faf6ed" opacity="0.16"/>
<circle cx="100" cy="23" r="2.6" fill="#9f998f" opacity="0.17"/>
<circle cx="1" cy="270" r="5.7" fill="#ffffff" opacity="0.32"/>
<circle cx="246" cy="476" r="2.0" fill="#1f1f1c" opacity="0.21"/>
<circle cx="538" cy="63" r="5.8" fill="#9f998f" opacity="0.27"/>
<circle cx="664" cy="265" r="3.4" fill="#ffffff" opacity="0.19"/>
<circle cx="421" cy="246" r="3.9" fill="#e4dfd3" opacity="0.23"/>
<circle cx="313" cy="487" r="2.7" fill="#1f1f1c" opacity="0.14"/>
<circle cx="743" cy="485" r="1.7" fill="#1f1f1c" opacity="0.36"/>
<circle cx="835" cy="337" r="2.1" fill="#e4dfd3" opacity="0.33"/>
<circle cx="666" cy="73" r="2.2" fill="#1f1f1c" opacity="0.42"/>
<circle cx="830" cy="243" r="3.1" fill="#faf6ed" opacity="0.19"/>
<circle cx="947" cy="532" r="5.6" fill="#e4dfd3" opacity="0.40"/>
<circle cx="168" cy="113" r="3.6" fill="#faf6ed" opacity="0.38"/>
<circle cx="783" cy="552" r="1.8" fill="#ffffff" opacity="0.20"/>
<circle cx="253" cy="172" r="1.7" fill="#faf6ed" opacity="0.32"/>
<circle cx="369" cy="469" r="2.8" fill="#1f1f1c" opacity="0.13"/>
<circle cx="176" cy="479" r="5.1" fill="#e4dfd3" opacity="0.27"/>
<circle cx="791" cy="451" r="4.7" fill="#ffffff" opacity="0.17"/>
<circle cx="757" cy="346" r="1.7" fill="#9f998f" opacity="0.14"/>
<circle cx="121" cy="218" r="2.5" fill="#faf6ed" opacity="0.11"/>
<circle cx="637" cy="477" r="2.9" fill="#ffffff" opacity="0.38"/>
<circle cx="956" cy="249" r="3.2" fill="#ffffff" opacity="0.26"/>
<circle cx="815" cy="568" r="2.8" fill="#9f998f" opacity="0.12"/>
<circle cx="888" cy="215" r="2.4" fill="#faf6ed" opacity="0.23"/>
<circle cx="455" cy="469" r="5.1" fill="#faf6ed" opacity="0.20"/>
<circle cx="800" cy="391" r="1.5" fill="#faf6ed" opacity="0.34"/>
<circle cx="239" cy="238" r="4.2" fill="#ffffff" opacity="0.27"/>
<circle cx="11" cy="303" r="5.0" fill="#faf6ed" opacity="0.40"/>
<circle cx="253" cy="527" r="1.3" fill="#faf6ed" opacity="0.22"/>
<circle cx="177" cy="490" r="3.3" fill="#faf6ed" opacity="0.09"/>
<circle cx="339" cy="149" r="3.1" fill="#ffffff" opacity="0.35"/>
<circle cx="965" cy="451" r="3.5" fill="#9f998f" opacity="0.35"/>
<circle cx="693" cy="341" r="3.0" fill="#9f998f" opacity="0.36"/>
<circle cx="328" cy="536" r="4.5" fill="#e4dfd3" opacity="0.12"/>
<circle cx="348" cy="443" r="1.8" fill="#ffffff" opacity="0.12"/>
<circle cx="221" cy="516" r="5.2" fill="#1f1f1c" opacity="0.19"/>
<circle cx="118" cy="81" r="4.3" fill="#9f998f" opacity="0.32"/>
<circle cx="139" cy="291" r="4.2" fill="#1f1f1c" opacity="0.28"/>
<circle cx="712" cy="612" r="5.1" fill="#1f1f1c" opacity="0.41"/>
<circle cx="458" cy="256" r="4.3" fill="#e4dfd3" opacity="0.40"/>
<circle cx="634" cy="263" r="2.4" fill="#e4dfd3" opacity="0.18"/>
<circle cx="878" cy="15" r="3.9" fill="#e4dfd3" opacity="0.26"/>
<circle cx="360" cy="57" r="2.2" fill="#9f998f" opacity="0.17"/>
<circle cx="232" cy="401" r="5.7" fill="#e4dfd3" opacity="0.08"/>
<circle cx="199" cy="213" r="3.6" fill="#1f1f1c" opacity="0.15"/>
<circle cx="159" cy="540" r="3.4" fill="#e4dfd3" opacity="0.33"/>
<circle cx="153" cy="277" r="5.5" fill="#1f1f1c" opacity="0.38"/>
<circle cx="412" cy="126" r="4.6" fill="#ffffff" opacity="0.24"/>
<circle cx="538" cy="133" r="3.6" fill="#1f1f1c" opacity="0.15"/>
<circle cx="198" cy="331" r="1.9" fill="#9f998f" opacity="0.29"/>
<circle cx="278" cy="544" r="3.7" fill="#1f1f1c" opacity="0.30"/>
<circle cx="477" cy="146" r="2.5" fill="#1f1f1c" opacity="0.26"/>
<circle cx="903" cy="58" r="4.7" fill="#ffffff" opacity="0.33"/>
<circle cx="276" cy="486" r="3.1" fill="#faf6ed" opacity="0.13"/>
<circle cx="264" cy="30" r="4.0" fill="#1f1f1c" opacity="0.32"/>
<circle cx="879" cy="120" r="2.8" fill="#faf6ed" opacity="0.23"/>
<circle cx="3" cy="612" r="2.9" fill="#1f1f1c" opacity="0.35"/>
<circle cx="852" cy="111" r="2.3" fill="#faf6ed" opacity="0.35"/>
<circle cx="826" cy="556" r="4.9" fill="#9f998f" opacity="0.34"/>
<circle cx="846" cy="411" r="1.3" fill="#9f998f" opacity="0.33"/>
<circle cx="434" cy="199" r="5.5" fill="#ffffff" opacity="0.10"/>
<circle cx="117" cy="450" r="3.0" fill="#9f998f" opacity="0.30"/>
<circle cx="994" cy="246" r="1.4" fill="#9f998f" opacity="0.10"/>
<circle cx="563" cy="560" r="3.7" fill="#e4dfd3" opacity="0.11"/>
<circle cx="119" cy="569" r="5.2" fill="#e4dfd3" opacity="0.12"/>
<circle cx="981" cy="400" r="2.8" fill="#9f998f" opacity="0.16"/>
<circle cx="24" cy="596" r="2.8" fill="#faf6ed" opacity="0.41"/>
<circle cx="372" cy="204" r="4.0" fill="#1f1f1c" opacity="0.26"/>
<circle cx="58" cy="90" r="4.6" fill="#faf6ed" opacity="0.30"/>
<circle cx="194" cy="10" r="2.1" fill="#1f1f1c" opacity="0.11"/>
<circle cx="226" cy="4" r="2.1" fill="#9f998f" opacity="0.37"/>
<circle cx="797" cy="325" r="3.7" fill="#1f1f1c" opacity="0.17"/>
<circle cx="648" cy="246" r="4.0" fill="#ffffff" opacity="0.14"/>
<circle cx="316" cy="318" r="5.7" fill="#9f998f" opacity="0.25"/>
<circle cx="639" cy="314" r="2.0" fill="#e4dfd3" opacity="0.20"/>
<circle cx="805" cy="344" r="5.5" fill="#faf6ed" opacity="0.17"/>
<circle cx="658" cy="144" r="3.9" fill="#1f1f1c" opacity="0.25"/>
<circle cx="326" cy="137" r="1.3" fill="#e4dfd3" opacity="0.18"/>
<circle cx="978" cy="58" r="5.2" fill="#ffffff" opacity="0.26"/>
<circle cx="205" cy="538" r="4.4" fill="#faf6ed" opacity="0.34"/>
<circle cx="952" cy="601" r="1.9" fill="#faf6ed" opacity="0.18"/>
<circle cx="121" cy="498" r="3.2" fill="#faf6ed" opacity="0.14"/>
<circle cx="896" cy="44" r="4.6" fill="#e4dfd3" opacity="0.24"/>
<circle cx="168" cy="252" r="5.1" fill="#e4dfd3" opacity="0.38"/>
<circle cx="86" cy="106" r="1.4" fill="#9f998f" opacity="0.19"/>
<circle cx="368" cy="486" r="2.1" fill="#9f998f" opacity="0.17"/>
<circle cx="267" cy="8" r="4.5" fill="#e4dfd3" opacity="0.34"/>
<circle cx="288" cy="263" r="1.2" fill="#ffffff" opacity="0.20"/>
<circle cx="612" cy="125" r="2.2" fill="#faf6ed" opacity="0.30"/>
<circle cx="828" cy="408" r="5.4" fill="#e4dfd3" opacity="0.27"/>
<circle cx="659" cy="445" r="4.0" fill="#9f998f" opacity="0.23"/>
<circle cx="718" cy="406" r="1.7" fill="#ffffff" opacity="0.35"/>
<circle cx="504" cy="410" r="1.3" fill="#faf6ed" opacity="0.14"/>
<circle cx="702" cy="380" r="3.4" fill="#ffffff" opacity="0.30"/>
<circle cx="104" cy="59" r="1.2" fill="#e4dfd3" opacity="0.08"/>
<circle cx="545" cy="464" r="2.0" fill="#1f1f1c" opacity="0.21"/>
<circle cx="79" cy="319" r="5.1" fill="#ffffff" opacity="0.32"/>
<circle cx="11" cy="115" r="3.6" fill="#faf6ed" opacity="0.41"/>
<circle cx="254" cy="616" r="4.7" fill="#faf6ed" opacity="0.24"/>
<circle cx="169" cy="447" r="3.8" fill="#1f1f1c" opacity="0.16"/>
<circle cx="214" cy="74" r="4.8" fill="#ffffff" opacity="0.35"/>
<circle cx="409" cy="593" r="1.6" fill="#ffffff" opacity="0.11"/>
<circle cx="19" cy="551" r="3.4" fill="#faf6ed" opacity="0.31"/>
<circle cx="945" cy="168" r="5.6" fill="#e4dfd3" opacity="0.22"/>
<circle cx="386" cy="617" r="4.5" fill="#faf6ed" opacity="0.41"/>
<circle cx="334" cy="73" r="3.2" fill="#e4dfd3" opacity="0.25"/>
<circle cx="622" cy="567" r="4.7" fill="#ffffff" opacity="0.33"/>
<circle cx="221" cy="608" r="5.4" fill="#9f998f" opacity="0.30"/>
<circle cx="923" cy="473" r="4.1" fill="#ffffff" opacity="0.15"/>
<circle cx="751" cy="16" r="3.5" fill="#faf6ed" opacity="0.17"/>
<circle cx="811" cy="515" r="4.0" fill="#e4dfd3" opacity="0.17"/>
<circle cx="429" cy="87" r="1.9" fill="#ffffff" opacity="0.11"/>
<circle cx="93" cy="103" r="5.4" fill="#faf6ed" opacity="0.25"/>
<circle cx="957" cy="468" r="3.1" fill="#ffffff" opacity="0.33"/>
<circle cx="835" cy="340" r="2.1" fill="#9f998f" opacity="0.08"/>
<circle cx="223" cy="334" r="4.8" fill="#9f998f" opacity="0.11"/>
<circle cx="625" cy="492" r="5.0" fill="#e4dfd3" opacity="0.11"/>
<circle cx="179" cy="13" r="1.2" fill="#9f998f" opacity="0.29"/>
<circle cx="120" cy="87" r="3.3" fill="#1f1f1c" opacity="0.13"/>
<circle cx="425" cy="496" r="3.5" fill="#ffffff" opacity="0.25"/>
<circle cx="142" cy="512" r="4.5" fill="#1f1f1c" opacity="0.29"/>
<circle cx="752" cy="150" r="2.6" fill="#faf6ed" opacity="0.39"/>
<circle cx="798" cy="150" r="3.8" fill="#faf6ed" opacity="0.15"/>
<path d="M-87 691 C 429 513, 596 788, 1053 770" fill="none" stroke="#9f998f" stroke-width="5.2" opacity="0.28" stroke-linecap="round"/>
<path d="M68 220 C 490 39, 625 330, 995 279" fill="none" stroke="#9f998f" stroke-width="3.8" opacity="0.28" stroke-linecap="round"/>
<path d="M56 419 C 428 272, 529 551, 749 349" fill="none" stroke="#9f998f" stroke-width="7.9" opacity="0.28" stroke-linecap="round"/>
<path d="M-112 450 C 428 323, 580 590, 951 543" fill="none" stroke="#9f998f" stroke-width="4.9" opacity="0.28" stroke-linecap="round"/>
<path d="M72 -11 C 447 -138, 607 105, 705 -44" fill="none" stroke="#9f998f" stroke-width="8.2" opacity="0.28" stroke-linecap="round"/>
<rect width="1000" height="620" filter="url(#noise)" opacity=".55"/>
</svg>