<svg xmlns="http://www.w3.org/2000/svg" viewBox="0 0 1000 620">
<defs>
<linearGradient id="g" x1="0" x2="1" y1="0" y2="1"><stop stop-color="#eee9de"/><stop offset=".55" stop-color="#fffdf8"/><stop offset="1" stop-color="#b7afa4"/></linearGradient>
<filter id="noise"><feTurbulence type="fractalNoise" baseFrequency=".035 .09" numOctaves="5" seed="12"/><feColorMatrix type="saturate" values=".22"/><feBlend mode="multiply" in2="SourceGraphic"/></filter>
</defs>
<rect width="1000" height="620" fill="url(#g)"/>
<circle cx="44" cy="234" r="3.4" fill="#ffffff" opacity="0.39"/>
<circle cx="648" cy="401" r="3.1" fill="#1f1f1c" opacity="0.14"/>
<circle cx="543" cy="160" r="3.2" fill="#ffffff" opacity="0.39"/>
<circle cx="448" cy="220" r="4.9" fill="#fffdf8" opacity="0.10"/>
<circle cx="339" cy="514" r="3.1" fill="#eee9de" opacity="0.34"/>
<circle cx="264" cy="510" r="2.6" fill="#b7afa4" opacity="0.23"/>
<circle cx="143" cy="328" r="5.4" fill="#1f1f1c" opacity="0.32"/>
<circle cx="769" cy="156" r="1.7" fill="#b7afa4" opacity="0.42"/>
<circle cx="814" cy="50" r="3.9" fill="#fffdf8" opacity="0.12"/>
<circle cx="223" cy="329" r="5.2" fill="#fffdf8" opacity="0.14"/>
<circle cx="73" cy="273" r="4.2" fill="#1f1f1c" opacity="0.30"/>
<circle cx="731" cy="44" r="3.0" fill="#eee9de" opacity="0.40"/>
<circle cx="771" cy="239" r="1.5" fill="#fffdf8" opacity="0.19"/>
<circle cx="25" cy="430" r="5.6" fill="#b7afa4" opacity="0.19"/>
<circle cx="183" cy="604" r="2.1" fill="#1f1f1c" opacity="0.42"/>
<circle cx="745" cy="578" r="4.2" fill="#b7afa4" opacity="0.28"/>
<circle cx="916" cy="443" r="1.9" fill="#fffdf8" opacity="0.31"/>
<circle cx="843" cy="612" r="2.3" fill="#b7afa4" opacity="0.27"/>
<circle cx="26" cy="169" r="4.4" fill="#1f1f1c" opacity="0.23"/>
<circle cx="934" cy="213" r="2.9" fill="#eee9de" opacity="0.37"/>
<circle cx="658" cy="262" r="1.4" fill="#eee9de" opacity="0.33"/>
<circle cx="151" cy="142" r="4.7" fill="#1f1f1c" opacity="0.26"/>
<circle cx="912" cy="610" r="4.9" fill="#b7afa4" opacity="0.41"/>
<circle cx="193" cy="188" r="5.8" fill="#1f1f1c" opacity="0.33"/>
<circle cx="995" cy="602" r="3.5" fill="#eee9de" opacity="0.39"/>
<circle cx="599" cy="447" r="3.0" fill="#b7afa4" opacity="0.10"/>
<circle cx="538" cy="261" r="3.3" fill="#fffdf8" opacity="0.38"/>
<circle cx="921" cy="41" r="1.3" fill="#ffffff" opacity="0.27"/>
<circle cx="207" cy="478" r="1.4" fill="#b7afa4" opacity="0.15"/>
<circle cx="934" cy="575" r="5.8" fill="#ffffff" opacity="0.42"/>
<circle cx="437" cy="212" r="3.4" fill="#b7afa4" opacity="0.23"/>
<circle cx="180" cy="376" r="1.3" fill="#b7afa4" opacity="0.20"/>
<circle cx="792" cy="116" r="5.5" fill="#1f1f1c" opacity="0.14"/>
<circle cx="355" cy="302" r="4.0" fill="#b7afa4" opacity="0.30"/>
<circle cx="913" cy="110" r="3.0" fill="#eee9de" opacity="0.40"/>
<circle cx="64" cy="609" r="2.1" fill="#fffdf8" opacity="0.31"/>
<circle cx="44" cy="302" r="3.9" fill="#b7afa4" opacity="0.16"/>
<circle cx="0" cy="516" r="1.4" fill="#eee9de" opacity="0.16"/>
<circle cx="63" cy="410" r="2.8" fill="#1f1f1c" opacity="0.31"/>
<circle cx="731" cy="56" r="4.1" fill="#ffffff" opacity="0.37"/>
<circle cx="321" cy="12" r="3.0" fill="#1f1f1c" opacity="0.34"/>
<circle cx="356" cy="586" r="5.8" fill="#ffffff" opacity="0.39"/>
<circle cx="565" cy="274" r="1.3" fill="#1f1f1c" opacity="0.41"/>
<circle cx="285" cy="209" r="5.2" fill="#eee9de" opacity="0.14"/>
<circle cx="239" cy="394" r="3.7" fill="#b7afa4" opacity="0.17"/>
<circle cx="755" cy="611" r="3.6" fill="#b7afa4" opacity="0.37"/>
<circle cx="729" cy="5" r="3.0" fill="#b7afa4" opacity="0.31"/>
<circle cx="697" cy="426" r="5.2" fill="#eee9de" opacity="0.19"/>
<circle cx="936" cy="33" r="5.7" fill="#eee9de" opacity="0.15"/>
<circle cx="709" cy="52" r="2.6" fill="#ffffff" opacity="0.15"/>
<circle cx="386" cy="428" r="4.1" fill="#1f1f1c" opacity="0.15"/>
<circle cx="656" cy="130" r="2.9" fill="#eee9de" opacity="0.41"/>
<circle cx="843" cy="536" r="4.5" fill="#eee9de" opacity="0.35"/>
<circle cx="597" cy="266" r="5.6" fill="#ffffff" opacity="0.32"/>
<circle cx="471" cy="244" r="3.8" fill="#ffffff" opacity="0.38"/>
<circle cx="923" cy="376" r="5.3" fill="#fffdf8" opacity="0.18"/>
<circle cx="497" cy="434" r="2.5" fill="#1f1f1c" opacity="0.25"/>
<circle cx="984" cy="82" r="5.7" fill="#fffdf8" opacity="0.30"/>
<circle cx="790" cy="172" r="2.3" fill="#1f1f1c" opacity="0.18"/>
<circle cx="488" cy="244" r="5.2" fill="#ffffff" opacity="0.37"/>
<circle cx="128" cy="343" r="2.6" fill="#eee9de" opacity="0.37"/>
<circle cx="765" cy="472" r="3.5" fill="#b7afa4" opacity="0.21"/>
<circle cx="678" cy="55" r="1.6" fill="#fffdf8" opacity="0.18"/>
<circle cx="800" cy="231" r="2.0" fill="#eee9de" opacity="0.09"/>
<circle cx="980" cy="544" r="5.2" fill="#b7afa4" opacity="0.17"/>
<circle cx="284" cy="75" r="2.7" fill="#ffffff" opacity="0.24"/>
<circle cx="553" cy="145" r="4.5" fill="#1f1f1c" opacity="0.34"/>
<circle cx="903" cy="267" r="4.1" fill="#ffffff" opacity="0.19"/>
<circle cx="407" cy="355" r="2.1" fill="#fffdf8" opacity="0.10"/>
<circle cx="341" cy="155" r="3.2" fill="#eee9de" opacity="0.12"/>
<circle cx="503" cy="479" r="1.7" fill="#eee9de" opacity="0.36"/>
<circle cx="317" cy="50" r="3.4" fill="#1f1f1c" opacity="0.15"/>
<circle cx="243" cy="67" r="4.8" fill="#ffffff" opacity="0.26"/>
<circle cx="441" cy="602" r="4.7" fill="#eee9de" opacity="0.41"/>
<circle cx="592" cy="334" r="3.8" fill="#fffdf8" opacity="0.36"/>
<circle cx="45" cy="466" r="3.3" fill="#1f1f1c" opacity="0.14"/>
<circle cx="470" cy="12" r="2.2" fill="#fffdf8" opacity="0.10"/>
<circle cx="720" cy="501" r="4.7" fill="#ffffff" opacity="0.30"/>
<circle cx="188" cy="66" r="3.3" fill="#b7afa4" opacity="0.28"/>
<circle cx="26" cy="386" r="1.5" fill="#eee9de" opacity="0.16"/>
<circle cx="503" cy="501" r="3.1" fill="#eee9de" opacity="0.28"/>
<circle cx="664" cy="87" r="3.8" fill="#b7afa4" opacity="0.11"/>
<circle cx="512" cy="41" r="2.0" fill="#b7afa4" opacity="0.35"/>
<circle cx="495" cy="27" r="3.2" fill="#fffdf8" opacity="0.29"/>
<circle cx="685" cy="378" r="5.4" fill="#ffffff" opacity="0.41"/>
<circle cx="947" cy="195" r="2.8" fill="#1f1f1c" opacity="0.30"/>
<circle cx="272" cy="170" r="4.3" fill="#b7afa4" opacity="0.24"/>
<circle cx="955" cy="355" r="4.5" fill="#b7afa4" opacity="0.31"/>
<circle cx="127" cy="64" r="5.5" fill="#eee9de" opacity="0.15"/>
<circle cx="713" cy="577" r="3.8" fill="#eee9de" opacity="0.13"/>
<circle cx="216" cy="160" r="1.4" fill="#ffffff" opacity="0.20"/>
<circle cx="142" cy="75" r="4.3" fill="#fffdf8" opacity="0.12"/>
<circle cx="679" cy="95" r="3.0" fill="#1f1f1c" opacity="0.32"/>
<circle cx="887" cy="215" r="2.5" fill="#ffffff" opacity="0.35"/>
<circle cx="667" cy="63" r="1.5" fill="#1f1f1c" opacity="0.41"/>
<circle cx="475" cy="556" r="2.2" fill="#ffffff" opacity="0.34"/>
<circle cx="573" cy="135" r="2.8" fill="#1f1f1c" opacity="0.29"/>
<circle cx="460" cy="88" r="3.5" fill="#1f1f1c" opacity="0.27"/>
<circle cx="55" cy="553" r="2.5" fill="#eee9de" opacity="0.35"/>
<circle cx="909" cy="609" r="4.5" fill="#ffffff" opacity="0.13"/>
<circle cx="297" cy="458" r="3.7" fill="#ffffff" opacity="0.10"/>
<circle cx="444" cy="295" r="2.5" fill="#b7afa4" opacity="0.08"/>
<circle cx="103" cy="573" r="4.4" fill="#ffffff" opacity="0.12"/>
<circle cx="333" cy="54" r="5.3" fill="#fffdf8" opacity="0.38"/>
<circle cx="486" cy="97" r="2.4" fill="#ffffff" opacity="0.12"/>
<circle cx="479" cy="507" r="2.1" fill="#ffffff" opacity="0.36"/>
<circle cx="503" cy="89" r="4.0" fill="#b7afa4" opacity="0.34"/>
<circle cx="286" cy="562" r="3.7" fill="#fffdf8" opacity="0.08"/>
<circle cx="745" cy="406" r="4.5" fill="#ffffff" opacity="0.37"/>
<circle cx="109" cy="246" r="5.5" fill="#ffffff" opacity="0.08"/>
<circle cx="387" cy="325" r="2.9" fill="#eee9de" opacity="0.33"/>
<circle cx="43" cy="613" r="4.6" fill="#eee9de" opacity="0.14"/>
<circle cx="950" cy="300" r="2.1" fill="#eee9de" opacity="0.15"/>
<circle cx="243" cy="95" r="3.0" fill="#b7afa4" opacity="0.19"/>
<circle cx="399" cy="454" r="4.4" fill="#1f1f1c" opacity="0.21"/>
<circle cx="621" cy="533" r="5.0" fill="#eee9de" opacity="0.34"/>
<circle cx="556" cy="445" r="3.8" fill="#b7afa4" opacity="0.13"/>
<circle cx="452" cy="331" r="3.6" fill="#b7afa4" opacity="0.19"/>
<circle cx="513" cy="478" r="1.5" fill="#1f1f1c" opacity="0.13"/>
<circle cx="729" cy="19" r="5.7" fill="#ffffff" opacity="0.13"/>
<circle cx="301" cy="279" r="5.4" fill="#fffdf8" opacity="0.33"/>
<circle cx="842" cy="491" r="5.4" fill="#ffffff" opacity="0.32"/>
<circle cx="390" cy="398" r="1.4" fill="#b7afa4" opacity="0.25"/>
<circle cx="442" cy="263" r="2.6" fill="#b7afa4" opacity="0.24"/>
<circle cx="620" cy="112" r="4.8" fill="#1f1f1c" opacity="0.33"/>
<circle cx="815" cy="360" r="3.7" fill="#ffffff" opacity="0.12"/>
<circle cx="242" cy="415" r="4.1" fill="#b7afa4" opacity="0.40"/>
<circle cx="893" cy="97" r="4.4" fill="#1f1f1c" opacity="0.39"/>
<circle cx="310" cy="430" r="3.5" fill="#ffffff" opacity="0.36"/>
<circle cx="184" cy="325" r="3.1" fill="#fffdf8" opacity="0.32"/>
<circle cx="588" cy="63" r="5.1" fill="#b7afa4" opacity="0.37"/>
<circle cx="57" cy="584" r="5.7" fill="#ffffff" opacity="0.34"/>
<circle cx="537" cy="315" r="2.8" fill="#b7afa4" opacity="0.13"/>
<circle cx="449" cy="501" r="4.0" fill="#fffdf8" opacity="0.36"/>
<circle cx="164" cy="359" r="4.4" fill="#1f1f1c" opacity="0.40"/>
<circle cx="806" cy="413" r="3.3" fill="#1f1f1c" opacity="0.20"/>
<circle cx="309" cy="94" r="2.6" fill="#eee9de" opacity="0.19"/>
<circle cx="14" cy="61" r="2.0" fill="#eee9de" opacity="0.40"/>
<circle cx="860" cy="612" r="5.0" fill="#fffdf8" opacity="0.12"/>
<circle cx="824" cy="566" r="2.8" fill="#fffdf8" opacity="0.28"/>
<circle cx="504" cy="81" r="2.5" fill="#ffffff" opacity="0.28"/>
<circle cx="636" cy="115" r="3.5" fill="#ffffff" opacity="0.35"/>
<circle cx="135" cy="461" r="2.4" fill="#eee9de" opacity="0.33"/>
<circle cx="9" cy="605" r="1.2" fill="#eee9de" opacity="0.15"/>
<circle cx="680" cy="114" r="3.7" fill="#eee9de" opacity="0.23"/>
<circle cx="529" cy="114" r="2.3" fill="#b7afa4" opacity="0.35"/>
<circle cx="719" cy="253" r="1.2" fill="#ffffff" opacity="0.25"/>
<circle cx="88" cy="429" r="4.8" fill="#ffffff" opacity="0.39"/>
<circle cx="356" cy="334" r="2.0" fill="#fffdf8" opacity="0.36"/>
<circle cx="423" cy="259" r="5.6" fill="#ffffff" opacity="0.23"/>
<circle cx="575" cy="4" r="4.4" fill="#eee9de" opacity="0.33"/>
<circle cx="143" cy="269" r="5.1" fill="#eee9de" opacity="0.39"/>
<circle cx="143" cy="182" r="5.6" fill="#ffffff" opacity="0.27"/>
<circle cx="855" cy="215" r="3.6" fill="#ffffff" opacity="0.31"/>
<circle cx="775" cy="531" r="2.1" fill="#ffffff" opacity="0.17"/>
<circle cx="438" cy="618" r="3.7" fill="#b7afa4" opacity="0.12"/>
<circle cx="7" cy="583" r="2.1" fill="#ffffff" opacity="0.33"/>
<circle cx="403" cy="554" r="3.8" fill="#fffdf8" opacity="0.09"/>
<circle cx="728" cy="86" r="3.4" fill="#ffffff" opacity="0.24"/>
<circle cx="448" cy="109" r="1.9" fill="#b7afa4" opacity="0.28"/>
<circle cx="911" cy="93" r="2.8" fill="#1f1f1c" opacity="0.39"/>
<circle cx="115" cy="388" r="3.4" fill="#fffdf8" opacity="0.11"/>
<circle cx="269" cy="591" r="4.8" fill="#b7afa4" opacity="0.23"/>
<circle cx="112" cy="332" r="1.3" fill="#1f1f1c" opacity="0.12"/>
<circle cx="528" cy="226" r="3.8" fill="#ffffff" opacity="0.19"/>
<circle cx="8" cy="505" r="3.6" fill="#b7afa4" opacity="0.37"/>
<circle cx="499" cy="225" r="5.7" fill="#eee9de" opacity="0.23"/>
<circle cx="162" cy="479" r="5.7" fill="#b7afa4" opacity="0.22"/>
<circle cx="819" cy="505" r="3.4" fill="#1f1f1c" opacity="0.11"/>
<circle cx="735" cy="479" r="2.3" fill="#fffdf8" opacity="0.19"/>
<circle cx="59" cy="128" r="1.5" fill="#b7afa4" opacity="0.20"/>
<circle cx="114" cy="285" r="4.0" fill="#b7afa4" opacity="0.20"/>
<circle cx="965" cy="292" r="3.2" fill="#ffffff" opacity="0.18"/>
<circle cx="604" cy="568" r="3.1" fill="#ffffff" opacity="0.37"/>
<circle cx="836" cy="551" r="3.6" fill="#1f1f1c" opacity="0.32"/>
<circle cx="466" cy="418" r="1.4" fill="#fffdf8" opacity="0.27"/>
<circle cx="932" cy="428" r="1.7" fill="#eee9de" opacity="0.32"/>
<circle cx="372" cy="56" r="5.2" fill="#b7afa4" opacity="0.32"/>
<circle cx="554" cy="113" r="4.9" fill="#fffdf8" opacity="0.13"/>
<circle cx="998" cy="517" r="5.2" fill="#b7afa4" opacity="0.09"/>
<circle cx="53" cy="390" r="3.8" fill="#ffffff" opacity="0.31"/>
<circle cx="783" cy="88" r="2.9" fill="#eee9de" opacity="0.38"/>
<circle cx="750" cy="90" r="3.4" fill="#1f1f1c" opacity="0.37"/>
<circle cx="200" cy="17" r="5.6" fill="#b7afa4" opacity="0.15"/>
<circle cx="973" cy="170" r="2.5" fill="#ffffff" opacity="0.08"/>
<circle cx="976" cy="309" r="1.3" fill="#b7afa4" opacity="0.15"/>
<circle cx="292" cy="469" r="2.6" fill="#b7afa4" opacity="0.24"/>
<circle cx="312" cy="556" r="1.3" fill="#1f1f1c" opacity="0.14"/>
<circle cx="564" cy="267" r="3.8" fill="#fffdf8" opacity="0.40"/>
<circle cx="214" cy="418" r="3.0" fill="#b7afa4" opacity="0.33"/>
<circle cx="697" cy="100" r="4.3" fill="#b7afa4" opacity="0.08"/>
<circle cx="413" cy="1" r="2.9" fill="#eee9de" opacity="0.29"/>
<circle cx="216" cy="170" r="4.6" fill="#b7afa4" opacity="0.16"/>
<circle cx="958" cy="385" r="2.7" fill="#ffffff" opacity="0.18"/>
<circle cx="576" cy="318" r="5.3" fill="#1f1f1c" opacity="0.38"/>
<circle cx="360" cy="322" r="1.6" fill="#fffdf8" opacity="0.20"/>
<circle cx="41" cy="512" r="5.1" fill="#b7afa4" opacity="0.25"/>
<circle cx="309" cy="43" r="1.9" fill="#fffdf8" opacity="0.39"/>
<circle cx="185" cy="584" r="3.5" fill="#fffdf8" opacity="0.39"/>
<circle cx="683" cy="462" r="4.0" fill="#eee9de" opacity="0.34"/>
<circle cx="703" cy="213" r="2.1" fill="#ffffff" opacity="0.31"/>
<circle cx="153" cy="213" r="5.5" fill="#fffdf8" opacity="0.34"/>
<circle cx="25" cy="387" r="3.5" fill="#b7afa4" opacity="0.22"/>
<circle cx="421" cy="361" r="5.4" fill="#1f1f1c" opacity="0.18"/>
<circle cx="20" cy="502" r="1.4" fill="#ffffff" opacity="0.08"/>
<circle cx="262" cy="436" r="2.4" fill="#eee9de" opacity="0.31"/>
<circle cx="171" cy="166" r="5.4" fill="#1f1f1c" opacity="0.21"/>
<circle cx="509" cy="324" r="5.3" fill="#fffdf8" opacity="0.10"/>
<circle cx="776" cy="302" r="3.4" fill="#eee9de" opacity="0.28"/>
<circle cx="852" cy="55" r="4.0" fill="#ffffff" opacity="0.23"/>
<circle cx="490" cy="464" r="4.3" fill="#ffffff" opacity="0.08"/>
<circle cx="917" cy="207" r="2.5" fill="#1f1f1c" opacity="0.19"/>
<circle cx="57" cy="437" r="4.2" fill="#ffffff" opacity="0.37"/>
<circle cx="84" cy="358" r="1.5" fill="#ffffff" opacity="0.31"/>
<circle cx="612" cy="524" r="1.6" fill="#fffdf8" opacity="0.26"/>
<circle cx="703" cy="536" r="5.3" fill="#ffffff" opacity="0.29"/>
<circle cx="649" cy="159" r="5.4" fill="#eee9de" opacity="0.42"/>
<circle cx="469" cy="17" r="5.3" fill="#ffffff" opacity="0.13"/>
<circle cx="825" cy="391" r="3.4" fill="#eee9de" opacity="0.19"/>
<circle cx="117" cy="231" r="3.0" fill="#ffffff" opacity="0.13"/>
<path d="M-24 56 C 343 -113, 505 225, 897 139" fill="none" stroke="#b7afa4" stroke-width="8.3" opacity="0.28" stroke-linecap="round"/>
<path d="M-1 266 C 486 98, 569 400, 999 333" fill="none" stroke="#b7afa4" stroke-width="2.2" opacity="0.28" stroke-linecap="round"/>
<path d="M51 19 C 438 -144, 550 188, 833 84" fill="none" stroke="#b7afa4" stroke-width="5.8" opacity="0.28" stroke-linecap="round"/>
<path d="M75 67 C 353 -35, 449 151, 749 76" fill="none" stroke="#b7afa4" stroke-width="6.0" opacity="0.28" stroke-linecap="round"/>
<path d="M-72 395 C 404 257, 556 521, 857 506" fill="none" stroke="#b7afa4" stroke-width="8.7" opacity="0.28" stroke-linecap="round"/>
<path d="M-51 292 C 384 155, 530 414, 722 230" fill="none" stroke="#b7afa4" stroke-width="2.9" opacity="0.28" stroke-linecap="round"/>
<path d="M-11 314 C 342 158, 463 408, 838 389" fill="none" stroke="#b7afa4" stroke-width="4.0" opacity="0.28" stroke-linecap="round"/>
<rect width="1000" height="620" filter="url(#noise)" opacity=".55"/>
</svg>