<svg xmlns="http://www.w3.org/2000/svg" viewBox="0 0 1000 620">
<defs>
<linearGradient id="g" x1="0" x2="1" y1="0" y2="1"><stop stop-color="#030303"/><stop offset=".55" stop-color="#10100f"/><stop offset="1" stop-color="#3b3933"/></linearGradient>
<filter id="noise"><feTurbulence type="fractalNoise" baseFrequency=".035 .09" numOctaves="5" seed="12"/><feColorMatrix type="saturate" values=".22"/><feBlend mode="multiply" in2="SourceGraphic"/></filter>
</defs>
<rect width="1000" height="620" fill="url(#g)"/>
<circle cx="922" cy="339" r="4.7" fill="#ffffff" opacity="0.29"/>
<circle cx="95" cy="413" r="4.8" fill="#030303" opacity="0.23"/>
<circle cx="503" cy="597" r="1.8" fill="#10100f" opacity="0.08"/>
<circle cx="271" cy="528" r="4.5" fill="#030303" opacity="0.22"/>
<circle cx="447" cy="423" r="2.4" fill="#10100f" opacity="0.29"/>
<circle cx="461" cy="325" r="2.5" fill="#030303" opacity="0.17"/>
<circle cx="959" cy="130" r="4.2" fill="#3b3933" opacity="0.34"/>
<circle cx="782" cy="336" r="2.4" fill="#030303" opacity="0.29"/>
<circle cx="854" cy="290" r="4.1" fill="#030303" opacity="0.36"/>
<circle cx="299" cy="207" r="5.6" fill="#1f1f1c" opacity="0.16"/>
<circle cx="570" cy="472" r="5.0" fill="#10100f" opacity="0.21"/>
<circle cx="675" cy="139" r="4.3" fill="#3b3933" opacity="0.31"/>
<circle cx="635" cy="37" r="1.5" fill="#1f1f1c" opacity="0.38"/>
<circle cx="736" cy="331" r="2.7" fill="#10100f" opacity="0.23"/>
<circle cx="784" cy="439" r="4.7" fill="#ffffff" opacity="0.14"/>
<circle cx="823" cy="585" r="5.6" fill="#030303" opacity="0.20"/>
<circle cx="702" cy="331" r="4.7" fill="#10100f" opacity="0.26"/>
<circle cx="879" cy="492" r="4.5" fill="#030303" opacity="0.27"/>
<circle cx="165" cy="260" r="5.0" fill="#030303" opacity="0.26"/>
<circle cx="615" cy="287" r="5.4" fill="#10100f" opacity="0.39"/>
<circle cx="346" cy="527" r="5.4" fill="#ffffff" opacity="0.38"/>
<circle cx="60" cy="419" r="1.7" fill="#030303" opacity="0.17"/>
<circle cx="200" cy="582" r="4.1" fill="#10100f" opacity="0.28"/>
<circle cx="624" cy="131" r="2.9" fill="#10100f" opacity="0.36"/>
<circle cx="891" cy="618" r="2.1" fill="#ffffff" opacity="0.10"/>
<circle cx="62" cy="307" r="1.8" fill="#ffffff" opacity="0.32"/>
<circle cx="780" cy="265" r="1.4" fill="#10100f" opacity="0.28"/>
<circle cx="374" cy="115" r="3.7" fill="#1f1f1c" opacity="0.08"/>
<circle cx="543" cy="187" r="5.2" fill="#10100f" opacity="0.14"/>
<circle cx="58" cy="510" r="3.0" fill="#1f1f1c" opacity="0.23"/>
<circle cx="400" cy="214" r="2.6" fill="#1f1f1c" opacity="0.41"/>
<circle cx="535" cy="491" r="4.8" fill="#10100f" opacity="0.10"/>
<circle cx="667" cy="325" r="5.4" fill="#3b3933" opacity="0.20"/>
<circle cx="389" cy="605" r="1.4" fill="#ffffff" opacity="0.32"/>
<circle cx="133" cy="62" r="3.2" fill="#1f1f1c" opacity="0.08"/>
<circle cx="220" cy="166" r="5.7" fill="#1f1f1c" opacity="0.16"/>
<circle cx="217" cy="550" r="4.9" fill="#ffffff" opacity="0.27"/>
<circle cx="498" cy="67" r="5.4" fill="#ffffff" opacity="0.13"/>
<circle cx="757" cy="439" r="1.7" fill="#ffffff" opacity="0.14"/>
<circle cx="621" cy="23" r="4.1" fill="#10100f" opacity="0.41"/>
<circle cx="861" cy="351" r="4.4" fill="#10100f" opacity="0.25"/>
<circle cx="533" cy="603" r="4.8" fill="#1f1f1c" opacity="0.34"/>
<circle cx="692" cy="128" r="3.3" fill="#1f1f1c" opacity="0.13"/>
<circle cx="473" cy="354" r="1.5" fill="#1f1f1c" opacity="0.17"/>
<circle cx="290" cy="332" r="2.8" fill="#ffffff" opacity="0.20"/>
<circle cx="778" cy="207" r="1.6" fill="#ffffff" opacity="0.31"/>
<circle cx="699" cy="47" r="3.5" fill="#030303" opacity="0.30"/>
<circle cx="942" cy="238" r="3.3" fill="#1f1f1c" opacity="0.09"/>
<circle cx="516" cy="602" r="5.2" fill="#030303" opacity="0.21"/>
<circle cx="490" cy="96" r="5.1" fill="#3b3933" opacity="0.17"/>
<circle cx="905" cy="251" r="2.0" fill="#030303" opacity="0.42"/>
<circle cx="625" cy="270" r="1.6" fill="#10100f" opacity="0.24"/>
<circle cx="879" cy="43" r="5.1" fill="#3b3933" opacity="0.20"/>
<circle cx="142" cy="411" r="2.6" fill="#ffffff" opacity="0.31"/>
<circle cx="719" cy="535" r="4.5" fill="#1f1f1c" opacity="0.30"/>
<circle cx="779" cy="393" r="3.5" fill="#ffffff" opacity="0.18"/>
<circle cx="645" cy="519" r="2.1" fill="#ffffff" opacity="0.34"/>
<circle cx="172" cy="117" r="2.5" fill="#ffffff" opacity="0.32"/>
<circle cx="879" cy="321" r="2.1" fill="#ffffff" opacity="0.20"/>
<circle cx="417" cy="430" r="2.4" fill="#1f1f1c" opacity="0.42"/>
<circle cx="112" cy="56" r="4.9" fill="#ffffff" opacity="0.32"/>
<circle cx="520" cy="357" r="5.4" fill="#ffffff" opacity="0.36"/>
<circle cx="708" cy="583" r="4.2" fill="#3b3933" opacity="0.26"/>
<circle cx="347" cy="6" r="3.2" fill="#ffffff" opacity="0.14"/>
<circle cx="302" cy="579" r="5.4" fill="#3b3933" opacity="0.17"/>
<circle cx="986" cy="99" r="1.7" fill="#3b3933" opacity="0.21"/>
<circle cx="929" cy="221" r="5.3" fill="#3b3933" opacity="0.38"/>
<circle cx="667" cy="589" r="3.7" fill="#10100f" opacity="0.36"/>
<circle cx="137" cy="113" r="2.5" fill="#030303" opacity="0.24"/>
<circle cx="780" cy="576" r="4.4" fill="#ffffff" opacity="0.18"/>
<circle cx="17" cy="323" r="2.8" fill="#3b3933" opacity="0.12"/>
<circle cx="835" cy="70" r="4.5" fill="#3b3933" opacity="0.11"/>
<circle cx="978" cy="97" r="1.7" fill="#3b3933" opacity="0.27"/>
<circle cx="295" cy="564" r="4.6" fill="#030303" opacity="0.20"/>
<circle cx="729" cy="28" r="3.8" fill="#030303" opacity="0.36"/>
<circle cx="139" cy="484" r="1.6" fill="#030303" opacity="0.28"/>
<circle cx="402" cy="83" r="4.0" fill="#10100f" opacity="0.33"/>
<circle cx="531" cy="180" r="1.9" fill="#10100f" opacity="0.38"/>
<circle cx="359" cy="273" r="1.5" fill="#10100f" opacity="0.33"/>
<circle cx="901" cy="31" r="5.0" fill="#1f1f1c" opacity="0.08"/>
<circle cx="846" cy="61" r="4.9" fill="#1f1f1c" opacity="0.12"/>
<circle cx="187" cy="456" r="5.6" fill="#030303" opacity="0.35"/>
<circle cx="519" cy="142" r="5.7" fill="#3b3933" opacity="0.26"/>
<circle cx="126" cy="284" r="4.2" fill="#030303" opacity="0.31"/>
<circle cx="993" cy="62" r="5.6" fill="#030303" opacity="0.18"/>
<circle cx="109" cy="515" r="5.3" fill="#10100f" opacity="0.30"/>
<circle cx="261" cy="56" r="2.2" fill="#10100f" opacity="0.32"/>
<circle cx="26" cy="104" r="4.6" fill="#1f1f1c" opacity="0.11"/>
<circle cx="350" cy="446" r="5.0" fill="#1f1f1c" opacity="0.33"/>
<circle cx="282" cy="230" r="1.5" fill="#ffffff" opacity="0.36"/>
<circle cx="288" cy="255" r="2.7" fill="#ffffff" opacity="0.16"/>
<circle cx="309" cy="43" r="3.7" fill="#ffffff" opacity="0.17"/>
<circle cx="260" cy="569" r="2.1" fill="#030303" opacity="0.24"/>
<circle cx="304" cy="346" r="5.5" fill="#10100f" opacity="0.19"/>
<circle cx="317" cy="581" r="2.9" fill="#3b3933" opacity="0.27"/>
<circle cx="18" cy="140" r="3.8" fill="#030303" opacity="0.18"/>
<circle cx="978" cy="494" r="3.1" fill="#ffffff" opacity="0.42"/>
<circle cx="302" cy="252" r="3.2" fill="#10100f" opacity="0.27"/>
<circle cx="968" cy="574" r="5.1" fill="#030303" opacity="0.15"/>
<circle cx="13" cy="59" r="2.1" fill="#ffffff" opacity="0.28"/>
<circle cx="18" cy="433" r="2.5" fill="#ffffff" opacity="0.14"/>
<circle cx="806" cy="480" r="4.2" fill="#030303" opacity="0.14"/>
<circle cx="36" cy="233" r="5.7" fill="#030303" opacity="0.37"/>
<circle cx="275" cy="450" r="4.5" fill="#1f1f1c" opacity="0.40"/>
<circle cx="198" cy="495" r="4.0" fill="#1f1f1c" opacity="0.40"/>
<circle cx="588" cy="488" r="4.0" fill="#030303" opacity="0.18"/>
<circle cx="436" cy="223" r="1.7" fill="#3b3933" opacity="0.39"/>
<circle cx="86" cy="574" r="2.0" fill="#1f1f1c" opacity="0.12"/>
<circle cx="526" cy="460" r="3.4" fill="#ffffff" opacity="0.34"/>
<circle cx="661" cy="601" r="5.3" fill="#030303" opacity="0.15"/>
<circle cx="88" cy="117" r="3.9" fill="#030303" opacity="0.38"/>
<circle cx="248" cy="474" r="1.9" fill="#1f1f1c" opacity="0.39"/>
<circle cx="50" cy="161" r="3.7" fill="#030303" opacity="0.15"/>
<circle cx="30" cy="102" r="4.4" fill="#3b3933" opacity="0.30"/>
<circle cx="408" cy="587" r="1.7" fill="#10100f" opacity="0.20"/>
<circle cx="80" cy="476" r="3.1" fill="#10100f" opacity="0.41"/>
<circle cx="73" cy="89" r="2.8" fill="#1f1f1c" opacity="0.31"/>
<circle cx="859" cy="610" r="4.9" fill="#10100f" opacity="0.19"/>
<circle cx="720" cy="562" r="3.3" fill="#10100f" opacity="0.32"/>
<circle cx="877" cy="402" r="5.0" fill="#3b3933" opacity="0.30"/>
<circle cx="696" cy="6" r="2.4" fill="#030303" opacity="0.33"/>
<circle cx="317" cy="557" r="4.3" fill="#10100f" opacity="0.35"/>
<circle cx="513" cy="261" r="4.5" fill="#3b3933" opacity="0.27"/>
<circle cx="273" cy="381" r="3.8" fill="#ffffff" opacity="0.40"/>
<circle cx="270" cy="349" r="2.3" fill="#3b3933" opacity="0.19"/>
<circle cx="282" cy="179" r="3.9" fill="#1f1f1c" opacity="0.21"/>
<circle cx="237" cy="153" r="3.4" fill="#10100f" opacity="0.22"/>
<circle cx="324" cy="448" r="3.5" fill="#3b3933" opacity="0.10"/>
<circle cx="868" cy="3" r="3.6" fill="#1f1f1c" opacity="0.21"/>
<circle cx="591" cy="600" r="2.5" fill="#3b3933" opacity="0.29"/>
<circle cx="438" cy="464" r="4.9" fill="#ffffff" opacity="0.20"/>
<circle cx="745" cy="350" r="2.6" fill="#1f1f1c" opacity="0.40"/>
<circle cx="159" cy="338" r="2.7" fill="#030303" opacity="0.17"/>
<circle cx="482" cy="380" r="2.4" fill="#030303" opacity="0.14"/>
<circle cx="564" cy="52" r="3.3" fill="#3b3933" opacity="0.18"/>
<circle cx="445" cy="358" r="5.3" fill="#030303" opacity="0.14"/>
<circle cx="226" cy="436" r="3.3" fill="#10100f" opacity="0.17"/>
<circle cx="493" cy="209" r="3.0" fill="#030303" opacity="0.36"/>
<circle cx="860" cy="309" r="3.2" fill="#030303" opacity="0.09"/>
<circle cx="642" cy="260" r="5.6" fill="#3b3933" opacity="0.23"/>
<circle cx="16" cy="274" r="1.7" fill="#3b3933" opacity="0.33"/>
<circle cx="841" cy="21" r="2.4" fill="#ffffff" opacity="0.12"/>
<circle cx="840" cy="222" r="3.6" fill="#1f1f1c" opacity="0.38"/>
<circle cx="906" cy="340" r="2.5" fill="#10100f" opacity="0.27"/>
<circle cx="717" cy="92" r="3.3" fill="#030303" opacity="0.12"/>
<circle cx="116" cy="91" r="4.4" fill="#1f1f1c" opacity="0.24"/>
<circle cx="350" cy="560" r="1.3" fill="#10100f" opacity="0.21"/>
<circle cx="471" cy="119" r="4.2" fill="#030303" opacity="0.22"/>
<circle cx="572" cy="91" r="1.4" fill="#ffffff" opacity="0.31"/>
<circle cx="76" cy="102" r="4.1" fill="#10100f" opacity="0.09"/>
<circle cx="660" cy="393" r="4.0" fill="#030303" opacity="0.23"/>
<circle cx="840" cy="341" r="3.7" fill="#030303" opacity="0.26"/>
<circle cx="120" cy="217" r="5.6" fill="#1f1f1c" opacity="0.10"/>
<circle cx="681" cy="5" r="2.0" fill="#030303" opacity="0.08"/>
<circle cx="354" cy="248" r="1.7" fill="#ffffff" opacity="0.19"/>
<circle cx="480" cy="271" r="2.4" fill="#3b3933" opacity="0.19"/>
<circle cx="221" cy="507" r="4.0" fill="#3b3933" opacity="0.29"/>
<circle cx="953" cy="33" r="4.8" fill="#3b3933" opacity="0.28"/>
<circle cx="761" cy="538" r="2.2" fill="#10100f" opacity="0.20"/>
<circle cx="996" cy="163" r="2.3" fill="#1f1f1c" opacity="0.32"/>
<circle cx="573" cy="19" r="3.1" fill="#ffffff" opacity="0.11"/>
<circle cx="574" cy="180" r="1.8" fill="#10100f" opacity="0.24"/>
<circle cx="833" cy="513" r="4.1" fill="#1f1f1c" opacity="0.41"/>
<circle cx="414" cy="193" r="5.8" fill="#10100f" opacity="0.35"/>
<circle cx="445" cy="320" r="1.9" fill="#1f1f1c" opacity="0.31"/>
<circle cx="242" cy="180" r="1.9" fill="#10100f" opacity="0.30"/>
<circle cx="474" cy="565" r="1.7" fill="#10100f" opacity="0.19"/>
<circle cx="642" cy="180" r="3.2" fill="#10100f" opacity="0.17"/>
<circle cx="595" cy="281" r="4.8" fill="#1f1f1c" opacity="0.24"/>
<circle cx="302" cy="592" r="2.3" fill="#3b3933" opacity="0.32"/>
<circle cx="440" cy="417" r="4.8" fill="#3b3933" opacity="0.10"/>
<circle cx="471" cy="431" r="3.4" fill="#10100f" opacity="0.22"/>
<circle cx="659" cy="331" r="5.1" fill="#1f1f1c" opacity="0.23"/>
<circle cx="999" cy="220" r="1.5" fill="#1f1f1c" opacity="0.25"/>
<circle cx="841" cy="240" r="2.4" fill="#030303" opacity="0.39"/>
<circle cx="497" cy="77" r="3.4" fill="#030303" opacity="0.41"/>
<circle cx="789" cy="459" r="4.5" fill="#030303" opacity="0.37"/>
<circle cx="928" cy="588" r="3.0" fill="#3b3933" opacity="0.12"/>
<circle cx="12" cy="19" r="2.2" fill="#ffffff" opacity="0.19"/>
<circle cx="43" cy="401" r="2.9" fill="#3b3933" opacity="0.16"/>
<circle cx="408" cy="252" r="4.6" fill="#3b3933" opacity="0.30"/>
<circle cx="904" cy="412" r="1.5" fill="#10100f" opacity="0.27"/>
<circle cx="348" cy="197" r="3.2" fill="#10100f" opacity="0.39"/>
<circle cx="559" cy="515" r="1.7" fill="#ffffff" opacity="0.32"/>
<circle cx="151" cy="224" r="3.9" fill="#1f1f1c" opacity="0.10"/>
<circle cx="748" cy="322" r="4.0" fill="#1f1f1c" opacity="0.20"/>
<circle cx="11" cy="5" r="2.6" fill="#3b3933" opacity="0.14"/>
<circle cx="172" cy="381" r="5.4" fill="#ffffff" opacity="0.36"/>
<circle cx="19" cy="358" r="3.4" fill="#ffffff" opacity="0.25"/>
<circle cx="894" cy="356" r="2.3" fill="#ffffff" opacity="0.38"/>
<circle cx="298" cy="1" r="3.9" fill="#1f1f1c" opacity="0.35"/>
<circle cx="280" cy="424" r="3.1" fill="#3b3933" opacity="0.34"/>
<circle cx="259" cy="169" r="2.1" fill="#1f1f1c" opacity="0.42"/>
<circle cx="971" cy="420" r="4.4" fill="#10100f" opacity="0.33"/>
<circle cx="795" cy="161" r="4.6" fill="#10100f" opacity="0.12"/>
<circle cx="304" cy="39" r="4.9" fill="#10100f" opacity="0.31"/>
<circle cx="243" cy="355" r="3.2" fill="#10100f" opacity="0.39"/>
<circle cx="278" cy="323" r="4.7" fill="#030303" opacity="0.17"/>
<circle cx="357" cy="410" r="3.7" fill="#3b3933" opacity="0.34"/>
<circle cx="160" cy="180" r="3.6" fill="#1f1f1c" opacity="0.24"/>
<circle cx="998" cy="328" r="4.8" fill="#1f1f1c" opacity="0.10"/>
<circle cx="527" cy="514" r="3.4" fill="#10100f" opacity="0.27"/>
<circle cx="450" cy="176" r="1.5" fill="#030303" opacity="0.24"/>
<circle cx="64" cy="306" r="1.9" fill="#3b3933" opacity="0.29"/>
<circle cx="22" cy="255" r="2.7" fill="#3b3933" opacity="0.28"/>
<circle cx="53" cy="464" r="4.0" fill="#1f1f1c" opacity="0.19"/>
<circle cx="124" cy="240" r="2.6" fill="#030303" opacity="0.34"/>
<circle cx="299" cy="266" r="1.6" fill="#1f1f1c" opacity="0.28"/>
<circle cx="461" cy="371" r="1.6" fill="#10100f" opacity="0.24"/>
<circle cx="652" cy="118" r="1.4" fill="#030303" opacity="0.32"/>
<circle cx="664" cy="212" r="3.3" fill="#030303" opacity="0.26"/>
<circle cx="909" cy="442" r="5.6" fill="#10100f" opacity="0.39"/>
<circle cx="526" cy="408" r="3.8" fill="#ffffff" opacity="0.32"/>
<circle cx="107" cy="39" r="4.7" fill="#1f1f1c" opacity="0.39"/>
<circle cx="310" cy="586" r="2.9" fill="#3b3933" opacity="0.31"/>
<circle cx="243" cy="285" r="4.7" fill="#1f1f1c" opacity="0.18"/>
<circle cx="381" cy="506" r="2.1" fill="#10100f" opacity="0.11"/>
<circle cx="96" cy="69" r="1.4" fill="#1f1f1c" opacity="0.36"/>
<circle cx="227" cy="191" r="2.0" fill="#030303" opacity="0.23"/>
<circle cx="422" cy="87" r="2.2" fill="#1f1f1c" opacity="0.13"/>
<path d="M29 29 C 496 -133, 612 93, 1082 47" fill="none" stroke="#3b3933" stroke-width="4.6" opacity="0.28" stroke-linecap="round"/>
<path d="M-63 115 C 412 -46, 499 208, 938 157" fill="none" stroke="#3b3933" stroke-width="4.3" opacity="0.28" stroke-linecap="round"/>
<path d="M-64 557 C 433 380, 566 695, 700 639" fill="none" stroke="#3b3933" stroke-width="8.7" opacity="0.28" stroke-linecap="round"/>
<path d="M45 370 C 451 231, 562 479, 836 394" fill="none" stroke="#3b3933" stroke-width="5.4" opacity="0.28" stroke-linecap="round"/>
<path d="M-15 354 C 351 261, 435 486, 805 419" fill="none" stroke="#3b3933" stroke-width="3.0" opacity="0.28" stroke-linecap="round"/>
<rect width="1000" height="620" filter="url(#noise)" opacity=".55"/>
</svg>