<svg xmlns="http://www.w3.org/2000/svg" viewBox="0 0 1000 620">
<defs>
<linearGradient id="g" x1="0" x2="1" y1="0" y2="1"><stop stop-color="#2c2d2b"/><stop offset=".55" stop-color="#777872"/><stop offset="1" stop-color="#c6c6bd"/></linearGradient>
<filter id="noise"><feTurbulence type="fractalNoise" baseFrequency=".035 .09" numOctaves="5" seed="12"/><feColorMatrix type="saturate" values=".22"/><feBlend mode="multiply" in2="SourceGraphic"/></filter>
</defs>
<rect width="1000" height="620" fill="url(#g)"/>
<circle cx="80" cy="373" r="1.9" fill="#ffffff" opacity="0.22"/>
<circle cx="558" cy="567" r="3.9" fill="#ffffff" opacity="0.38"/>
<circle cx="978" cy="382" r="3.5" fill="#ffffff" opacity="0.11"/>
<circle cx="719" cy="266" r="5.6" fill="#1f1f1c" opacity="0.23"/>
<circle cx="347" cy="496" r="3.1" fill="#2c2d2b" opacity="0.28"/>
<circle cx="300" cy="67" r="1.7" fill="#1f1f1c" opacity="0.09"/>
<circle cx="191" cy="221" r="3.7" fill="#ffffff" opacity="0.38"/>
<circle cx="436" cy="443" r="5.1" fill="#777872" opacity="0.28"/>
<circle cx="388" cy="176" r="3.1" fill="#ffffff" opacity="0.16"/>
<circle cx="71" cy="615" r="1.2" fill="#c6c6bd" opacity="0.19"/>
<circle cx="237" cy="286" r="1.6" fill="#c6c6bd" opacity="0.32"/>
<circle cx="875" cy="618" r="1.5" fill="#2c2d2b" opacity="0.13"/>
<circle cx="778" cy="281" r="2.4" fill="#777872" opacity="0.19"/>
<circle cx="515" cy="459" r="4.4" fill="#c6c6bd" opacity="0.32"/>
<circle cx="569" cy="113" r="2.7" fill="#1f1f1c" opacity="0.31"/>
<circle cx="823" cy="356" r="2.8" fill="#1f1f1c" opacity="0.27"/>
<circle cx="478" cy="47" r="2.6" fill="#2c2d2b" opacity="0.15"/>
<circle cx="335" cy="478" r="5.3" fill="#c6c6bd" opacity="0.33"/>
<circle cx="959" cy="385" r="1.3" fill="#1f1f1c" opacity="0.21"/>
<circle cx="357" cy="488" r="2.5" fill="#1f1f1c" opacity="0.23"/>
<circle cx="599" cy="259" r="5.6" fill="#777872" opacity="0.42"/>
<circle cx="380" cy="475" r="5.4" fill="#ffffff" opacity="0.34"/>
<circle cx="139" cy="356" r="3.3" fill="#1f1f1c" opacity="0.14"/>
<circle cx="143" cy="387" r="4.4" fill="#2c2d2b" opacity="0.11"/>
<circle cx="870" cy="382" r="4.6" fill="#c6c6bd" opacity="0.23"/>
<circle cx="342" cy="533" r="1.9" fill="#c6c6bd" opacity="0.20"/>
<circle cx="545" cy="196" r="4.2" fill="#c6c6bd" opacity="0.32"/>
<circle cx="330" cy="478" r="5.2" fill="#c6c6bd" opacity="0.23"/>
<circle cx="547" cy="551" r="4.8" fill="#ffffff" opacity="0.20"/>
<circle cx="513" cy="474" r="2.5" fill="#c6c6bd" opacity="0.41"/>
<circle cx="425" cy="205" r="4.0" fill="#2c2d2b" opacity="0.40"/>
<circle cx="142" cy="31" r="1.5" fill="#1f1f1c" opacity="0.25"/>
<circle cx="607" cy="110" r="3.6" fill="#1f1f1c" opacity="0.29"/>
<circle cx="991" cy="595" r="4.2" fill="#1f1f1c" opacity="0.42"/>
<circle cx="708" cy="606" r="2.2" fill="#c6c6bd" opacity="0.26"/>
<circle cx="679" cy="454" r="3.8" fill="#2c2d2b" opacity="0.14"/>
<circle cx="619" cy="74" r="3.2" fill="#777872" opacity="0.35"/>
<circle cx="511" cy="95" r="1.3" fill="#ffffff" opacity="0.36"/>
<circle cx="905" cy="492" r="5.2" fill="#1f1f1c" opacity="0.41"/>
<circle cx="840" cy="496" r="1.2" fill="#c6c6bd" opacity="0.33"/>
<circle cx="284" cy="8" r="2.6" fill="#1f1f1c" opacity="0.25"/>
<circle cx="51" cy="527" r="2.4" fill="#1f1f1c" opacity="0.20"/>
<circle cx="159" cy="247" r="1.7" fill="#c6c6bd" opacity="0.14"/>
<circle cx="543" cy="596" r="2.6" fill="#c6c6bd" opacity="0.32"/>
<circle cx="275" cy="137" r="2.6" fill="#777872" opacity="0.35"/>
<circle cx="311" cy="607" r="2.3" fill="#ffffff" opacity="0.13"/>
<circle cx="103" cy="191" r="5.0" fill="#ffffff" opacity="0.15"/>
<circle cx="446" cy="475" r="1.2" fill="#1f1f1c" opacity="0.34"/>
<circle cx="442" cy="550" r="5.1" fill="#1f1f1c" opacity="0.31"/>
<circle cx="747" cy="500" r="2.1" fill="#ffffff" opacity="0.21"/>
<circle cx="970" cy="28" r="4.8" fill="#777872" opacity="0.37"/>
<circle cx="472" cy="229" r="3.2" fill="#ffffff" opacity="0.23"/>
<circle cx="312" cy="368" r="2.7" fill="#777872" opacity="0.09"/>
<circle cx="390" cy="572" r="3.4" fill="#ffffff" opacity="0.26"/>
<circle cx="527" cy="249" r="4.3" fill="#2c2d2b" opacity="0.26"/>
<circle cx="179" cy="467" r="2.4" fill="#1f1f1c" opacity="0.19"/>
<circle cx="458" cy="570" r="3.1" fill="#ffffff" opacity="0.35"/>
<circle cx="715" cy="488" r="2.7" fill="#ffffff" opacity="0.21"/>
<circle cx="435" cy="613" r="4.9" fill="#ffffff" opacity="0.14"/>
<circle cx="989" cy="489" r="2.7" fill="#c6c6bd" opacity="0.39"/>
<circle cx="507" cy="457" r="3.5" fill="#ffffff" opacity="0.13"/>
<circle cx="892" cy="508" r="3.5" fill="#2c2d2b" opacity="0.19"/>
<circle cx="790" cy="230" r="3.4" fill="#2c2d2b" opacity="0.13"/>
<circle cx="24" cy="418" r="3.9" fill="#2c2d2b" opacity="0.10"/>
<circle cx="707" cy="61" r="2.6" fill="#ffffff" opacity="0.33"/>
<circle cx="907" cy="81" r="2.4" fill="#2c2d2b" opacity="0.42"/>
<circle cx="166" cy="348" r="1.3" fill="#c6c6bd" opacity="0.12"/>
<circle cx="282" cy="502" r="5.6" fill="#2c2d2b" opacity="0.10"/>
<circle cx="700" cy="408" r="3.2" fill="#c6c6bd" opacity="0.31"/>
<circle cx="560" cy="615" r="3.1" fill="#c6c6bd" opacity="0.41"/>
<circle cx="243" cy="446" r="2.8" fill="#2c2d2b" opacity="0.34"/>
<circle cx="676" cy="286" r="1.2" fill="#1f1f1c" opacity="0.30"/>
<circle cx="157" cy="255" r="1.4" fill="#1f1f1c" opacity="0.31"/>
<circle cx="466" cy="328" r="4.2" fill="#777872" opacity="0.36"/>
<circle cx="846" cy="176" r="2.7" fill="#1f1f1c" opacity="0.22"/>
<circle cx="780" cy="199" r="5.7" fill="#777872" opacity="0.09"/>
<circle cx="71" cy="75" r="1.5" fill="#777872" opacity="0.41"/>
<circle cx="420" cy="148" r="4.6" fill="#1f1f1c" opacity="0.27"/>
<circle cx="682" cy="609" r="2.8" fill="#ffffff" opacity="0.11"/>
<circle cx="653" cy="192" r="1.8" fill="#c6c6bd" opacity="0.10"/>
<circle cx="355" cy="619" r="5.3" fill="#ffffff" opacity="0.27"/>
<circle cx="715" cy="592" r="5.3" fill="#ffffff" opacity="0.20"/>
<circle cx="309" cy="135" r="4.2" fill="#1f1f1c" opacity="0.30"/>
<circle cx="790" cy="500" r="1.5" fill="#2c2d2b" opacity="0.17"/>
<circle cx="189" cy="350" r="1.2" fill="#777872" opacity="0.40"/>
<circle cx="775" cy="336" r="4.5" fill="#c6c6bd" opacity="0.21"/>
<circle cx="893" cy="460" r="3.1" fill="#c6c6bd" opacity="0.20"/>
<circle cx="831" cy="247" r="2.2" fill="#c6c6bd" opacity="0.32"/>
<circle cx="3" cy="220" r="5.8" fill="#777872" opacity="0.21"/>
<circle cx="654" cy="614" r="2.8" fill="#1f1f1c" opacity="0.21"/>
<circle cx="610" cy="601" r="1.4" fill="#777872" opacity="0.21"/>
<circle cx="456" cy="88" r="4.7" fill="#1f1f1c" opacity="0.08"/>
<circle cx="687" cy="52" r="4.2" fill="#777872" opacity="0.27"/>
<circle cx="460" cy="608" r="4.2" fill="#c6c6bd" opacity="0.33"/>
<circle cx="780" cy="371" r="5.4" fill="#ffffff" opacity="0.09"/>
<circle cx="676" cy="361" r="5.0" fill="#ffffff" opacity="0.41"/>
<circle cx="905" cy="357" r="4.1" fill="#2c2d2b" opacity="0.27"/>
<circle cx="978" cy="386" r="5.3" fill="#1f1f1c" opacity="0.25"/>
<circle cx="289" cy="55" r="5.0" fill="#c6c6bd" opacity="0.17"/>
<circle cx="785" cy="508" r="2.4" fill="#1f1f1c" opacity="0.18"/>
<circle cx="35" cy="58" r="4.7" fill="#777872" opacity="0.25"/>
<circle cx="907" cy="359" r="5.4" fill="#ffffff" opacity="0.26"/>
<circle cx="83" cy="378" r="4.2" fill="#2c2d2b" opacity="0.30"/>
<circle cx="836" cy="454" r="4.3" fill="#c6c6bd" opacity="0.12"/>
<circle cx="990" cy="159" r="4.8" fill="#2c2d2b" opacity="0.19"/>
<circle cx="374" cy="147" r="3.7" fill="#2c2d2b" opacity="0.15"/>
<circle cx="788" cy="96" r="2.8" fill="#c6c6bd" opacity="0.15"/>
<circle cx="576" cy="584" r="3.6" fill="#777872" opacity="0.17"/>
<circle cx="948" cy="166" r="3.0" fill="#777872" opacity="0.37"/>
<circle cx="911" cy="407" r="3.4" fill="#777872" opacity="0.40"/>
<circle cx="892" cy="192" r="5.2" fill="#c6c6bd" opacity="0.39"/>
<circle cx="120" cy="412" r="4.9" fill="#2c2d2b" opacity="0.18"/>
<circle cx="819" cy="67" r="5.6" fill="#2c2d2b" opacity="0.40"/>
<circle cx="558" cy="204" r="5.0" fill="#1f1f1c" opacity="0.18"/>
<circle cx="904" cy="512" r="3.5" fill="#777872" opacity="0.14"/>
<circle cx="189" cy="250" r="1.8" fill="#2c2d2b" opacity="0.36"/>
<circle cx="765" cy="475" r="1.6" fill="#c6c6bd" opacity="0.29"/>
<circle cx="234" cy="10" r="3.2" fill="#ffffff" opacity="0.13"/>
<circle cx="581" cy="457" r="5.5" fill="#2c2d2b" opacity="0.10"/>
<circle cx="198" cy="385" r="5.6" fill="#2c2d2b" opacity="0.10"/>
<circle cx="125" cy="144" r="2.8" fill="#2c2d2b" opacity="0.39"/>
<circle cx="134" cy="493" r="2.2" fill="#2c2d2b" opacity="0.38"/>
<circle cx="980" cy="130" r="3.9" fill="#1f1f1c" opacity="0.09"/>
<circle cx="584" cy="408" r="2.2" fill="#1f1f1c" opacity="0.35"/>
<circle cx="953" cy="532" r="4.8" fill="#ffffff" opacity="0.23"/>
<circle cx="747" cy="565" r="1.7" fill="#2c2d2b" opacity="0.13"/>
<circle cx="551" cy="534" r="2.6" fill="#ffffff" opacity="0.27"/>
<circle cx="784" cy="213" r="1.7" fill="#c6c6bd" opacity="0.40"/>
<circle cx="794" cy="416" r="5.3" fill="#777872" opacity="0.33"/>
<circle cx="746" cy="36" r="2.2" fill="#777872" opacity="0.35"/>
<circle cx="153" cy="66" r="3.3" fill="#1f1f1c" opacity="0.36"/>
<circle cx="736" cy="473" r="5.5" fill="#2c2d2b" opacity="0.14"/>
<circle cx="380" cy="254" r="1.2" fill="#2c2d2b" opacity="0.39"/>
<circle cx="35" cy="445" r="4.9" fill="#2c2d2b" opacity="0.09"/>
<circle cx="744" cy="536" r="5.3" fill="#1f1f1c" opacity="0.41"/>
<circle cx="168" cy="349" r="2.7" fill="#c6c6bd" opacity="0.39"/>
<circle cx="653" cy="315" r="1.8" fill="#2c2d2b" opacity="0.32"/>
<circle cx="355" cy="453" r="5.1" fill="#ffffff" opacity="0.09"/>
<circle cx="353" cy="430" r="5.0" fill="#2c2d2b" opacity="0.37"/>
<circle cx="625" cy="118" r="3.6" fill="#2c2d2b" opacity="0.18"/>
<circle cx="787" cy="176" r="4.0" fill="#ffffff" opacity="0.22"/>
<circle cx="431" cy="123" r="4.8" fill="#ffffff" opacity="0.26"/>
<circle cx="866" cy="133" r="5.7" fill="#ffffff" opacity="0.41"/>
<circle cx="844" cy="384" r="1.8" fill="#1f1f1c" opacity="0.37"/>
<circle cx="222" cy="501" r="5.4" fill="#2c2d2b" opacity="0.23"/>
<circle cx="624" cy="554" r="1.4" fill="#2c2d2b" opacity="0.24"/>
<circle cx="865" cy="536" r="4.9" fill="#777872" opacity="0.32"/>
<circle cx="871" cy="589" r="2.2" fill="#ffffff" opacity="0.39"/>
<circle cx="714" cy="421" r="5.0" fill="#2c2d2b" opacity="0.37"/>
<circle cx="681" cy="69" r="5.0" fill="#2c2d2b" opacity="0.35"/>
<circle cx="261" cy="334" r="3.2" fill="#777872" opacity="0.15"/>
<circle cx="711" cy="616" r="3.5" fill="#ffffff" opacity="0.12"/>
<circle cx="495" cy="589" r="5.2" fill="#c6c6bd" opacity="0.11"/>
<circle cx="437" cy="115" r="5.7" fill="#ffffff" opacity="0.16"/>
<circle cx="133" cy="222" r="4.3" fill="#777872" opacity="0.16"/>
<circle cx="414" cy="124" r="4.7" fill="#ffffff" opacity="0.32"/>
<circle cx="648" cy="113" r="3.2" fill="#2c2d2b" opacity="0.21"/>
<circle cx="123" cy="53" r="2.3" fill="#2c2d2b" opacity="0.11"/>
<circle cx="103" cy="587" r="2.5" fill="#777872" opacity="0.09"/>
<circle cx="262" cy="215" r="2.7" fill="#c6c6bd" opacity="0.23"/>
<circle cx="779" cy="282" r="3.4" fill="#2c2d2b" opacity="0.23"/>
<circle cx="223" cy="133" r="3.1" fill="#2c2d2b" opacity="0.41"/>
<circle cx="877" cy="282" r="2.3" fill="#1f1f1c" opacity="0.20"/>
<circle cx="325" cy="63" r="2.9" fill="#ffffff" opacity="0.11"/>
<circle cx="651" cy="84" r="5.2" fill="#ffffff" opacity="0.38"/>
<circle cx="820" cy="523" r="4.9" fill="#1f1f1c" opacity="0.24"/>
<circle cx="319" cy="470" r="1.5" fill="#c6c6bd" opacity="0.33"/>
<circle cx="765" cy="339" r="3.4" fill="#2c2d2b" opacity="0.12"/>
<circle cx="190" cy="612" r="5.5" fill="#ffffff" opacity="0.30"/>
<circle cx="865" cy="421" r="1.4" fill="#ffffff" opacity="0.20"/>
<circle cx="31" cy="426" r="5.7" fill="#ffffff" opacity="0.23"/>
<circle cx="126" cy="299" r="1.4" fill="#2c2d2b" opacity="0.33"/>
<circle cx="392" cy="103" r="2.1" fill="#777872" opacity="0.34"/>
<circle cx="600" cy="284" r="3.6" fill="#1f1f1c" opacity="0.37"/>
<circle cx="121" cy="561" r="4.6" fill="#ffffff" opacity="0.39"/>
<circle cx="903" cy="480" r="3.8" fill="#2c2d2b" opacity="0.34"/>
<circle cx="553" cy="445" r="3.9" fill="#777872" opacity="0.15"/>
<circle cx="362" cy="526" r="2.6" fill="#1f1f1c" opacity="0.31"/>
<circle cx="659" cy="595" r="3.8" fill="#c6c6bd" opacity="0.35"/>
<circle cx="487" cy="230" r="3.6" fill="#1f1f1c" opacity="0.34"/>
<circle cx="859" cy="213" r="3.7" fill="#2c2d2b" opacity="0.08"/>
<circle cx="850" cy="276" r="4.2" fill="#c6c6bd" opacity="0.40"/>
<circle cx="74" cy="468" r="3.8" fill="#ffffff" opacity="0.23"/>
<circle cx="480" cy="225" r="4.0" fill="#2c2d2b" opacity="0.28"/>
<circle cx="250" cy="165" r="3.2" fill="#2c2d2b" opacity="0.17"/>
<circle cx="461" cy="607" r="4.0" fill="#777872" opacity="0.09"/>
<circle cx="995" cy="329" r="5.7" fill="#777872" opacity="0.39"/>
<circle cx="887" cy="571" r="1.6" fill="#c6c6bd" opacity="0.14"/>
<circle cx="300" cy="494" r="4.0" fill="#c6c6bd" opacity="0.17"/>
<circle cx="109" cy="193" r="3.7" fill="#c6c6bd" opacity="0.22"/>
<circle cx="166" cy="581" r="4.9" fill="#1f1f1c" opacity="0.18"/>
<circle cx="750" cy="300" r="5.2" fill="#c6c6bd" opacity="0.35"/>
<circle cx="509" cy="618" r="4.0" fill="#1f1f1c" opacity="0.14"/>
<circle cx="368" cy="87" r="4.7" fill="#c6c6bd" opacity="0.12"/>
<circle cx="235" cy="313" r="3.0" fill="#ffffff" opacity="0.20"/>
<circle cx="264" cy="26" r="3.2" fill="#c6c6bd" opacity="0.31"/>
<circle cx="193" cy="62" r="4.3" fill="#1f1f1c" opacity="0.31"/>
<circle cx="59" cy="83" r="3.4" fill="#c6c6bd" opacity="0.15"/>
<circle cx="157" cy="601" r="1.5" fill="#777872" opacity="0.36"/>
<circle cx="799" cy="170" r="2.1" fill="#c6c6bd" opacity="0.27"/>
<circle cx="83" cy="229" r="3.1" fill="#1f1f1c" opacity="0.24"/>
<circle cx="774" cy="278" r="5.7" fill="#777872" opacity="0.19"/>
<circle cx="48" cy="499" r="4.6" fill="#2c2d2b" opacity="0.14"/>
<circle cx="623" cy="125" r="2.1" fill="#c6c6bd" opacity="0.11"/>
<circle cx="804" cy="63" r="1.8" fill="#ffffff" opacity="0.14"/>
<circle cx="124" cy="118" r="1.9" fill="#2c2d2b" opacity="0.29"/>
<circle cx="254" cy="474" r="3.3" fill="#c6c6bd" opacity="0.21"/>
<circle cx="610" cy="87" r="1.5" fill="#c6c6bd" opacity="0.33"/>
<circle cx="269" cy="492" r="2.8" fill="#ffffff" opacity="0.34"/>
<circle cx="67" cy="106" r="2.4" fill="#c6c6bd" opacity="0.18"/>
<circle cx="608" cy="339" r="2.7" fill="#c6c6bd" opacity="0.18"/>
<circle cx="140" cy="114" r="1.5" fill="#ffffff" opacity="0.39"/>
<circle cx="425" cy="476" r="2.1" fill="#1f1f1c" opacity="0.15"/>
<circle cx="55" cy="318" r="1.3" fill="#1f1f1c" opacity="0.20"/>
<circle cx="421" cy="574" r="4.8" fill="#ffffff" opacity="0.29"/>
<circle cx="880" cy="119" r="3.3" fill="#2c2d2b" opacity="0.31"/>
<circle cx="249" cy="213" r="4.0" fill="#1f1f1c" opacity="0.21"/>
<circle cx="7" cy="54" r="5.6" fill="#ffffff" opacity="0.40"/>
<circle cx="67" cy="406" r="3.5" fill="#ffffff" opacity="0.30"/>
<circle cx="544" cy="587" r="4.8" fill="#ffffff" opacity="0.21"/>
<path d="M-37 632 C 406 529, 563 799, 961 727" fill="none" stroke="#c6c6bd" stroke-width="5.3" opacity="0.28" stroke-linecap="round"/>
<path d="M-84 442 C 442 315, 601 573, 991 418" fill="none" stroke="#c6c6bd" stroke-width="4.1" opacity="0.28" stroke-linecap="round"/>
<path d="M-67 82 C 485 -64, 608 185, 747 162" fill="none" stroke="#c6c6bd" stroke-width="7.1" opacity="0.28" stroke-linecap="round"/>
<path d="M67 -75 C 312 -168, 438 52, 1022 -9" fill="none" stroke="#c6c6bd" stroke-width="5.7" opacity="0.28" stroke-linecap="round"/>
<path d="M-3 546 C 283 418, 394 644, 993 504" fill="none" stroke="#c6c6bd" stroke-width="5.9" opacity="0.28" stroke-linecap="round"/>
<rect width="1000" height="620" filter="url(#noise)" opacity=".55"/>
</svg>