<svg xmlns="http://www.w3.org/2000/svg" viewBox="0 0 1000 620">
<defs>
<linearGradient id="g" x1="0" x2="1" y1="0" y2="1"><stop stop-color="#f4f1ea"/><stop offset=".55" stop-color="#fff"/><stop offset="1" stop-color="#9d948a"/></linearGradient>
<filter id="noise"><feTurbulence type="fractalNoise" baseFrequency=".035 .09" numOctaves="5" seed="12"/><feColorMatrix type="saturate" values=".22"/><feBlend mode="multiply" in2="SourceGraphic"/></filter>
</defs>
<rect width="1000" height="620" fill="url(#g)"/>
<circle cx="362" cy="107" r="1.5" fill="#fff" opacity="0.37"/>
<circle cx="603" cy="615" r="1.8" fill="#1f1f1c" opacity="0.19"/>
<circle cx="305" cy="282" r="4.6" fill="#9d948a" opacity="0.11"/>
<circle cx="441" cy="93" r="2.9" fill="#fff" opacity="0.09"/>
<circle cx="889" cy="480" r="3.4" fill="#ffffff" opacity="0.16"/>
<circle cx="484" cy="150" r="5.6" fill="#f4f1ea" opacity="0.22"/>
<circle cx="278" cy="129" r="2.6" fill="#fff" opacity="0.11"/>
<circle cx="565" cy="51" r="2.5" fill="#f4f1ea" opacity="0.15"/>
<circle cx="345" cy="426" r="5.2" fill="#f4f1ea" opacity="0.23"/>
<circle cx="758" cy="149" r="2.1" fill="#ffffff" opacity="0.39"/>
<circle cx="431" cy="433" r="4.5" fill="#1f1f1c" opacity="0.28"/>
<circle cx="201" cy="50" r="5.0" fill="#ffffff" opacity="0.41"/>
<circle cx="709" cy="604" r="2.9" fill="#1f1f1c" opacity="0.23"/>
<circle cx="884" cy="194" r="2.7" fill="#1f1f1c" opacity="0.19"/>
<circle cx="989" cy="257" r="5.3" fill="#9d948a" opacity="0.24"/>
<circle cx="440" cy="496" r="3.3" fill="#9d948a" opacity="0.13"/>
<circle cx="533" cy="154" r="2.2" fill="#1f1f1c" opacity="0.11"/>
<circle cx="590" cy="391" r="2.9" fill="#1f1f1c" opacity="0.26"/>
<circle cx="462" cy="34" r="3.3" fill="#ffffff" opacity="0.10"/>
<circle cx="282" cy="232" r="1.5" fill="#9d948a" opacity="0.25"/>
<circle cx="79" cy="47" r="2.1" fill="#1f1f1c" opacity="0.14"/>
<circle cx="753" cy="263" r="5.5" fill="#1f1f1c" opacity="0.33"/>
<circle cx="791" cy="60" r="2.9" fill="#1f1f1c" opacity="0.18"/>
<circle cx="787" cy="89" r="4.5" fill="#f4f1ea" opacity="0.41"/>
<circle cx="480" cy="476" r="2.2" fill="#9d948a" opacity="0.30"/>
<circle cx="836" cy="495" r="5.8" fill="#1f1f1c" opacity="0.30"/>
<circle cx="960" cy="178" r="2.0" fill="#f4f1ea" opacity="0.40"/>
<circle cx="558" cy="586" r="3.0" fill="#f4f1ea" opacity="0.17"/>
<circle cx="314" cy="197" r="4.6" fill="#1f1f1c" opacity="0.16"/>
<circle cx="440" cy="537" r="2.8" fill="#9d948a" opacity="0.36"/>
<circle cx="566" cy="563" r="4.2" fill="#ffffff" opacity="0.35"/>
<circle cx="764" cy="17" r="5.5" fill="#1f1f1c" opacity="0.13"/>
<circle cx="650" cy="611" r="1.5" fill="#ffffff" opacity="0.42"/>
<circle cx="837" cy="147" r="1.9" fill="#9d948a" opacity="0.31"/>
<circle cx="418" cy="84" r="3.9" fill="#9d948a" opacity="0.39"/>
<circle cx="905" cy="298" r="3.8" fill="#9d948a" opacity="0.16"/>
<circle cx="786" cy="301" r="2.3" fill="#fff" opacity="0.09"/>
<circle cx="826" cy="187" r="2.0" fill="#fff" opacity="0.17"/>
<circle cx="645" cy="490" r="5.8" fill="#fff" opacity="0.11"/>
<circle cx="296" cy="241" r="3.3" fill="#ffffff" opacity="0.37"/>
<circle cx="134" cy="310" r="5.7" fill="#ffffff" opacity="0.26"/>
<circle cx="328" cy="241" r="2.5" fill="#ffffff" opacity="0.16"/>
<circle cx="754" cy="601" r="4.7" fill="#ffffff" opacity="0.15"/>
<circle cx="606" cy="103" r="3.5" fill="#9d948a" opacity="0.30"/>
<circle cx="379" cy="405" r="4.2" fill="#9d948a" opacity="0.10"/>
<circle cx="340" cy="605" r="1.6" fill="#9d948a" opacity="0.21"/>
<circle cx="222" cy="214" r="5.6" fill="#1f1f1c" opacity="0.38"/>
<circle cx="882" cy="12" r="1.4" fill="#1f1f1c" opacity="0.30"/>
<circle cx="505" cy="192" r="5.3" fill="#f4f1ea" opacity="0.35"/>
<circle cx="283" cy="608" r="5.5" fill="#ffffff" opacity="0.31"/>
<circle cx="858" cy="485" r="3.0" fill="#fff" opacity="0.20"/>
<circle cx="469" cy="596" r="2.6" fill="#1f1f1c" opacity="0.10"/>
<circle cx="503" cy="13" r="3.3" fill="#1f1f1c" opacity="0.18"/>
<circle cx="471" cy="493" r="3.9" fill="#9d948a" opacity="0.12"/>
<circle cx="441" cy="217" r="2.3" fill="#f4f1ea" opacity="0.32"/>
<circle cx="463" cy="289" r="5.4" fill="#fff" opacity="0.35"/>
<circle cx="455" cy="32" r="5.0" fill="#f4f1ea" opacity="0.35"/>
<circle cx="598" cy="595" r="3.9" fill="#9d948a" opacity="0.10"/>
<circle cx="238" cy="50" r="3.9" fill="#f4f1ea" opacity="0.16"/>
<circle cx="953" cy="61" r="4.8" fill="#f4f1ea" opacity="0.22"/>
<circle cx="557" cy="354" r="2.8" fill="#ffffff" opacity="0.35"/>
<circle cx="579" cy="122" r="4.9" fill="#9d948a" opacity="0.33"/>
<circle cx="611" cy="600" r="2.3" fill="#ffffff" opacity="0.12"/>
<circle cx="560" cy="193" r="5.2" fill="#9d948a" opacity="0.40"/>
<circle cx="966" cy="439" r="2.4" fill="#f4f1ea" opacity="0.37"/>
<circle cx="567" cy="95" r="1.4" fill="#f4f1ea" opacity="0.27"/>
<circle cx="160" cy="188" r="2.1" fill="#ffffff" opacity="0.39"/>
<circle cx="113" cy="150" r="4.4" fill="#9d948a" opacity="0.19"/>
<circle cx="79" cy="21" r="4.6" fill="#1f1f1c" opacity="0.42"/>
<circle cx="557" cy="363" r="3.1" fill="#ffffff" opacity="0.28"/>
<circle cx="380" cy="64" r="5.8" fill="#fff" opacity="0.14"/>
<circle cx="132" cy="5" r="1.9" fill="#f4f1ea" opacity="0.19"/>
<circle cx="186" cy="441" r="5.5" fill="#fff" opacity="0.17"/>
<circle cx="60" cy="527" r="5.7" fill="#fff" opacity="0.25"/>
<circle cx="976" cy="252" r="4.5" fill="#fff" opacity="0.26"/>
<circle cx="345" cy="594" r="4.6" fill="#9d948a" opacity="0.29"/>
<circle cx="680" cy="51" r="2.4" fill="#fff" opacity="0.12"/>
<circle cx="251" cy="250" r="3.1" fill="#f4f1ea" opacity="0.38"/>
<circle cx="107" cy="558" r="2.1" fill="#f4f1ea" opacity="0.20"/>
<circle cx="476" cy="100" r="3.2" fill="#f4f1ea" opacity="0.17"/>
<circle cx="242" cy="88" r="5.7" fill="#1f1f1c" opacity="0.41"/>
<circle cx="175" cy="377" r="3.2" fill="#fff" opacity="0.40"/>
<circle cx="714" cy="319" r="2.1" fill="#9d948a" opacity="0.15"/>
<circle cx="750" cy="53" r="4.6" fill="#1f1f1c" opacity="0.37"/>
<circle cx="800" cy="199" r="5.1" fill="#9d948a" opacity="0.35"/>
<circle cx="976" cy="260" r="1.5" fill="#1f1f1c" opacity="0.33"/>
<circle cx="613" cy="354" r="2.9" fill="#fff" opacity="0.36"/>
<circle cx="804" cy="529" r="4.6" fill="#9d948a" opacity="0.35"/>
<circle cx="539" cy="267" r="1.6" fill="#fff" opacity="0.36"/>
<circle cx="680" cy="590" r="4.9" fill="#fff" opacity="0.14"/>
<path d="M36 28 C 333 -79, 497 178, 929 -29" fill="none" stroke="#9c948b" stroke-width="4.4" opacity="0.28" stroke-linecap="round"/>
<path d="M38 1 C 485 -144, 630 147, 1096 -14" fill="none" stroke="#9c948b" stroke-width="8.8" opacity="0.28" stroke-linecap="round"/>
<path d="M-65 49 C 401 -88, 508 197, 940 118" fill="none" stroke="#9c948b" stroke-width="2.1" opacity="0.28" stroke-linecap="round"/>
<path d="M-14 -25 C 296 -119, 394 117, 1024 34" fill="none" stroke="#9c948b" stroke-width="2.2" opacity="0.28" stroke-linecap="round"/>
<path d="M-85 455 C 416 270, 566 602, 800 391" fill="none" stroke="#9c948b" stroke-width="2.1" opacity="0.28" stroke-linecap="round"/>
<path d="M-45 234 C 324 67, 466 344, 1094 336" fill="none" stroke="#9c948b" stroke-width="6.4" opacity="0.28" stroke-linecap="round"/>
<path d="M-53 44 C 417 -57, 575 107, 985 64" fill="none" stroke="#9c948b" stroke-width="4.1" opacity="0.28" stroke-linecap="round"/>
<path d="M-55 59 C 292 -107, 468 148, 986 92" fill="none" stroke="#9c948b" stroke-width="6.3" opacity="0.28" stroke-linecap="round"/>
<rect width="1000" height="620" filter="url(#noise)" opacity=".55"/>
</svg>