<svg xmlns="http://www.w3.org/2000/svg" viewBox="0 0 1000 620">
<defs>
<linearGradient id="g" x1="0" x2="1" y1="0" y2="1"><stop stop-color="#b9966d"/><stop offset=".55" stop-color="#ead6b8"/><stop offset="1" stop-color="#7a603e"/></linearGradient>
<filter id="noise"><feTurbulence type="fractalNoise" baseFrequency=".035 .09" numOctaves="5" seed="12"/><feColorMatrix type="saturate" values=".22"/><feBlend mode="multiply" in2="SourceGraphic"/></filter>
</defs>
<rect width="1000" height="620" fill="url(#g)"/>
<circle cx="176" cy="414" r="5.4" fill="#7a603e" opacity="0.34"/>
<circle cx="522" cy="298" r="4.7" fill="#ead6b8" opacity="0.33"/>
<circle cx="166" cy="242" r="4.6" fill="#1f1f1c" opacity="0.09"/>
<circle cx="390" cy="358" r="5.4" fill="#1f1f1c" opacity="0.31"/>
<circle cx="47" cy="436" r="5.8" fill="#ead6b8" opacity="0.34"/>
<circle cx="737" cy="168" r="4.8" fill="#ffffff" opacity="0.29"/>
<circle cx="31" cy="618" r="3.5" fill="#1f1f1c" opacity="0.36"/>
<circle cx="702" cy="255" r="2.6" fill="#7a603e" opacity="0.29"/>
<circle cx="136" cy="76" r="5.1" fill="#ffffff" opacity="0.28"/>
<circle cx="586" cy="153" r="1.3" fill="#ffffff" opacity="0.36"/>
<circle cx="742" cy="456" r="5.4" fill="#7a603e" opacity="0.33"/>
<circle cx="288" cy="582" r="3.7" fill="#ffffff" opacity="0.09"/>
<circle cx="406" cy="507" r="3.9" fill="#ead6b8" opacity="0.18"/>
<circle cx="718" cy="415" r="5.3" fill="#ffffff" opacity="0.42"/>
<circle cx="636" cy="367" r="3.1" fill="#ffffff" opacity="0.40"/>
<circle cx="973" cy="559" r="1.8" fill="#b9966d" opacity="0.11"/>
<circle cx="534" cy="395" r="3.0" fill="#7a603e" opacity="0.40"/>
<circle cx="98" cy="115" r="4.6" fill="#ead6b8" opacity="0.08"/>
<circle cx="477" cy="409" r="4.4" fill="#ead6b8" opacity="0.40"/>
<circle cx="495" cy="398" r="2.7" fill="#b9966d" opacity="0.27"/>
<circle cx="975" cy="418" r="3.7" fill="#ead6b8" opacity="0.27"/>
<circle cx="298" cy="241" r="2.3" fill="#1f1f1c" opacity="0.09"/>
<circle cx="662" cy="104" r="2.7" fill="#ffffff" opacity="0.22"/>
<circle cx="639" cy="346" r="2.7" fill="#b9966d" opacity="0.12"/>
<circle cx="460" cy="539" r="2.1" fill="#1f1f1c" opacity="0.22"/>
<circle cx="925" cy="547" r="4.5" fill="#ead6b8" opacity="0.26"/>
<circle cx="337" cy="448" r="2.3" fill="#7a603e" opacity="0.38"/>
<circle cx="584" cy="415" r="5.6" fill="#7a603e" opacity="0.14"/>
<circle cx="121" cy="340" r="1.6" fill="#ffffff" opacity="0.27"/>
<circle cx="207" cy="582" r="1.5" fill="#7a603e" opacity="0.25"/>
<circle cx="0" cy="471" r="1.6" fill="#1f1f1c" opacity="0.39"/>
<circle cx="685" cy="552" r="4.6" fill="#ead6b8" opacity="0.10"/>
<circle cx="215" cy="28" r="2.1" fill="#b9966d" opacity="0.16"/>
<circle cx="761" cy="258" r="4.0" fill="#b9966d" opacity="0.22"/>
<circle cx="913" cy="312" r="3.8" fill="#ffffff" opacity="0.12"/>
<circle cx="300" cy="6" r="3.8" fill="#1f1f1c" opacity="0.18"/>
<circle cx="614" cy="390" r="3.9" fill="#ead6b8" opacity="0.13"/>
<circle cx="689" cy="67" r="3.5" fill="#b9966d" opacity="0.30"/>
<circle cx="7" cy="463" r="2.5" fill="#7a603e" opacity="0.41"/>
<circle cx="711" cy="232" r="2.7" fill="#b9966d" opacity="0.13"/>
<circle cx="857" cy="207" r="3.0" fill="#1f1f1c" opacity="0.28"/>
<circle cx="700" cy="486" r="2.0" fill="#ffffff" opacity="0.12"/>
<circle cx="406" cy="289" r="3.4" fill="#7a603e" opacity="0.28"/>
<circle cx="521" cy="507" r="1.2" fill="#ffffff" opacity="0.25"/>
<circle cx="277" cy="517" r="3.6" fill="#7a603e" opacity="0.41"/>
<circle cx="835" cy="118" r="2.7" fill="#b9966d" opacity="0.16"/>
<circle cx="12" cy="588" r="2.1" fill="#b9966d" opacity="0.10"/>
<circle cx="882" cy="401" r="4.8" fill="#7a603e" opacity="0.26"/>
<circle cx="131" cy="5" r="2.0" fill="#7a603e" opacity="0.28"/>
<circle cx="126" cy="393" r="4.2" fill="#b9966d" opacity="0.21"/>
<circle cx="566" cy="449" r="2.4" fill="#7a603e" opacity="0.26"/>
<circle cx="252" cy="240" r="3.3" fill="#b9966d" opacity="0.15"/>
<circle cx="806" cy="436" r="4.1" fill="#b9966d" opacity="0.27"/>
<circle cx="459" cy="394" r="1.8" fill="#7a603e" opacity="0.31"/>
<circle cx="81" cy="169" r="5.3" fill="#ead6b8" opacity="0.31"/>
<circle cx="903" cy="225" r="3.9" fill="#ffffff" opacity="0.09"/>
<circle cx="681" cy="531" r="5.3" fill="#1f1f1c" opacity="0.30"/>
<circle cx="113" cy="231" r="4.7" fill="#b9966d" opacity="0.42"/>
<circle cx="587" cy="430" r="5.6" fill="#7a603e" opacity="0.33"/>
<circle cx="705" cy="22" r="3.5" fill="#ead6b8" opacity="0.36"/>
<circle cx="496" cy="411" r="4.8" fill="#1f1f1c" opacity="0.16"/>
<circle cx="725" cy="464" r="4.9" fill="#1f1f1c" opacity="0.41"/>
<circle cx="905" cy="530" r="2.5" fill="#b9966d" opacity="0.14"/>
<circle cx="242" cy="389" r="4.1" fill="#1f1f1c" opacity="0.26"/>
<circle cx="982" cy="381" r="3.4" fill="#ffffff" opacity="0.33"/>
<circle cx="205" cy="498" r="2.6" fill="#1f1f1c" opacity="0.24"/>
<circle cx="551" cy="438" r="4.9" fill="#ffffff" opacity="0.31"/>
<circle cx="509" cy="273" r="2.4" fill="#b9966d" opacity="0.39"/>
<circle cx="239" cy="293" r="5.1" fill="#ffffff" opacity="0.15"/>
<circle cx="246" cy="541" r="2.6" fill="#7a603e" opacity="0.22"/>
<circle cx="404" cy="265" r="5.2" fill="#7a603e" opacity="0.23"/>
<circle cx="485" cy="171" r="3.4" fill="#ead6b8" opacity="0.30"/>
<circle cx="963" cy="528" r="4.6" fill="#1f1f1c" opacity="0.42"/>
<circle cx="831" cy="501" r="1.6" fill="#1f1f1c" opacity="0.25"/>
<circle cx="950" cy="184" r="2.8" fill="#b9966d" opacity="0.31"/>
<circle cx="242" cy="468" r="4.5" fill="#ffffff" opacity="0.39"/>
<circle cx="259" cy="529" r="2.9" fill="#1f1f1c" opacity="0.09"/>
<circle cx="587" cy="69" r="4.3" fill="#b9966d" opacity="0.16"/>
<circle cx="67" cy="353" r="5.1" fill="#1f1f1c" opacity="0.32"/>
<circle cx="781" cy="262" r="4.2" fill="#1f1f1c" opacity="0.33"/>
<circle cx="5" cy="244" r="5.3" fill="#ffffff" opacity="0.10"/>
<circle cx="57" cy="113" r="3.5" fill="#ffffff" opacity="0.08"/>
<circle cx="753" cy="411" r="5.1" fill="#ffffff" opacity="0.36"/>
<circle cx="242" cy="579" r="4.1" fill="#ffffff" opacity="0.30"/>
<circle cx="325" cy="394" r="1.3" fill="#ead6b8" opacity="0.09"/>
<circle cx="571" cy="385" r="2.4" fill="#b9966d" opacity="0.23"/>
<circle cx="762" cy="186" r="1.3" fill="#ffffff" opacity="0.18"/>
<circle cx="932" cy="315" r="3.8" fill="#ffffff" opacity="0.22"/>
<circle cx="40" cy="518" r="3.4" fill="#b9966d" opacity="0.38"/>
<circle cx="358" cy="380" r="4.6" fill="#b9966d" opacity="0.19"/>
<path d="M24 27 C 353 -147, 477 172, 764 -27" fill="none" stroke="#7b603f" stroke-width="1.6" opacity="0.28" stroke-linecap="round"/>
<path d="M-90 81 C 306 -100, 417 205, 959 122" fill="none" stroke="#7b603f" stroke-width="1.6" opacity="0.28" stroke-linecap="round"/>
<path d="M14 17 C 461 -74, 637 115, 1058 -38" fill="none" stroke="#7b603f" stroke-width="3.5" opacity="0.28" stroke-linecap="round"/>
<path d="M71 86 C 449 -47, 552 226, 1050 130" fill="none" stroke="#7b603f" stroke-width="3.3" opacity="0.28" stroke-linecap="round"/>
<path d="M-36 -16 C 443 -182, 534 152, 832 -35" fill="none" stroke="#7b603f" stroke-width="3.5" opacity="0.28" stroke-linecap="round"/>
<path d="M-38 268 C 455 82, 540 376, 787 263" fill="none" stroke="#7b603f" stroke-width="2.2" opacity="0.28" stroke-linecap="round"/>
<path d="M-54 -72 C 509 -196, 595 0, 809 23" fill="none" stroke="#7b603f" stroke-width="4.0" opacity="0.28" stroke-linecap="round"/>
<path d="M-90 409 C 347 278, 434 508, 1085 380" fill="none" stroke="#7b603f" stroke-width="3.2" opacity="0.28" stroke-linecap="round"/>
<path d="M-15 338 C 335 210, 510 479, 1090 387" fill="none" stroke="#7b603f" stroke-width="2.9" opacity="0.28" stroke-linecap="round"/>
<path d="M-85 474 C 389 298, 480 598, 959 547" fill="none" stroke="#7b603f" stroke-width="3.6" opacity="0.28" stroke-linecap="round"/>
<path d="M-42 307 C 428 182, 510 407, 1042 388" fill="none" stroke="#7b603f" stroke-width="1.5" opacity="0.28" stroke-linecap="round"/>
<path d="M29 -60 C 392 -231, 495 81, 768 50" fill="none" stroke="#7b603f" stroke-width="2.1" opacity="0.28" stroke-linecap="round"/>
<path d="M5 84 C 362 -104, 466 144, 1101 136" fill="none" stroke="#7b603f" stroke-width="1.4" opacity="0.28" stroke-linecap="round"/>
<path d="M-64 129 C 457 -11, 550 293, 820 65" fill="none" stroke="#7b603f" stroke-width="2.7" opacity="0.28" stroke-linecap="round"/>
<path d="M45 316 C 346 169, 427 452, 854 373" fill="none" stroke="#7b603f" stroke-width="2.3" opacity="0.28" stroke-linecap="round"/>
<path d="M-18 377 C 326 204, 447 508, 906 398" fill="none" stroke="#7b603f" stroke-width="2.0" opacity="0.28" stroke-linecap="round"/>
<path d="M0 -13 C 336 -155, 485 74, 729 -66" fill="none" stroke="#7b603f" stroke-width="3.0" opacity="0.28" stroke-linecap="round"/>
<path d="M-94 168 C 340 -3, 505 265, 868 245" fill="none" stroke="#7b603f" stroke-width="3.8" opacity="0.28" stroke-linecap="round"/>
<rect width="1000" height="620" filter="url(#noise)" opacity=".55"/>
</svg>