<svg xmlns="http://www.w3.org/2000/svg" viewBox="0 0 1000 620">
<defs>
<linearGradient id="g" x1="0" x2="1" y1="0" y2="1"><stop stop-color="#24110b"/><stop offset=".55" stop-color="#6a402d"/><stop offset="1" stop-color="#c39a66"/></linearGradient>
<filter id="noise"><feTurbulence type="fractalNoise" baseFrequency=".035 .09" numOctaves="5" seed="12"/><feColorMatrix type="saturate" values=".22"/><feBlend mode="multiply" in2="SourceGraphic"/></filter>
</defs>
<rect width="1000" height="620" fill="url(#g)"/>
<circle cx="897" cy="425" r="2.9" fill="#c39a66" opacity="0.24"/>
<circle cx="498" cy="223" r="4.3" fill="#ffffff" opacity="0.25"/>
<circle cx="885" cy="174" r="5.5" fill="#1f1f1c" opacity="0.29"/>
<circle cx="934" cy="212" r="5.8" fill="#6a402d" opacity="0.24"/>
<circle cx="256" cy="273" r="2.3" fill="#1f1f1c" opacity="0.28"/>
<circle cx="846" cy="160" r="5.7" fill="#c39a66" opacity="0.14"/>
<circle cx="635" cy="575" r="2.5" fill="#6a402d" opacity="0.22"/>
<circle cx="36" cy="283" r="5.0" fill="#ffffff" opacity="0.32"/>
<circle cx="903" cy="45" r="3.0" fill="#6a402d" opacity="0.20"/>
<circle cx="88" cy="305" r="2.6" fill="#c39a66" opacity="0.32"/>
<circle cx="133" cy="487" r="3.4" fill="#6a402d" opacity="0.30"/>
<circle cx="865" cy="14" r="2.3" fill="#6a402d" opacity="0.08"/>
<circle cx="568" cy="460" r="2.8" fill="#6a402d" opacity="0.16"/>
<circle cx="80" cy="111" r="3.7" fill="#1f1f1c" opacity="0.36"/>
<circle cx="874" cy="210" r="4.5" fill="#c39a66" opacity="0.15"/>
<circle cx="172" cy="350" r="2.7" fill="#c39a66" opacity="0.38"/>
<circle cx="987" cy="178" r="5.7" fill="#c39a66" opacity="0.36"/>
<circle cx="48" cy="314" r="4.6" fill="#24110b" opacity="0.39"/>
<circle cx="499" cy="546" r="4.8" fill="#24110b" opacity="0.20"/>
<circle cx="654" cy="467" r="5.6" fill="#1f1f1c" opacity="0.39"/>
<circle cx="923" cy="475" r="2.6" fill="#c39a66" opacity="0.20"/>
<circle cx="176" cy="211" r="1.2" fill="#ffffff" opacity="0.34"/>
<circle cx="0" cy="385" r="1.7" fill="#24110b" opacity="0.36"/>
<circle cx="42" cy="593" r="2.5" fill="#24110b" opacity="0.36"/>
<circle cx="100" cy="522" r="2.2" fill="#c39a66" opacity="0.25"/>
<circle cx="370" cy="58" r="5.0" fill="#24110b" opacity="0.32"/>
<circle cx="535" cy="321" r="1.9" fill="#24110b" opacity="0.13"/>
<circle cx="861" cy="335" r="1.8" fill="#24110b" opacity="0.39"/>
<circle cx="814" cy="477" r="3.4" fill="#ffffff" opacity="0.11"/>
<circle cx="535" cy="423" r="4.4" fill="#24110b" opacity="0.14"/>
<circle cx="597" cy="69" r="2.3" fill="#1f1f1c" opacity="0.21"/>
<circle cx="75" cy="433" r="4.5" fill="#c39a66" opacity="0.09"/>
<circle cx="546" cy="112" r="1.9" fill="#ffffff" opacity="0.18"/>
<circle cx="901" cy="73" r="1.4" fill="#1f1f1c" opacity="0.41"/>
<circle cx="923" cy="441" r="4.8" fill="#ffffff" opacity="0.16"/>
<circle cx="686" cy="225" r="2.6" fill="#24110b" opacity="0.29"/>
<circle cx="786" cy="474" r="1.9" fill="#6a402d" opacity="0.24"/>
<circle cx="374" cy="302" r="3.0" fill="#1f1f1c" opacity="0.25"/>
<circle cx="896" cy="466" r="3.9" fill="#6a402d" opacity="0.23"/>
<circle cx="262" cy="215" r="3.6" fill="#1f1f1c" opacity="0.31"/>
<circle cx="960" cy="351" r="5.2" fill="#6a402d" opacity="0.38"/>
<circle cx="91" cy="452" r="4.1" fill="#6a402d" opacity="0.16"/>
<circle cx="433" cy="355" r="3.0" fill="#c39a66" opacity="0.34"/>
<circle cx="713" cy="354" r="4.3" fill="#ffffff" opacity="0.30"/>
<circle cx="218" cy="245" r="2.7" fill="#24110b" opacity="0.21"/>
<circle cx="940" cy="347" r="3.3" fill="#ffffff" opacity="0.28"/>
<circle cx="905" cy="13" r="3.5" fill="#c39a66" opacity="0.35"/>
<circle cx="498" cy="15" r="1.5" fill="#24110b" opacity="0.18"/>
<circle cx="661" cy="57" r="1.5" fill="#1f1f1c" opacity="0.10"/>
<circle cx="84" cy="600" r="4.3" fill="#ffffff" opacity="0.13"/>
<circle cx="734" cy="534" r="4.0" fill="#24110b" opacity="0.41"/>
<circle cx="500" cy="117" r="4.2" fill="#6a402d" opacity="0.29"/>
<circle cx="89" cy="147" r="2.2" fill="#1f1f1c" opacity="0.19"/>
<circle cx="490" cy="99" r="4.3" fill="#1f1f1c" opacity="0.14"/>
<circle cx="260" cy="169" r="4.7" fill="#ffffff" opacity="0.19"/>
<circle cx="389" cy="56" r="4.0" fill="#ffffff" opacity="0.21"/>
<circle cx="935" cy="337" r="3.0" fill="#c39a66" opacity="0.38"/>
<circle cx="549" cy="150" r="1.7" fill="#ffffff" opacity="0.14"/>
<circle cx="189" cy="198" r="4.1" fill="#c39a66" opacity="0.25"/>
<circle cx="120" cy="38" r="3.1" fill="#24110b" opacity="0.25"/>
<circle cx="406" cy="331" r="5.0" fill="#24110b" opacity="0.11"/>
<circle cx="865" cy="19" r="4.2" fill="#ffffff" opacity="0.39"/>
<circle cx="422" cy="271" r="5.8" fill="#ffffff" opacity="0.18"/>
<circle cx="483" cy="570" r="2.6" fill="#6a402d" opacity="0.42"/>
<circle cx="635" cy="590" r="2.9" fill="#ffffff" opacity="0.19"/>
<circle cx="655" cy="275" r="2.3" fill="#ffffff" opacity="0.40"/>
<circle cx="792" cy="54" r="4.3" fill="#ffffff" opacity="0.40"/>
<circle cx="844" cy="252" r="2.1" fill="#1f1f1c" opacity="0.38"/>
<circle cx="294" cy="495" r="4.3" fill="#ffffff" opacity="0.23"/>
<circle cx="468" cy="165" r="5.4" fill="#24110b" opacity="0.27"/>
<circle cx="539" cy="155" r="4.1" fill="#6a402d" opacity="0.09"/>
<circle cx="341" cy="353" r="4.4" fill="#ffffff" opacity="0.24"/>
<circle cx="389" cy="98" r="4.1" fill="#c39a66" opacity="0.30"/>
<circle cx="399" cy="267" r="1.6" fill="#6a402d" opacity="0.14"/>
<circle cx="950" cy="609" r="4.2" fill="#1f1f1c" opacity="0.21"/>
<circle cx="316" cy="67" r="4.4" fill="#c39a66" opacity="0.13"/>
<circle cx="564" cy="419" r="4.2" fill="#24110b" opacity="0.32"/>
<circle cx="594" cy="423" r="4.0" fill="#24110b" opacity="0.40"/>
<circle cx="875" cy="491" r="2.0" fill="#1f1f1c" opacity="0.21"/>
<circle cx="676" cy="471" r="2.7" fill="#ffffff" opacity="0.27"/>
<circle cx="634" cy="47" r="2.4" fill="#c39a66" opacity="0.30"/>
<circle cx="877" cy="85" r="4.4" fill="#6a402d" opacity="0.12"/>
<circle cx="546" cy="172" r="3.0" fill="#ffffff" opacity="0.38"/>
<circle cx="429" cy="79" r="1.2" fill="#6a402d" opacity="0.11"/>
<circle cx="417" cy="365" r="4.7" fill="#1f1f1c" opacity="0.30"/>
<circle cx="185" cy="382" r="1.9" fill="#ffffff" opacity="0.17"/>
<circle cx="541" cy="293" r="4.9" fill="#6a402d" opacity="0.10"/>
<circle cx="671" cy="341" r="1.4" fill="#24110b" opacity="0.37"/>
<circle cx="436" cy="375" r="2.1" fill="#ffffff" opacity="0.23"/>
<circle cx="389" cy="272" r="5.1" fill="#24110b" opacity="0.28"/>
<path d="M-40 42 C 464 -99, 551 157, 707 -14" fill="none" stroke="#d4ad72" stroke-width="5.7" opacity="0.52" stroke-linecap="round"/>
<path d="M3 360 C 369 222, 462 439, 995 392" fill="none" stroke="#d4ad72" stroke-width="6.7" opacity="0.52" stroke-linecap="round"/>
<path d="M3 418 C 528 266, 649 492, 787 488" fill="none" stroke="#d4ad72" stroke-width="7.6" opacity="0.52" stroke-linecap="round"/>
<path d="M-17 137 C 341 -5, 443 297, 1003 105" fill="none" stroke="#d4ad72" stroke-width="5.2" opacity="0.52" stroke-linecap="round"/>
<path d="M-106 383 C 281 237, 382 532, 948 355" fill="none" stroke="#d4ad72" stroke-width="2.7" opacity="0.52" stroke-linecap="round"/>
<path d="M62 255 C 387 116, 547 408, 715 261" fill="none" stroke="#d4ad72" stroke-width="4.9" opacity="0.52" stroke-linecap="round"/>
<path d="M-69 59 C 294 -77, 429 196, 938 149" fill="none" stroke="#d4ad72" stroke-width="2.2" opacity="0.52" stroke-linecap="round"/>
<path d="M-63 -22 C 466 -151, 601 53, 848 76" fill="none" stroke="#d4ad72" stroke-width="6.1" opacity="0.52" stroke-linecap="round"/>
<path d="M-69 239 C 364 139, 507 377, 837 266" fill="none" stroke="#d4ad72" stroke-width="8.2" opacity="0.52" stroke-linecap="round"/>
<path d="M-16 406 C 482 275, 640 509, 824 450" fill="none" stroke="#d4ad72" stroke-width="3.0" opacity="0.52" stroke-linecap="round"/>
<path d="M69 150 C 325 20, 420 246, 1091 237" fill="none" stroke="#d4ad72" stroke-width="5.3" opacity="0.52" stroke-linecap="round"/>
<path d="M51 390 C 542 277, 622 474, 1095 416" fill="none" stroke="#d4ad72" stroke-width="3.0" opacity="0.52" stroke-linecap="round"/>
<path d="M-76 577 C 288 429, 401 651, 914 652" fill="none" stroke="#d4ad72" stroke-width="3.9" opacity="0.52" stroke-linecap="round"/>
<path d="M21 56 C 356 -105, 456 195, 736 64" fill="none" stroke="#d4ad72" stroke-width="6.2" opacity="0.52" stroke-linecap="round"/>
<path d="M-85 19 C 346 -143, 474 117, 1029 -33" fill="none" stroke="#d4ad72" stroke-width="8.9" opacity="0.52" stroke-linecap="round"/>
<path d="M74 471 C 434 292, 566 616, 1010 545" fill="none" stroke="#d4ad72" stroke-width="7.5" opacity="0.52" stroke-linecap="round"/>
<rect width="1000" height="620" filter="url(#noise)" opacity=".55"/>
</svg>